<svg xmlns="http://www.w3.org/2000/svg" xmlns:xlink="http://www.w3.org/1999/xlink" width="108" height="108" viewBox="0 0 108 108">
  <defs>
    <filter id="Trazado_904820" x="0" y="0" width="108" height="108" filterUnits="userSpaceOnUse">
      <feOffset dy="3" input="SourceAlpha"/>
      <feGaussianBlur stdDeviation="3" result="blur"/>
      <feFlood flood-opacity="0.161"/>
      <feComposite operator="in" in2="blur"/>
      <feComposite in="SourceGraphic"/>
    </filter>
  </defs>
  <g id="Icono" transform="translate(-615.101 -5000)">
    <g transform="matrix(1, 0, 0, 1, 615.1, 5000)" filter="url(#Trazado_904820)">
      <g id="Trazado_904820-2" data-name="Trazado 904820" transform="translate(9 6)" fill="#fbf2fb">
        <path d="M 45 88.5 C 39.12687683105469 88.5 33.43022537231445 87.35007476806641 28.06830024719238 85.08217620849609 C 22.88852500915527 82.89131164550781 18.23629951477051 79.75458526611328 14.2408504486084 75.75914764404297 C 10.24541282653809 71.76370239257812 7.108687400817871 67.11147308349609 4.917825222015381 61.93170166015625 C 2.649924993515015 56.56977462768555 1.5 50.87312316894531 1.5 45 C 1.5 39.12687683105469 2.649924993515015 33.43022537231445 4.917825222015381 28.06830024719238 C 7.108687400817871 22.88852500915527 10.24541282653809 18.23629951477051 14.2408504486084 14.2408504486084 C 18.23629951477051 10.24541282653809 22.88852500915527 7.108687400817871 28.06830024719238 4.917825222015381 C 33.43022537231445 2.649924993515015 39.12687683105469 1.5 45 1.5 C 50.87312316894531 1.5 56.56977462768555 2.649924993515015 61.93170166015625 4.917825222015381 C 67.11147308349609 7.108687400817871 71.76370239257812 10.24541282653809 75.75914764404297 14.2408504486084 C 79.75458526611328 18.23629951477051 82.89131164550781 22.88852500915527 85.08217620849609 28.06830024719238 C 87.35007476806641 33.43022537231445 88.5 39.12687683105469 88.5 45 C 88.5 50.87312316894531 87.35007476806641 56.56977462768555 85.08217620849609 61.93170166015625 C 82.89131164550781 67.11147308349609 79.75458526611328 71.76370239257812 75.75914764404297 75.75914764404297 C 71.76370239257812 79.75458526611328 67.11147308349609 82.89131164550781 61.93170166015625 85.08217620849609 C 56.56977462768555 87.35007476806641 50.87312316894531 88.5 45 88.5 Z" stroke="none"/>
        <path d="M 45 3 C 39.32871246337891 3 33.82865524291992 4.110054016113281 28.65262985229492 6.299339294433594 C 23.65165710449219 8.414573669433594 19.15968322753906 11.44334411621094 15.301513671875 15.301513671875 C 11.44334411621094 19.15968322753906 8.414573669433594 23.65165710449219 6.299339294433594 28.65262985229492 C 4.110054016113281 33.82865524291992 3 39.32871246337891 3 45 C 3 50.67128753662109 4.110054016113281 56.17134475708008 6.299339294433594 61.34737396240234 C 8.414573669433594 66.34834289550781 11.44334411621094 70.84031677246094 15.301513671875 74.698486328125 C 19.15968322753906 78.55665588378906 23.65165710449219 81.58542633056641 28.65262985229492 83.70066070556641 C 33.82865524291992 85.88994598388672 39.32871246337891 87 45 87 C 50.67128753662109 87 56.17134475708008 85.88994598388672 61.34737396240234 83.70066070556641 C 66.34834289550781 81.58542633056641 70.84031677246094 78.55665588378906 74.698486328125 74.698486328125 C 78.55665588378906 70.84031677246094 81.58542633056641 66.34834289550781 83.70066070556641 61.34737396240234 C 85.88994598388672 56.17134475708008 87 50.67128753662109 87 45 C 87 39.32871246337891 85.88994598388672 33.82865524291992 83.70066070556641 28.65262985229492 C 81.58542633056641 23.65165710449219 78.55665588378906 19.15968322753906 74.698486328125 15.301513671875 C 70.84031677246094 11.44334411621094 66.34834289550781 8.414573669433594 61.34737396240234 6.299339294433594 C 56.17134475708008 4.110054016113281 50.67128753662109 3 45 3 M 45 0 C 69.85281372070312 0 90 20.14718627929688 90 45 C 90 69.85281372070312 69.85281372070312 90 45 90 C 20.14718627929688 90 0 69.85281372070312 0 45 C 0 20.14718627929688 20.14718627929688 0 45 0 Z" stroke="none" fill="#e087dc"/>
      </g>
    </g>
    <g id="performance_10520469" transform="translate(642.56 5021.224)">
      <g id="Grupo_1160047" data-name="Grupo 1160047" transform="translate(0.821 4.429)">
        <path id="Trazado_995310" data-name="Trazado 995310" d="M66.831,160.44h4.375a.349.349,0,0,1,.351.347l0,20.936a.35.35,0,0,1-.351.351H66.827a.349.349,0,0,1-.347-.351l0-20.936A.349.349,0,0,1,66.831,160.44Z" transform="translate(-60.415 -145.003)" fill="#ff4155" fill-rule="evenodd"/>
        <path id="Trazado_995311" data-name="Trazado 995311" d="M176.874,108.8h4.374a.349.349,0,0,1,.351.347l0,23.055a.349.349,0,0,1-.351.347h-4.375a.351.351,0,0,1-.351-.347l0-23.055A.351.351,0,0,1,176.874,108.8Z" transform="translate(-159.043 -98.718)" fill="#ffd23b" fill-rule="evenodd"/>
        <path id="Trazado_995312" data-name="Trazado 995312" d="M286.943,138.17h4.375a.351.351,0,0,1,.351.347l0,20.01a.351.351,0,0,1-.351.347H286.94a.349.349,0,0,1-.351-.347l0-20.01A.349.349,0,0,1,286.943,138.17Z" transform="translate(-257.697 -125.042)" fill="#ff4155" fill-rule="evenodd"/>
        <g id="Grupo_1160046" data-name="Grupo 1160046" transform="translate(6.1 0)">
          <path id="Trazado_995313" data-name="Trazado 995313" d="M69.323,68.249a2.5,2.5,0,1,0-2.5-2.506,2.51,2.51,0,0,0,2.5,2.506Z" transform="translate(-66.82 -57.883)" fill="#70da40" fill-rule="evenodd"/>
          <path id="Trazado_995314" data-name="Trazado 995314" d="M179.393,16.6a2.505,2.505,0,1,0-2.5-2.5A2.511,2.511,0,0,0,179.393,16.6Z" transform="translate(-165.475 -11.59)" fill="#70da40" fill-rule="evenodd"/>
          <path id="Trazado_995315" data-name="Trazado 995315" d="M289.417,45.97a2.505,2.505,0,1,0-2.507-2.5A2.509,2.509,0,0,0,289.417,45.97Z" transform="translate(-264.084 -37.914)" fill="#70da40" fill-rule="evenodd"/>
        </g>
        <path id="Trazado_995316" data-name="Trazado 995316" d="M401.378,108.821H397a.349.349,0,0,0-.351.347l0,27.733a.349.349,0,0,0,.351.347h4.375a.349.349,0,0,0,.347-.347l0-27.733a.351.351,0,0,0-.347-.347Z" transform="translate(-356.343 -98.736)" fill="#ffd23b" fill-rule="evenodd"/>
        <path id="Trazado_995317" data-name="Trazado 995317" d="M399.487,16.62a2.505,2.505,0,1,0-2.507-2.5A2.509,2.509,0,0,0,399.487,16.62Z" transform="translate(-356.639 -11.608)" fill="#70da40" fill-rule="evenodd"/>
        <path id="Trazado_995318" data-name="Trazado 995318" d="M33.723,252.38A25.72,25.72,0,0,1,59.44,278.1H50.2a16.484,16.484,0,0,0-32.967,0H8A25.721,25.721,0,0,1,33.723,252.38Z" transform="translate(-8 -227.408)" fill="#70da40" fill-rule="evenodd"/>
        <path id="Trazado_995319" data-name="Trazado 995319" d="M256.021,252.38a25.642,25.642,0,0,1,18.187,7.536l-6.532,6.533a16.438,16.438,0,0,0-11.656-4.832Z" transform="translate(-230.298 -227.408)" fill="#ffd23b" fill-rule="evenodd"/>
        <path id="Trazado_995320" data-name="Trazado 995320" d="M98.847,261.615a16.429,16.429,0,0,0-11.657,4.829l-6.53-6.534a25.64,25.64,0,0,1,18.188-7.53Z" transform="translate(-73.124 -227.408)" fill="#ff4155" fill-rule="evenodd"/>
        <path id="Trazado_995321" data-name="Trazado 995321" d="M252.531,275.84l-3.63,9.774-3.632,9.772-2.185-1.12-2.184-1.119,5.817-8.652Z" transform="translate(-216.746 -248.435)" fill="#0593fc" fill-rule="evenodd"/>
        <path id="Trazado_995322" data-name="Trazado 995322" d="M224.424,437.218a3.654,3.654,0,1,0-3.654-3.655A3.661,3.661,0,0,0,224.424,437.218Z" transform="translate(-198.704 -386.526)" fill="#407093" fill-rule="evenodd"/>
        <path id="Trazado_995323" data-name="Trazado 995323" d="M66.831,160.44h1.4a.349.349,0,0,0-.351.347l0,16.792q-.731.734-1.4,1.529l0-18.321A.35.35,0,0,1,66.831,160.44Z" transform="translate(-60.415 -145.003)" fill="#e63b4d" fill-rule="evenodd"/>
        <path id="Trazado_995324" data-name="Trazado 995324" d="M176.883,108.8h1.4a.349.349,0,0,0-.347.347l0,15.464q-.709.193-1.4.427l0-15.892A.351.351,0,0,1,176.883,108.8Z" transform="translate(-159.052 -98.718)" fill="#e6bd35" fill-rule="evenodd"/>
        <path id="Trazado_995325" data-name="Trazado 995325" d="M286.952,138.17h1.4a.349.349,0,0,0-.347.347v11.9c-.465-.083-.928-.151-1.4-.211V138.517A.349.349,0,0,1,286.952,138.17Z" transform="translate(-257.706 -125.042)" fill="#e63b4d" fill-rule="evenodd"/>
        <path id="Trazado_995326" data-name="Trazado 995326" d="M397,108.83h1.4a.349.349,0,0,0-.347.347l0,20.113c-.455-.362-.923-.706-1.4-1.037l0-19.075A.351.351,0,0,1,397,108.83Z" transform="translate(-356.343 -98.745)" fill="#e6bd35" fill-rule="evenodd"/>
      </g>
      <path id="Trazado_995327" data-name="Trazado 995327" d="M9.419,15.627a3.34,3.34,0,0,0,3.335-3.335,3.378,3.378,0,0,0-.058-.619l5.568-2.614a3.331,3.331,0,0,0,5.475-.487l5.173,1.379c0,.01,0,.021,0,.031a3.335,3.335,0,0,0,6.671,0c0-.01,0-.021,0-.03l5.175-1.38a3.335,3.335,0,1,0-.429-1.637c0,.01,0,.021,0,.03l-5.175,1.38a3.332,3.332,0,0,0-5.81,0L24.17,6.966c0-.01,0-.021,0-.031a3.335,3.335,0,0,0-6.671,0,3.378,3.378,0,0,0,.058.619L11.99,10.168a3.335,3.335,0,1,0-2.571,5.459ZM43.662,5.261a1.674,1.674,0,1,1-1.674,1.674,1.676,1.676,0,0,1,1.674-1.674ZM32.247,8.307a1.674,1.674,0,1,1-1.674,1.674,1.676,1.676,0,0,1,1.674-1.674ZM20.835,5.261a1.674,1.674,0,1,1-1.674,1.674A1.676,1.676,0,0,1,20.835,5.261ZM9.419,10.618a1.674,1.674,0,1,1-1.674,1.674A1.676,1.676,0,0,1,9.419,10.618ZM47.03,38.233V14.861a1.18,1.18,0,0,0-1.18-1.177H41.475a1.18,1.18,0,0,0-1.18,1.177V32.4a26.184,26.184,0,0,0-4.68-2.244V17.907a1.182,1.182,0,0,0-1.18-1.18H30.06a1.182,1.182,0,0,0-1.18,1.18V28.674q-1.161-.1-2.339-.1c-.786,0-1.567.036-2.342.1V14.861a1.178,1.178,0,0,0-1.177-1.177H18.647a1.18,1.18,0,0,0-1.18,1.177v15.3a26.255,26.255,0,0,0-4.68,2.244V20.218a1.182,1.182,0,0,0-1.18-1.18H7.232a1.182,1.182,0,0,0-1.18,1.18V38.233A26.349,26.349,0,0,0-.01,55.122a.831.831,0,0,0,.831.831h9.236a.831.831,0,0,0,.831-.831A15.66,15.66,0,0,1,30.185,39.9l-.085.128-4.79,7.132a4.484,4.484,0,1,0,5.452,2.794L33.753,41.9l.207-.558a15.725,15.725,0,0,1,8.235,13.783.831.831,0,0,0,.831.831h9.235a.831.831,0,0,0,.831-.831A26.349,26.349,0,0,0,47.03,38.233ZM41.955,15.345h3.413V36.4c-.018-.019-.035-.037-.054-.055A26.816,26.816,0,0,0,41.955,33.5ZM30.541,18.388h3.413V29.617a26.246,26.246,0,0,0-3.413-.747ZM14.906,42.312,9.548,36.954a24.814,24.814,0,0,1,13.879-6.528c.027,0,.053-.005.079-.009q1.089-.134,2.206-.17v7.58a17.247,17.247,0,0,0-10.806,4.484Zm4.222-26.967h3.41V28.87a26.372,26.372,0,0,0-3.41.747ZM7.713,20.7h3.413V33.5a26.9,26.9,0,0,0-3.359,2.849l-.054.055ZM9.246,54.292H1.665A24.793,24.793,0,0,1,8.373,38.128l5.359,5.359a17.242,17.242,0,0,0-4.485,10.8ZM27.372,37.829V30.247q1.111.037,2.195.168a.878.878,0,0,0,.091.01,24.666,24.666,0,0,1,5.89,1.492l-4.38,6.516A17.233,17.233,0,0,0,27.372,37.829ZM32.188,39.9l.032-.047,1.166-1.737L29.63,48.222a4.478,4.478,0,0,0-2.258-1.161Zm-5.647,14.4a2.824,2.824,0,1,1,2.824-2.824A2.827,2.827,0,0,1,26.541,54.292ZM37.2,32.631a24.98,24.98,0,0,1,6.34,4.324l-5.354,5.354a17.328,17.328,0,0,0-3.638-2.54Zm6.641,21.661A17.224,17.224,0,0,0,41.07,45.7a17.467,17.467,0,0,0-1.714-2.219l5.355-5.355a24.808,24.808,0,0,1,6.708,16.163Z"/>
    </g>
  </g>
</svg>
