<svg xmlns="http://www.w3.org/2000/svg" xmlns:xlink="http://www.w3.org/1999/xlink" width="505" height="251" viewBox="0 0 505 251">
  <defs>
    <clipPath id="clip-path">
      <rect id="Rect치ngulo_409908" data-name="Rect치ngulo 409908" width="505" height="251" transform="translate(-35 -16)" fill="#fff" stroke="#707070" stroke-width="1" opacity="0.33"/>
    </clipPath>
    <filter id="Elipse_11745" x="105.162" y="11.33" width="277.601" height="277.601" filterUnits="userSpaceOnUse">
      <feOffset dy="3" input="SourceAlpha"/>
      <feGaussianBlur stdDeviation="3" result="blur"/>
      <feFlood flood-opacity="0.161"/>
      <feComposite operator="in" in2="blur"/>
      <feComposite in="SourceGraphic"/>
    </filter>
    <clipPath id="clip-path-2">
      <rect id="Rect치ngulo_409907" data-name="Rect치ngulo 409907" width="619.42" height="297.798"/>
    </clipPath>
    <clipPath id="clip-path-3">
      <path id="Trazado_994543" data-name="Trazado 994543" d="M160.695,153.85c-2,10.775-.908,20,2.445,20.6s7.694-7.646,9.7-18.421.908-20-2.445-20.6S162.7,143.076,160.695,153.85Z" transform="translate(-159.693 -135.398)"/>
    </clipPath>
    <linearGradient id="linear-gradient" x1="75.343" y1="24.587" x2="76.121" y2="24.587" gradientUnits="objectBoundingBox">
      <stop offset="0" stop-color="#fff"/>
      <stop offset="0.941" stop-color="#f9f9f9"/>
    </linearGradient>
    <linearGradient id="linear-gradient-2" x1="79.422" y1="26.2" x2="80.199" y2="26.2" xlink:href="#linear-gradient"/>
    <linearGradient id="linear-gradient-3" x1="0.15" y1="0.217" x2="0.85" y2="0.949" xlink:href="#linear-gradient"/>
  </defs>
  <g id="Enmascarar_grupo_1159092" data-name="Enmascarar grupo 1159092" transform="translate(35 16)" clip-path="url(#clip-path)">
    <g id="Grupo_1159573" data-name="Grupo 1159573" transform="translate(-3.222 -36.644)">
      <g id="Grupo_1159430" data-name="Grupo 1159430" transform="translate(44.405 0)">
        <g transform="matrix(1, 0, 0, 1, -76.18, 20.64)" filter="url(#Elipse_11745)">
          <circle id="Elipse_11745-2" data-name="Elipse 11745" cx="129.801" cy="129.801" r="129.801" transform="translate(114.16 17.33)" fill="#fff"/>
        </g>
        <circle id="Elipse_11746" data-name="Elipse 11746" cx="118.634" cy="118.634" r="118.634" transform="translate(0 167.774) rotate(-45)" fill="#79c9e0"/>
      </g>
      <g id="Grupo_1159572" data-name="Grupo 1159572" transform="translate(0 5.116)">
        <g id="Grupo_1159494" data-name="Grupo 1159494" transform="translate(4.398 54.704)">
          <g id="Grupo_1159434" data-name="Grupo 1159434" transform="translate(100.097 68.735)">
            <path id="Trazado_994471" data-name="Trazado 994471" d="M220.824,313.794,217.55,203.558H377.991v109.69l-156.928.341" transform="translate(-200.292 -203.558)" fill="#0b0a10"/>
            <path id="Trazado_994472" data-name="Trazado 994472" d="M374.829,312.173H231.748l-3.206-98.5h147.89Z" transform="translate(-204.462 -207.395)" fill="#ffb3da"/>
            <g id="Grupo_1159433" data-name="Grupo 1159433" transform="translate(0 109.69)">
              <g id="Grupo_1159432" data-name="Grupo 1159432">
                <path id="Trazado_994473" data-name="Trazado 994473" d="M189.74,412.578H388.655L367.44,380.313H210Z" transform="translate(-189.74 -380.313)" fill="#b7b8fb"/>
                <path id="Trazado_994474" data-name="Trazado 994474" d="M189.74,412.578H388.655L367.44,380.313H210Z" transform="translate(-189.74 -380.313)" fill="#0b0a10" opacity="0.68"/>
              </g>
              <path id="Trazado_994475" data-name="Trazado 994475" d="M224.949,387.128H375.157l3.138,3.547H221.947Z" transform="translate(-201.96 -382.899)" fill="none" stroke="#fff" stroke-linecap="round" stroke-linejoin="round" stroke-miterlimit="10" stroke-width="0.306"/>
              <path id="Trazado_994476" data-name="Trazado 994476" d="M216.608,399.894H377.565l3.362,3.8H214.142Z" transform="translate(-198.999 -387.743)" fill="none" stroke="#fff" stroke-linecap="round" stroke-linejoin="round" stroke-miterlimit="10" stroke-width="0.328"/>
              <path id="Trazado_994477" data-name="Trazado 994477" d="M269.616,414.829h90.847l1.9,4.3H268.224Z" transform="translate(-219.519 -393.409)" fill="none" stroke="#fff" stroke-linecap="round" stroke-linejoin="round" stroke-miterlimit="10" stroke-width="0.262"/>
            </g>
          </g>
          <g id="Grupo_1159493" data-name="Grupo 1159493" transform="translate(0 0)">
            <g id="Grupo_1159459" data-name="Grupo 1159459" transform="translate(129.332 9.465)">
              <g id="Grupo_1159444" data-name="Grupo 1159444" transform="translate(0 8.042)">
                <g id="Grupo_1159442" data-name="Grupo 1159442" transform="translate(139.94)">
                  <g id="Grupo_1159435" data-name="Grupo 1159435" transform="translate(0 32.054)">
                    <path id="Trazado_994478" data-name="Trazado 994478" d="M481.128,186.126c10.759,3.008,20.133,3.115,20.936.24s-7.266-7.645-18.025-10.653-20.133-3.115-20.936-.24S470.369,183.118,481.128,186.126Z" transform="translate(-462.615 -172.936)" fill="#050004"/>
                    <path id="Trazado_994479" data-name="Trazado 994479" d="M495.4,188.611c-.114,0-.226,0-.337,0a65.793,65.793,0,0,1-27.765-7.762c-2.538-1.5-5.444-3.718-4.872-5.764,1.02-3.653,11.822-2.756,21.468-.06s19.344,7.533,18.324,11.184C501.665,188.176,498.278,188.611,495.4,188.611Zm-14.418-3.174a57.507,57.507,0,0,0,14.091,2.31c3.641.052,5.993-.621,6.314-1.771.634-2.266-6.491-6.98-17.726-10.121s-19.772-2.806-20.405-.538c-.321,1.151,1.353,2.941,4.481,4.789a57.558,57.558,0,0,0,13.246,5.331Z" transform="translate(-462.35 -172.662)" fill="#fff"/>
                  </g>
                  <g id="Grupo_1159441" data-name="Grupo 1159441" transform="translate(4.217)">
                    <g id="Grupo_1159440" data-name="Grupo 1159440">
                      <g id="Grupo_1159436" data-name="Grupo 1159436" transform="translate(17.175 5.167)">
                        <path id="Trazado_994480" data-name="Trazado 994480" d="M498.668,143.451a1.524,1.524,0,0,1-.981-.763l-.171-.316a32.065,32.065,0,0,0,2.3-4.206c.992-2.268,1.763-4.692,3.415-6.592,1.056-1.215,3.756-2.485,4.9-.53,0,.008.007.017.012.025a81.477,81.477,0,0,1-6.315,12.817A16.85,16.85,0,0,1,498.668,143.451Z" transform="translate(-497.086 -129.599)" fill="#fff"/>
                        <path id="Trazado_994481" data-name="Trazado 994481" d="M501.564,144.053h-.019a17.057,17.057,0,0,1-3.24-.446h0a1.948,1.948,0,0,1-1.262-.978l-.17-.315a.43.43,0,0,1,.014-.435,30.988,30.988,0,0,0,2.266-4.149c.2-.465.4-.936.591-1.408a18.507,18.507,0,0,1,2.893-5.3,4.945,4.945,0,0,1,3.721-1.678,2.365,2.365,0,0,1,1.88,1.213.542.542,0,0,1,.042.4,80.989,80.989,0,0,1-6.352,12.888A.432.432,0,0,1,501.564,144.053Zm-3.813-1.929.051.1a1.1,1.1,0,0,0,.7.548h0a16.164,16.164,0,0,0,2.829.412,80.524,80.524,0,0,0,6.066-12.328,1.465,1.465,0,0,0-1.118-.643,4.079,4.079,0,0,0-2.992,1.385,17.862,17.862,0,0,0-2.746,5.057c-.2.478-.393.954-.6,1.425A31.2,31.2,0,0,1,497.752,142.123Z" transform="translate(-496.822 -129.335)" fill="#050004"/>
                      </g>
                      <g id="Grupo_1159437" data-name="Grupo 1159437" transform="translate(21.486 4.061)">
                        <path id="Trazado_994482" data-name="Trazado 994482" d="M504.465,143.209a81.429,81.429,0,0,0,6.315-12.817c.025-.064.051-.126.076-.19a2.572,2.572,0,0,1,2.553-1.952,3.192,3.192,0,0,1,2.908,2.314A43.622,43.622,0,0,1,510.26,142.3,14.6,14.6,0,0,1,504.465,143.209Z" transform="translate(-504.033 -127.817)" fill="#fff"/>
                        <path id="Trazado_994483" data-name="Trazado 994483" d="M504.854,143.39c-.223,0-.447,0-.672-.014a.431.431,0,0,1-.347-.659,80.047,80.047,0,0,0,6.279-12.746l.076-.191a2.994,2.994,0,0,1,2.968-2.225,3.614,3.614,0,0,1,3.306,2.613.433.433,0,0,1,0,.259,43.586,43.586,0,0,1-6.113,11.852.438.438,0,0,1-.205.161A15.036,15.036,0,0,1,504.854,143.39Zm8.2-14.974a2.181,2.181,0,0,0-2.059,1.679l-.077.192a83.011,83.011,0,0,1-5.954,12.24,14.18,14.18,0,0,0,4.755-.848,42.744,42.744,0,0,0,5.881-11.373,2.744,2.744,0,0,0-2.468-1.888Z" transform="translate(-503.769 -127.554)" fill="#050004"/>
                      </g>
                      <g id="Grupo_1159438" data-name="Grupo 1159438" transform="translate(27.281 2.565)">
                        <path id="Trazado_994484" data-name="Trazado 994484" d="M513.8,141.382a43.647,43.647,0,0,0,6.057-11.736c.08-.258.161-.516.235-.779a4.253,4.253,0,0,1,1.716-2.485c2.356-1.511,4.485.56,4.485.56a2.64,2.64,0,0,1,.306.643C524.8,131.549,520.669,138.814,513.8,141.382Z" transform="translate(-513.372 -125.404)" fill="#fff"/>
                        <path id="Trazado_994485" data-name="Trazado 994485" d="M513.539,141.554a.432.432,0,0,1-.356-.675,42.8,42.8,0,0,0,6-11.62l.044-.143c.064-.207.128-.414.187-.626a4.692,4.692,0,0,1,1.9-2.732,4.1,4.1,0,0,1,5.019.615,2.877,2.877,0,0,1,.413.812.433.433,0,0,1-.015.319c-1.873,4.116-6.059,11.41-13.039,14.022A.427.427,0,0,1,513.539,141.554ZM523.365,126a2.894,2.894,0,0,0-1.587.485,3.838,3.838,0,0,0-1.533,2.239c-.061.218-.127.433-.193.646l-.045.143a41.011,41.011,0,0,1-5.291,10.634c5.817-2.838,9.43-9.1,11.154-12.838a1.862,1.862,0,0,0-.2-.38A3.777,3.777,0,0,0,523.365,126Z" transform="translate(-513.108 -125.143)" fill="#050004"/>
                      </g>
                      <g id="Grupo_1159439" data-name="Grupo 1159439">
                        <path id="Trazado_994486" data-name="Trazado 994486" d="M476.605,144.795a5.82,5.82,0,0,0,.2-3.133l-2.07-9.776a3.851,3.851,0,0,1,1.373-3.813,3.667,3.667,0,0,1,5.487,1.1l5.416,10.042.171.316a1.527,1.527,0,0,0,.981.763,16.8,16.8,0,0,0,3.161.435,14.631,14.631,0,0,0,5.8-.909c6.866-2.569,10.993-9.833,12.8-13.8.177-.388.333-.747.465-1.065a5.192,5.192,0,0,1,3.531-3.136c1.627-.376,3.589.038,4.932,3.2,2.686,6.324-15.817,25.6-15.817,25.6L498.1,174.056c-4.4,7.034-28.257-10.028-28.257-10.028Z" transform="translate(-469.41 -121.273)" fill="#fff"/>
                        <path id="Trazado_994487" data-name="Trazado 994487" d="M494.1,175.924c-8.166,0-24.062-11.3-24.773-11.808a.43.43,0,0,1-.156-.493l6.764-19.233h0a5.372,5.372,0,0,0,.188-2.9l-2.07-9.776a4.256,4.256,0,0,1,1.527-4.24,4.1,4.1,0,0,1,6.133,1.226L487.3,139.06a1.1,1.1,0,0,0,.7.548,16.187,16.187,0,0,0,3.081.424,14.331,14.331,0,0,0,5.627-.882c6.689-2.5,10.739-9.577,12.556-13.571.173-.384.328-.738.459-1.053a5.627,5.627,0,0,1,3.833-3.39c1.641-.379,3.921-.09,5.425,3.452,2.7,6.352-14.28,24.365-15.816,25.975l-4.91,23.319a.418.418,0,0,1-.057.141,3.976,3.976,0,0,1-2.733,1.777A7.1,7.1,0,0,1,494.1,175.924ZM470.092,163.6c2.268,1.586,18.455,12.691,25.207,11.353a3.113,3.113,0,0,0,2.129-1.327l4.919-23.362a.429.429,0,0,1,.111-.21c.182-.191,18.274-19.139,15.73-25.131-1.019-2.4-2.511-3.393-4.438-2.949a4.764,4.764,0,0,0-3.23,2.882c-.133.321-.292.684-.47,1.077-1.873,4.116-6.059,11.411-13.04,14.022a15.109,15.109,0,0,1-5.965.936,17.078,17.078,0,0,1-3.241-.446,1.949,1.949,0,0,1-1.261-.978l-5.587-10.358a3.235,3.235,0,0,0-4.839-.963,3.4,3.4,0,0,0-1.219,3.386l2.07,9.776a6.24,6.24,0,0,1-.218,3.366Z" transform="translate(-469.146 -121.009)" fill="#050004"/>
                      </g>
                    </g>
                  </g>
                </g>
                <path id="Trazado_994488" data-name="Trazado 994488" d="M414.466,187.673c-17.8,3.291-31.833-6.615-35.837-9.84a1,1,0,0,0-1.586.5L366.375,214.91A32.75,32.75,0,0,0,342.3,204.29l-8.4-.083-57.322.483-.008-.03-1.514.037-.5,0-.007.011-4.616.113c-10.8.264-20.518,8.368-23.475,20.37q-.179.726-.325,1.469l-9.282,73.031,28.669.1,18.8.1,75.339-.241-.09-11.364a37.981,37.981,0,0,0,35.178-16.256,38.5,38.5,0,0,0,5.843-14.139l15.406-68.634A1.315,1.315,0,0,0,414.466,187.673Z" transform="translate(-236.85 -142.486)" fill="#5865ff" stroke="#020202" stroke-miterlimit="10" stroke-width="1"/>
                <g id="Grupo_1159443" data-name="Grupo 1159443" transform="translate(122.12 50.464)">
                  <path id="Trazado_994489" data-name="Trazado 994489" d="M434.068,264.861a.432.432,0,0,1-.418-.539l7.151-27.81a.431.431,0,0,1,.835.216l-7.151,27.81A.431.431,0,0,1,434.068,264.861Z" transform="translate(-433.636 -215.175)" fill="#020202"/>
                  <path id="Trazado_994490" data-name="Trazado 994490" d="M501.1,213.372a44.9,44.9,0,0,1-21.059-5.547.431.431,0,0,1,.408-.76c13.447,7.206,24.485,5.2,24.6,5.177a.431.431,0,0,1,.162.847A24.666,24.666,0,0,1,501.1,213.372Z" transform="translate(-451.158 -204.105)" fill="#fff"/>
                  <path id="Trazado_994491" data-name="Trazado 994491" d="M511.59,206.752h-.024a2.213,2.213,0,0,1-1.524-3.794,2.213,2.213,0,1,1,1.548,3.795Zm0-3.563a1.35,1.35,0,1,0,.964.405A1.347,1.347,0,0,0,511.59,203.188Z" transform="translate(-462.374 -202.327)" fill="#fff"/>
                </g>
              </g>
              <g id="Grupo_1159453" data-name="Grupo 1159453" transform="translate(45.282)">
                <g id="Grupo_1159445" data-name="Grupo 1159445" transform="translate(0)">
                  <path id="Trazado_994492" data-name="Trazado 994492" d="M311.849,127.337a9.4,9.4,0,0,0-.375,9.023l3.572,7.566-.17.035s3.726,19.541,13,14.41a11.85,11.85,0,0,0,3.862-3.39,20.94,20.94,0,0,0,28.877-18.86,3.2,3.2,0,0,0,2.473-1.448,9.594,9.594,0,0,0-5.753-16.754c-4.172-4.55-6.9-9.264-15.159-9.169a11.057,11.057,0,0,0-9.139,4.709c-.022.032-.026.078-.056.1-.359.285-4.4.267-4.953.354-4,.619-9.149,1.636-11.533,5.249a13.35,13.35,0,0,0-1.844,5.387A8.837,8.837,0,0,0,311.849,127.337Z" transform="translate(-310.078 -108.316)" fill="#050004"/>
                  <path id="Trazado_994493" data-name="Trazado 994493" d="M324.606,159.4a5.38,5.38,0,0,1-2.307-.526c-5.678-2.663-8.011-14.588-8.107-15.094l-.079-.417.05-.01-3.338-7.071a9.873,9.873,0,0,1,.4-9.439h0a9.366,9.366,0,0,1,2.768-2.814,13.8,13.8,0,0,1,1.879-5.365c2.329-3.531,7.061-4.7,11.827-5.438.2-.032.686-.047,1.521-.073a28.883,28.883,0,0,0,3.2-.2,11.5,11.5,0,0,1,9.492-4.9c7.311-.1,10.455,3.553,13.8,7.4.51.588,1.028,1.184,1.57,1.779a9.518,9.518,0,0,1,1.2.17,10.055,10.055,0,0,1,4.7,17.272,3.439,3.439,0,0,1-2.4,1.533,21.282,21.282,0,0,1-21.355,20.5H339.4a21.221,21.221,0,0,1-7.776-1.473,12.332,12.332,0,0,1-3.8,3.245A6.639,6.639,0,0,1,324.606,159.4Zm-9.48-15.366c.466,2.135,2.824,11.849,7.54,14.06a4.944,4.944,0,0,0,4.739-.361,11.481,11.481,0,0,0,3.723-3.268l.2-.272.312.128a20.374,20.374,0,0,0,7.759,1.533h.019a20.427,20.427,0,0,0,20.505-20.005l.009-.353.349-.06a2.8,2.8,0,0,0,2.165-1.223l.094-.121a9.165,9.165,0,0,0-5.5-16l-.171-.012-.116-.127c-.589-.642-1.149-1.288-1.7-1.922-3.347-3.856-6.222-7.184-13.137-7.107a10.631,10.631,0,0,0-8.785,4.518.388.388,0,0,1-.146.2c-.282.223-1.016.3-3.741.379-.617.019-1.254.037-1.415.063-4.571.707-9.095,1.81-11.239,5.061a12.824,12.824,0,0,0-1.778,5.215l-.03.2-.169.1a8.47,8.47,0,0,0-2.663,2.651h0a9,9,0,0,0-.349,8.607l3.805,8.061Z" transform="translate(-309.819 -108.051)" fill="#050004"/>
                </g>
                <g id="Grupo_1159447" data-name="Grupo 1159447" transform="translate(3.189 16.803)">
                  <path id="Trazado_994494" data-name="Trazado 994494" d="M326.879,162.4c-.117.027-.231.06-.346.092C326.647,162.457,326.763,162.427,326.879,162.4Z" transform="translate(-319.349 -145.474)" fill="none"/>
                  <path id="Trazado_994495" data-name="Trazado 994495" d="M325.417,162.812c-.163.058-.324.119-.482.187C325.093,162.932,325.254,162.87,325.417,162.812Z" transform="translate(-318.743 -145.631)" fill="none"/>
                  <g id="Grupo_1159446" data-name="Grupo 1159446">
                    <path id="Trazado_994496" data-name="Trazado 994496" d="M361.587,142.043c-3.6-5.486-4.143-5.748-.372.191a15.386,15.386,0,0,1-20.938-6.411,11.227,11.227,0,0,1-10.1,14l.022,2.357a9.553,9.553,0,0,1-.24,2.207,8.321,8.321,0,0,0-6.271-2.224,7.272,7.272,0,0,0-.941.158c-.117.029-.232.059-.346.092-.173.048-.342.1-.51.164s-.324.12-.482.187a8.358,8.358,0,0,0-1.669.963l-.009-.03a9.345,9.345,0,0,0,7.449,16.806l.388.289,1.193,33.13,25.18-2.148c-.536-6.285-1.669-18.908-1.671-18.923.012-.056,1.54-.492,3.441-1.015l.133-.037A14.286,14.286,0,0,0,366.2,166.347c-.621-5.272-1.218-10.6-1.26-11.964C364.809,150.108,363.96,145.666,361.587,142.043Z" transform="translate(-315.22 -135.391)" fill="#fff"/>
                    <path id="Trazado_994497" data-name="Trazado 994497" d="M328.5,204.083a.431.431,0,0,1-.431-.416l-1.186-32.923-.064-.047a9.775,9.775,0,0,1-7.594-17.626.441.441,0,0,1,.136-.062,8.877,8.877,0,0,1,1.614-.91c.171-.071.339-.137.509-.2s.357-.123.541-.174c.113-.034.235-.065.357-.095a7.645,7.645,0,0,1,1.006-.169,8.618,8.618,0,0,1,6.021,1.859,9.054,9.054,0,0,0,.1-1.408l-.022-2.356a.431.431,0,0,1,.4-.434,10.865,10.865,0,0,0,9.338-6.917,10.75,10.75,0,0,0,.371-6.541.431.431,0,0,1,.8-.308,14.953,14.953,0,0,0,19.94,6.445c-2.7-4.253-2.62-4.3-2.2-4.574s.5-.332,3.549,4.314h0c2.114,3.227,3.267,7.454,3.425,12.564.035,1.115.469,5.239,1.257,11.927A14.631,14.631,0,0,1,355.7,181.946l-.134.037c-1.919.528-2.744.771-3.1.884.18,2.011,1.156,12.907,1.641,18.6a.431.431,0,0,1-.393.467l-25.179,2.148ZM326.92,169.8a.428.428,0,0,1,.258.086l.388.289a.431.431,0,0,1,.173.33l1.177,32.676,24.3-2.073c-.518-6.045-1.51-17.116-1.623-18.374l-.011-.12a.447.447,0,0,1,.007-.125c.07-.33.07-.33,3.748-1.342l.248.38-.115-.415a13.773,13.773,0,0,0,10.041-14.981c-.8-6.808-1.227-10.846-1.263-12a23.567,23.567,0,0,0-3.077-11.793l-.016.009a15.81,15.81,0,0,1-20.378-4.734,11.564,11.564,0,0,1-.747,4.9,11.731,11.731,0,0,1-9.677,7.433l.019,1.959a10.044,10.044,0,0,1-.249,2.306.431.431,0,0,1-.288.315.426.426,0,0,1-.418-.086,7.832,7.832,0,0,0-5.948-2.119,6.814,6.814,0,0,0-.886.149c-.1.025-.211.053-.319.086-.169.047-.328.1-.487.157s-.309.115-.461.179a7.948,7.948,0,0,0-1.577.91.418.418,0,0,1-.159.074,8.917,8.917,0,0,0,7.243,15.936A.455.455,0,0,1,326.92,169.8Z" transform="translate(-314.957 -135.127)" fill="#050004"/>
                  </g>
                  <path id="Trazado_994498" data-name="Trazado 994498" d="M357.749,211.746a19.227,19.227,0,0,1-9.152-2.253c4.6,8.744,16.987,9.448,16.987,9.448l-.735-8.612A19.238,19.238,0,0,1,357.749,211.746Z" transform="translate(-327.721 -163.343)" fill="#050004"/>
                </g>
                <g id="Grupo_1159450" data-name="Grupo 1159450" transform="translate(30.859 26.052)">
                  <path id="Trazado_994499" data-name="Trazado 994499" d="M372.35,164.12a1.407,1.407,0,1,1-1.219-1.573A1.407,1.407,0,0,1,372.35,164.12Z" transform="translate(-363.34 -154.776)" fill="#050004"/>
                  <path id="Trazado_994500" data-name="Trazado 994500" d="M391.917,164.238a1.248,1.248,0,1,1-1.081-1.4A1.249,1.249,0,0,1,391.917,164.238Z" transform="translate(-370.884 -154.889)" fill="#050004"/>
                  <g id="Grupo_1159448" data-name="Grupo 1159448" transform="translate(1.9 0.565)">
                    <path id="Trazado_994501" data-name="Trazado 994501" d="M369.55,153.041a3.9,3.9,0,0,1-1.56.426c-.57.077-1.141.169-1.635.266s-1.058.228-1.615.372a3.866,3.866,0,0,1-1.6.194c-.459-.1-.733-.576-.354-1.306a4.458,4.458,0,0,1,3.088-1.943,4.327,4.327,0,0,1,3.552.64C370.031,152.227,369.944,152.777,369.55,153.041Z" transform="translate(-362.607 -150.942)" fill="#050004"/>
                  </g>
                  <g id="Grupo_1159449" data-name="Grupo 1159449" transform="translate(16.995)">
                    <path id="Trazado_994502" data-name="Trazado 994502" d="M387.209,151.9a3.459,3.459,0,0,0,1.384.377c.506.068,1.012.148,1.45.235s.939.2,1.434.329a3.435,3.435,0,0,0,1.421.171c.407-.086.649-.511.313-1.159a3.956,3.956,0,0,0-2.74-1.721,3.837,3.837,0,0,0-3.151.57C386.781,151.175,386.859,151.663,387.209,151.9Z" transform="translate(-386.931 -150.032)" fill="#050004"/>
                  </g>
                  <path id="Trazado_994503" data-name="Trazado 994503" d="M378.086,170.5a.431.431,0,0,1-.026-.862l2.323-.142a2.584,2.584,0,0,0,2.294-3.4l-2.827-8.461a.431.431,0,1,1,.818-.274l2.827,8.462a3.446,3.446,0,0,1-3.059,4.532l-2.323.142Z" transform="translate(-366.417 -152.703)" fill="#050004"/>
                  <path id="Trazado_994504" data-name="Trazado 994504" d="M372.406,182.059h-.025c-5.6-.33-5.655-4.057-5.655-4.1a.431.431,0,0,1,.431-.43h0a.432.432,0,0,1,.431.429c0,.126.1,2.956,4.843,3.235a.431.431,0,0,1-.025.861Z" transform="translate(-362.27 -160.467)" fill="#050004"/>
                  <path id="Trazado_994505" data-name="Trazado 994505" d="M391.386,168.19a5.525,5.525,0,1,1,.876-.07A5.53,5.53,0,0,1,391.386,168.19Zm.005-10.181a4.659,4.659,0,1,0,4.6,3.923A4.679,4.679,0,0,0,391.391,158.009Z" transform="translate(-369.532 -152.731)" fill="#d0c1ff"/>
                  <path id="Trazado_994506" data-name="Trazado 994506" d="M365.825,169.3a6.312,6.312,0,1,1,1.01-.081A6.385,6.385,0,0,1,365.825,169.3Zm.017-11.726a5.432,5.432,0,1,0,5.361,4.573A5.431,5.431,0,0,0,365.843,157.572Z" transform="translate(-359.546 -152.565)" fill="#d0c1ff"/>
                  <path id="Trazado_994507" data-name="Trazado 994507" d="M379.074,165.567a.431.431,0,0,1-.243-.787c2.974-2.031,4.981-.194,5-.175a.431.431,0,0,1-.59.629c-.071-.065-1.55-1.363-3.925.259A.431.431,0,0,1,379.074,165.567Z" transform="translate(-366.791 -155.265)" fill="#d0c1ff"/>
                </g>
                <g id="Grupo_1159452" data-name="Grupo 1159452" transform="translate(9.963 40.11)">
                  <g id="Grupo_1159451" data-name="Grupo 1159451">
                    <path id="Trazado_994508" data-name="Trazado 994508" d="M327.242,178.11a.432.432,0,0,1-.292-.749l1.852-1.7-2.766-2.208a.431.431,0,1,1,.539-.674l3.159,2.522a.432.432,0,0,1,.023.655L327.534,178A.428.428,0,0,1,327.242,178.11Z" transform="translate(-325.874 -172.684)" fill="#050004"/>
                  </g>
                </g>
              </g>
              <g id="Grupo_1159458" data-name="Grupo 1159458" transform="translate(57.549 66.744)">
                <g id="Grupo_1159454" data-name="Grupo 1159454" transform="translate(0.002 0.14)">
                  <path id="Trazado_994509" data-name="Trazado 994509" d="M361.892,314.516h-31.61V216.524l16.012,9.219,15.6-9.219Z" transform="translate(-329.851 -216.093)" fill="#f7bb63"/>
                  <path id="Trazado_994510" data-name="Trazado 994510" d="M361.629,314.684h-31.61a.431.431,0,0,1-.431-.431V216.261a.432.432,0,0,1,.647-.374l15.794,9.093,15.382-9.091a.435.435,0,0,1,.433,0,.431.431,0,0,1,.218.375v97.992A.432.432,0,0,1,361.629,314.684Zm-31.179-.863H361.2v-96.8l-14.947,8.834a.435.435,0,0,1-.434,0l-15.365-8.846v96.814Z" transform="translate(-329.588 -215.83)" fill="#050004"/>
                </g>
                <g id="Grupo_1159455" data-name="Grupo 1159455" transform="translate(0)" opacity="0.63">
                  <path id="Trazado_994511" data-name="Trazado 994511" d="M361.336,314.6h-31.32a.431.431,0,0,1-.431-.431V216.036a.433.433,0,0,1,.217-.374.437.437,0,0,1,.432,0l15.645,9.105,15.236-9.1a.432.432,0,0,1,.652.37v98.131A.431.431,0,0,1,361.336,314.6Zm-30.888-.863H360.9V216.8l-14.8,8.843a.434.434,0,0,1-.438,0l-15.217-8.856Z" transform="translate(-329.585 -215.604)" fill="#000201"/>
                </g>
                <path id="Trazado_994512" data-name="Trazado 994512" d="M333.35,241.016a.431.431,0,0,1-.217-.8l14.006-8.115a.433.433,0,0,1,.431,0l14.006,8.06a.432.432,0,0,1-.43.748l-13.79-7.936-13.791,7.991A.441.441,0,0,1,333.35,241.016Z" transform="translate(-330.85 -221.84)" fill="#050004"/>
                <g id="Grupo_1159456" data-name="Grupo 1159456" transform="translate(6.586 19.257)">
                  <path id="Trazado_994513" data-name="Trazado 994513" d="M346.477,249.325l-5.559,39.088a2.4,2.4,0,0,0,.159,1.263l7.521,17.943a1.835,1.835,0,0,0,3.462.027l7.8-17.965a2.4,2.4,0,0,0,.172-1.278l-5.4-39.242a2,2,0,0,0-1.966-1.828l-4.366.176A2.014,2.014,0,0,0,346.477,249.325Z" transform="translate(-340.462 -246.899)" fill="#fff"/>
                  <path id="Trazado_994514" data-name="Trazado 994514" d="M350.071,309.025h-.014a2.329,2.329,0,0,1-2.121-1.5l-7.521-17.943a2.822,2.822,0,0,1-.189-1.49L345.786,249h0a2.45,2.45,0,0,1,2.237-2.188l4.366-.177a2.442,2.442,0,0,1,2.41,2.2l5.4,39.243a2.821,2.821,0,0,1-.2,1.509l-7.8,17.965A2.322,2.322,0,0,1,350.071,309.025Zm-3.431-59.9-5.559,39.087a1.957,1.957,0,0,0,.13,1.035l7.521,17.943a1.463,1.463,0,0,0,1.331.974h.009a1.457,1.457,0,0,0,1.329-.953l7.8-17.965a1.957,1.957,0,0,0,.141-1.048l-5.4-39.242a1.576,1.576,0,0,0-1.522-1.456l-4.366.177A1.589,1.589,0,0,0,346.64,249.122Z" transform="translate(-340.198 -246.635)" fill="#050004"/>
                </g>
                <g id="Grupo_1159457" data-name="Grupo 1159457" transform="translate(8.303 10.199)">
                  <path id="Trazado_994515" data-name="Trazado 994515" d="M343.659,237.236l3.793,4.816a5.146,5.146,0,0,0,8.035.062l3.9-4.8-7.959-4.58Z" transform="translate(-343.228 -232.302)" fill="#fff"/>
                  <path id="Trazado_994516" data-name="Trazado 994516" d="M351.232,244.18h-.044a5.553,5.553,0,0,1-4.338-2.126l-3.793-4.816a.431.431,0,0,1,.123-.64l7.771-4.5a.433.433,0,0,1,.431,0l7.959,4.58a.431.431,0,0,1,.119.646l-3.9,4.8A5.551,5.551,0,0,1,351.232,244.18Zm-7.19-7.084,3.485,4.425a4.714,4.714,0,0,0,7.361.057l3.584-4.407-7.3-4.2Z" transform="translate(-342.965 -232.038)" fill="#050004"/>
                </g>
              </g>
            </g>
            <g id="Grupo_1159489" data-name="Grupo 1159489" transform="translate(74.723 19.772)">
              <g id="Grupo_1159488" data-name="Grupo 1159488" transform="translate(0 0)">
                <g id="Grupo_1159465" data-name="Grupo 1159465" transform="translate(35.336 47.313)">
                  <g id="Grupo_1159460" data-name="Grupo 1159460" transform="translate(0 33.877)">
                    <path id="Trazado_994517" data-name="Trazado 994517" d="M223.536,267.538c-8.684,2.069-16.257,1.5-16.916-1.263s5.846-6.686,14.53-8.754,16.257-1.5,16.916,1.263S232.219,265.47,223.536,267.538Z" transform="translate(-206.09 -255.787)" fill="#000201"/>
                    <path id="Trazado_994518" data-name="Trazado 994518" d="M224.512,267.416c-.387.1-.773.2-1.16.292-7.848,1.87-16.646,1.938-17.5-1.618s7.046-7.456,14.886-9.333,16.646-1.937,17.495,1.618C239.042,261.755,231.955,265.453,224.512,267.416Zm-4.736-9.428c-8.3,2.189-13.474,5.826-12.985,7.878.512,2.148,7.348,3.049,16.338.907h0c8.982-2.142,14.686-6.028,14.174-8.177s-7.348-3.049-16.338-.907Q220.36,257.834,219.776,257.987Z" transform="translate(-205.794 -255.488)" fill="#000201"/>
                  </g>
                  <g id="Grupo_1159461" data-name="Grupo 1159461" transform="translate(3.155)">
                    <path id="Trazado_994519" data-name="Trazado 994519" d="M215,237.25c-3.018-4.27-4.507-9.68-2.834-14.775l2.984.71s1.821-8.212,1.593-14.027c.872-2.089,8.91,1.013,8.91,1.013l-1.561-3.089a5.9,5.9,0,0,1-.6-3.368c.112-1.218,1.208-2.428,2.406-2.185,1.179.24,3.88,4.7,4.687,5.728,4.859,6.2,5.825,14.929,5.986,22.555.086,4.064,6.723,45.245,6.242,47.164a13.156,13.156,0,0,1-24.272,3.179h0a30.217,30.217,0,0,1-1.751-6.465c-.462-2.98,1.382-30.33,1.353-31.247a5.575,5.575,0,0,0-1.6-3.322C216.015,238.485,215.447,237.877,215,237.25Z" transform="translate(-211.103 -201.126)" fill="#fff"/>
                    <path id="Trazado_994520" data-name="Trazado 994520" d="M233.379,286.617a14.473,14.473,0,0,1-1.8.352,13.282,13.282,0,0,1-13.589-6.862,30.515,30.515,0,0,1-1.793-6.588c-.346-2.231.566-17.686,1.056-25.988.168-2.837.3-5.079.293-5.3a5.16,5.16,0,0,0-1.512-3.095c-.159-.192-.323-.38-.485-.568-.372-.43-.756-.876-1.075-1.326h0c-3.4-4.815-4.454-10.321-2.883-15.1a.374.374,0,0,1,.44-.246l2.613.622c.346-1.661,1.7-8.557,1.506-13.563a.37.37,0,0,1,.029-.158c.832-2,6.447-.272,8.9.591l-1.136-2.249a6.98,6.98,0,0,1-1.045-3.678,3.045,3.045,0,0,1,1.178-2.1,2.089,2.089,0,0,1,1.672-.411c.961.2,2.4,2.207,4.036,4.619.365.537.68,1,.871,1.244,5.087,6.487,5.913,15.58,6.065,22.776.038,1.805,1.4,11.135,2.843,21.013,2.217,15.176,3.65,25.2,3.388,26.25A13.248,13.248,0,0,1,233.379,286.617Zm-18.3-49.809c.3.422.654.834,1.031,1.27.164.191.331.383.493.577a5.939,5.939,0,0,1,1.684,3.549c.007.249-.09,1.919-.294,5.372-.488,8.275-1.4,23.677-1.064,25.83a29.948,29.948,0,0,0,1.729,6.385,12.786,12.786,0,0,0,23.565-3.133c.244-1-1.777-14.841-3.4-25.962-1.447-9.9-2.812-19.253-2.852-21.1-.149-7.081-.954-16.019-5.906-22.333-.206-.263-.513-.714-.9-1.285-.917-1.35-2.826-4.157-3.567-4.308a1.358,1.358,0,0,0-1.081.28,3.98,3.98,0,0,0-1.381,1.941c-.1,1.149.989,3.7,1.468,4.643l.507,1.2a9.078,9.078,0,0,1,.827,1.815c-.1.114-.229-.506-.374-.56-3.3-1.256-8.014-3.074-8.668-1.974.2,5.791-1.587,13.947-1.605,14.028a.372.372,0,0,1-.449.282l-2.646-.63c-1.346,4.482-.3,9.606,2.886,14.117Z" transform="translate(-210.878 -200.899)" fill="#050004"/>
                  </g>
                  <g id="Grupo_1159463" data-name="Grupo 1159463" transform="translate(0.087 35.916)">
                    <path id="Trazado_994521" data-name="Trazado 994521" d="M209.627,315.374a42.491,42.491,0,0,0,2.457,9.071c8.113,14.659,29.987,11.792,34.055-4.461.573-2.287-6.065-44.35-8.146-60.436l-2.281,1.684a38.241,38.241,0,0,1-28.976,6.958h0C207.82,269.514,208.979,311.192,209.627,315.374Z" transform="translate(-206.238 -259.068)" fill="#5865ff"/>
                    <g id="Grupo_1159462" data-name="Grupo 1159462" opacity="0.24">
                      <path id="Trazado_994522" data-name="Trazado 994522" d="M232.9,333.5a20.119,20.119,0,0,1-2.518.493,18.594,18.594,0,0,1-19.023-9.605,42.818,42.818,0,0,1-2.511-9.23h0c-.264-1.705-.6-9.342-.995-18.186-.517-11.664-1.226-27.639-1.818-28.8a.453.453,0,0,1-.032-.527.486.486,0,0,1,.506-.217,37.959,37.959,0,0,0,28.612-6.871l2.281-1.684a.486.486,0,0,1,.473-.055.478.478,0,0,1,.288.38c.732,5.667,2.02,14.48,3.383,23.81,3.108,21.281,5.119,35.34,4.752,36.8A18.545,18.545,0,0,1,232.9,333.5Zm-25.818-65.012c.517,2.715.974,11.414,1.73,28.441.374,8.449.729,16.428.984,18.081h0a42.088,42.088,0,0,0,2.429,8.969,17.981,17.981,0,0,0,33.142-4.4c.348-1.389-2.49-20.82-4.77-36.432-1.3-8.9-2.532-17.333-3.28-23.018l-1.625,1.2A38.937,38.937,0,0,1,207.084,268.484Zm2.239,46.6.009,0Z" transform="translate(-205.935 -258.774)" fill="#050004"/>
                    </g>
                    <path id="Trazado_994523" data-name="Trazado 994523" d="M232.9,333.5a20.119,20.119,0,0,1-2.518.493,18.594,18.594,0,0,1-19.023-9.605,42.818,42.818,0,0,1-2.511-9.23h0c-.264-1.705-.6-9.342-.995-18.186-.517-11.664-1.226-27.639-1.818-28.8a.453.453,0,0,1-.032-.527.486.486,0,0,1,.506-.217,37.959,37.959,0,0,0,28.612-6.871l2.281-1.684a.486.486,0,0,1,.473-.055.478.478,0,0,1,.288.38c.732,5.667,2.02,14.48,3.383,23.81,3.108,21.281,5.119,35.34,4.752,36.8A18.545,18.545,0,0,1,232.9,333.5Zm-25.818-65.012c.517,2.715.974,11.414,1.73,28.441.374,8.449.729,16.428.984,18.081h0a42.088,42.088,0,0,0,2.429,8.969,17.981,17.981,0,0,0,33.142-4.4c.348-1.389-2.49-20.82-4.77-36.432-1.3-8.9-2.532-17.333-3.28-23.018l-1.625,1.2A38.937,38.937,0,0,1,207.084,268.484Zm2.239,46.6.009,0Z" transform="translate(-205.935 -258.774)" fill="#050004"/>
                  </g>
                  <g id="Grupo_1159464" data-name="Grupo 1159464" transform="translate(0.824 2.57)">
                    <path id="Trazado_994524" data-name="Trazado 994524" d="M225.009,215.241l-8.338,10.925-8.748-13.479.755-6.674,13.452,3.471Z" transform="translate(-207.426 -205.409)" fill="#111"/>
                    <path id="Trazado_994525" data-name="Trazado 994525" d="M216.336,226.63l-9.214-14.195.837-7.394,14.2,3.664,3.11,6.222Zm-8.22-14.429,8.283,12.763,7.744-10.145-2.649-5.295-12.706-3.279Z" transform="translate(-207.122 -205.041)" fill="#000201"/>
                  </g>
                </g>
                <g id="Grupo_1159467" data-name="Grupo 1159467" transform="translate(48.855 45.044)">
                  <g id="Grupo_1159466" data-name="Grupo 1159466">
                    <path id="Trazado_994526" data-name="Trazado 994526" d="M231.047,207.326s-1.142-2.444-1.637-3.467a6.8,6.8,0,0,1-.959-3.447c.1-1.207,1.141-2.406,2.278-2.163,1.119.24,3.686,4.665,4.453,5.687" transform="translate(-227.905 -197.614)" fill="#fff"/>
                    <path id="Trazado_994527" data-name="Trazado 994527" d="M230.516,207.8s-1.268-2.685-1.819-3.807a7.762,7.762,0,0,1-1.1-4,3.316,3.316,0,0,1,1.235-2.273,2.132,2.132,0,0,1,1.744-.443c1,.21,2.518,2.4,4.249,5.025.388.587.721,1.094.923,1.36a.381.381,0,0,1-.061.524.354.354,0,0,1-.508-.063c-.218-.286-.542-.778-.953-1.4-.973-1.476-3-4.547-3.795-4.714a1.434,1.434,0,0,0-1.169.31,2.577,2.577,0,0,0-.946,1.743,7.171,7.171,0,0,0,1.028,3.589c.552,1.125,1.823,3.817,1.823,3.817Z" transform="translate(-227.578 -197.244)" fill="#050004"/>
                  </g>
                  <path id="Trazado_994528" data-name="Trazado 994528" d="M235.213,220.235a.3.3,0,0,1-.047.009.364.364,0,0,1-.4-.323c-.284-2.289-2.741-6.665-2.766-6.709a.38.38,0,0,1,.131-.51.358.358,0,0,1,.5.135c.1.184,2.556,4.551,2.858,6.989A.374.374,0,0,1,235.213,220.235Z" transform="translate(-229.236 -203.09)" fill="#000201"/>
                </g>
                <g id="Grupo_1159482" data-name="Grupo 1159482" transform="translate(0)">
                  <g id="Grupo_1159481" data-name="Grupo 1159481" transform="translate(0)">
                    <g id="Grupo_1159480" data-name="Grupo 1159480">
                      <g id="Grupo_1159468" data-name="Grupo 1159468" transform="translate(55.02 30.137)">
                        <path id="Trazado_994529" data-name="Trazado 994529" d="M237.972,182.971l4.464.81a4.151,4.151,0,0,0,4.713-3.489l.159-.876a4.15,4.15,0,0,0-3.185-4.924l-4.464-.81Z" transform="translate(-237.687 -173.397)" fill="#000201"/>
                        <path id="Trazado_994530" data-name="Trazado 994530" d="M242.211,183.888l-4.464-.81a.285.285,0,0,1-.229-.331l1.687-9.289a.284.284,0,0,1,.118-.183.289.289,0,0,1,.214-.046l4.464.81a4.15,4.15,0,0,1,2.757,1.865,4.679,4.679,0,0,1,.657,3.391l-.16.876a4.676,4.676,0,0,1-1.807,2.943,4.281,4.281,0,0,1-1.548.73A4.1,4.1,0,0,1,242.211,183.888Zm-4.082-1.321,4.184.76a3.585,3.585,0,0,0,2.8-.673,4.11,4.11,0,0,0,1.586-2.587l.159-.876a4.112,4.112,0,0,0-.575-2.979A3.583,3.583,0,0,0,243.9,174.6l-4.184-.76Z" transform="translate(-237.513 -173.223)" fill="#000201"/>
                      </g>
                      <g id="Grupo_1159469" data-name="Grupo 1159469" transform="translate(38.376 42.665)">
                        <path id="Trazado_994531" data-name="Trazado 994531" d="M214.243,226.908h0c2.107.383,4.178-1.3,4.625-3.764l4.371-24.07c.447-2.462-.9-4.767-3.006-5.15h0c-2.107-.383-4.178,1.3-4.625,3.764l-4.371,24.07C210.789,224.219,212.135,226.525,214.243,226.908Z" transform="translate(-210.866 -193.584)" fill="#000201"/>
                        <path id="Trazado_994532" data-name="Trazado 994532" d="M214.017,227.014h0c-2.258-.41-3.709-2.87-3.235-5.482l4.371-24.07c.475-2.613,2.7-4.4,4.956-3.994a3.877,3.877,0,0,1,2.656,1.932,5.192,5.192,0,0,1,.579,3.549l-4.371,24.07a5.194,5.194,0,0,1-1.79,3.118,4.141,4.141,0,0,1-1.644.831A3.668,3.668,0,0,1,214.017,227.014Zm1.7-29.45-4.371,24.07c-.418,2.3.828,4.464,2.776,4.819a3.309,3.309,0,0,0,2.7-.756,4.625,4.625,0,0,0,1.589-2.779l4.371-24.07a4.628,4.628,0,0,0-.511-3.16,3.315,3.315,0,0,0-2.266-1.659,3.084,3.084,0,0,0-1.282.038A4.286,4.286,0,0,0,215.713,197.564Zm-1.65,29.171h0Z" transform="translate(-210.692 -193.41)" fill="#000201"/>
                      </g>
                      <g id="Grupo_1159470" data-name="Grupo 1159470" transform="translate(39.587 37.684)">
                        <path id="Trazado_994533" data-name="Trazado 994533" d="M215.688,193.906l8.164,1.483a3.147,3.147,0,0,0,3.658-2.534l.331-1.82a3.147,3.147,0,0,0-2.534-3.658l-8.164-1.483a3.147,3.147,0,0,0-3.658,2.534l-.331,1.82A3.147,3.147,0,0,0,215.688,193.906Z" transform="translate(-212.818 -185.558)" fill="#fff9f3"/>
                        <path id="Trazado_994534" data-name="Trazado 994534" d="M223.627,195.494l-8.164-1.483a3.43,3.43,0,0,1-2.763-3.99l.33-1.82a3.435,3.435,0,0,1,3.989-2.763l8.165,1.483a3.436,3.436,0,0,1,2.763,3.99l-.331,1.82a3.424,3.424,0,0,1-3.989,2.763ZM213.59,188.3l-.33,1.82a2.865,2.865,0,0,0,2.3,3.327h0l8.164,1.483a2.862,2.862,0,0,0,3.327-2.3l.331-1.82a2.866,2.866,0,0,0-2.3-3.327L216.916,186a2.863,2.863,0,0,0-3.327,2.3Z" transform="translate(-212.643 -185.384)" fill="#000201"/>
                      </g>
                      <g id="Grupo_1159471" data-name="Grupo 1159471" transform="translate(42.307 22.333)">
                        <path id="Trazado_994535" data-name="Trazado 994535" d="M217.486,180.63l9.382,1.7A8.725,8.725,0,0,0,236.774,175l.334-1.841a8.724,8.724,0,0,0-6.694-10.349l-9.382-1.7Z" transform="translate(-217.201 -160.82)" fill="#f381d8"/>
                        <path id="Trazado_994536" data-name="Trazado 994536" d="M226.643,182.44l-9.382-1.7a.284.284,0,0,1-.229-.331l3.545-19.525a.284.284,0,0,1,.118-.183.289.289,0,0,1,.213-.047l9.382,1.7a8.411,8.411,0,0,1,5.587,3.781,9.517,9.517,0,0,1,1.337,6.9l-.334,1.841a9.305,9.305,0,0,1-6.828,7.466A8.258,8.258,0,0,1,226.643,182.44Zm-9-2.214,9.1,1.653a8.449,8.449,0,0,0,9.575-7.106l.334-1.841a8.948,8.948,0,0,0-1.255-6.488,7.847,7.847,0,0,0-5.21-3.53l-9.1-1.653Z" transform="translate(-217.027 -160.646)" fill="#050004"/>
                      </g>
                      <g id="Grupo_1159472" data-name="Grupo 1159472" transform="translate(10.762 2.385)">
                        <path id="Trazado_994537" data-name="Trazado 994537" d="M201.745,148.907h0L198.2,168.432h0a32.359,32.359,0,0,0-21.028,3.431l-10.517,5.382,8.8-48.287,7.81,9.343A32.354,32.354,0,0,0,201.745,148.907Z" transform="translate(-166.369 -128.675)" fill="#f8eee2"/>
                        <path id="Trazado_994538" data-name="Trazado 994538" d="M166.31,177.3a.286.286,0,0,1-.11-.28l8.8-48.287a.285.285,0,0,1,.207-.225.3.3,0,0,1,.292.093l7.8,9.337a31.92,31.92,0,0,0,18.316,10.513.284.284,0,0,1,.229.331L198.3,168.31a.284.284,0,0,1-.118.183.28.28,0,0,1-.214.046,31.924,31.924,0,0,0-20.847,3.4l-10.517,5.382a.3.3,0,0,1-.063.024A.276.276,0,0,1,166.31,177.3ZM197.8,167.93l3.444-18.967a32.517,32.517,0,0,1-18.367-10.651l-7.42-8.877-8.589,47.121,10-5.117a34.29,34.29,0,0,1,8.059-3.075A31.737,31.737,0,0,1,197.8,167.93Z" transform="translate(-166.195 -128.503)" fill="#000201"/>
                      </g>
                      <g id="Grupo_1159473" data-name="Grupo 1159473" transform="translate(10.762 2.385)">
                        <path id="Trazado_994539" data-name="Trazado 994539" d="M201.745,148.907h0L198.2,168.432h0a32.359,32.359,0,0,0-21.028,3.431l-10.517,5.382,8.8-48.287,7.81,9.343A32.354,32.354,0,0,0,201.745,148.907Z" transform="translate(-166.369 -128.675)" fill="#f38200"/>
                        <path id="Trazado_994540" data-name="Trazado 994540" d="M166.31,177.3a.286.286,0,0,1-.11-.28l8.8-48.287a.285.285,0,0,1,.207-.225.3.3,0,0,1,.292.093l7.8,9.337a31.92,31.92,0,0,0,18.316,10.513.284.284,0,0,1,.229.331L198.3,168.31a.284.284,0,0,1-.118.183.28.28,0,0,1-.214.046,31.924,31.924,0,0,0-20.847,3.4l-10.517,5.382a.3.3,0,0,1-.063.024A.276.276,0,0,1,166.31,177.3ZM197.8,167.93l3.444-18.967a32.517,32.517,0,0,1-18.367-10.651l-7.42-8.877-8.589,47.121,10-5.117a34.29,34.29,0,0,1,8.059-3.075A31.737,31.737,0,0,1,197.8,167.93Z" transform="translate(-166.195 -128.503)" fill="#050004"/>
                      </g>
                      <g id="Grupo_1159474" data-name="Grupo 1159474">
                        <ellipse id="Elipse_11747" data-name="Elipse 11747" cx="25.259" cy="8.877" rx="25.259" ry="8.877" transform="translate(0 49.633) rotate(-79.263)" fill="#fff"/>
                        <path id="Trazado_994541" data-name="Trazado 994541" d="M159.535,177.033a4.424,4.424,0,0,1-2.82-2.034c-2.878-4.17-3.471-14.088-1.478-24.681,2.649-14.074,8.684-24.394,13.741-23.491a4.425,4.425,0,0,1,2.82,2.034c2.878,4.17,3.471,14.088,1.478,24.681-2.385,12.676-7.519,22.305-12.209,23.435A3.7,3.7,0,0,1,159.535,177.033ZM155.8,150.424h0c-1.968,10.453-1.41,20.2,1.387,24.251a3.885,3.885,0,0,0,2.451,1.8,3.212,3.212,0,0,0,1.324-.05c4.4-1.061,9.446-10.706,11.758-22.985,1.968-10.453,1.41-20.2-1.387-24.251a3.885,3.885,0,0,0-2.451-1.8,3.215,3.215,0,0,0-1.325.05C163.153,128.5,158.107,138.144,155.8,150.424Z" transform="translate(-150.831 -125.461)" fill="#000201"/>
                      </g>
                      <g id="Grupo_1159478" data-name="Grupo 1159478" transform="translate(6.727 6.664)">
                        <path id="Trazado_994542" data-name="Trazado 994542" d="M160.695,153.85c-2,10.775-.908,20,2.445,20.6s7.694-7.646,9.7-18.421.908-20-2.445-20.6S162.7,143.076,160.695,153.85Z" transform="translate(-159.693 -135.398)" fill="#000201"/>
                        <g id="Grupo_1159475" data-name="Grupo 1159475" clip-path="url(#clip-path-3)">
                          <path id="XMLID_00000062883066289979344360000004892687712441410451_" d="M170.5,156.313c-1.949,10.49-.884,19.469,2.381,20.054s7.49-7.444,9.44-17.934.884-19.469-2.38-20.054S172.454,145.822,170.5,156.313Z" transform="translate(-163.426 -136.518)" fill="#000201"/>
                        </g>
                        <g id="Grupo_1159476" data-name="Grupo 1159476" clip-path="url(#clip-path-3)">
                          <path id="Trazado_994544" data-name="Trazado 994544" d="M181.817,161.89l-6.344-1.116c-2.591-.456-5.164,1.725-5.748,4.871h0c-.583,3.146,1.044,6.066,3.636,6.522l6.344,1.116Z" transform="translate(-163.455 -145.003)" fill="#7c55ff"/>
                          <path id="Trazado_994545" data-name="Trazado 994545" d="M179.482,173.39l-6.344-1.116a4.529,4.529,0,0,1-2.923-1.937,6.563,6.563,0,0,1-.945-4.918c.611-3.295,3.339-5.583,6.077-5.1l6.344,1.116a.285.285,0,0,1,.231.332l-2.112,11.393a.285.285,0,0,1-.213.225A.281.281,0,0,1,179.482,173.39Zm-4.232-12.51c-2.436-.429-4.864,1.654-5.418,4.643a5.99,5.99,0,0,0,.851,4.489,3.965,3.965,0,0,0,2.554,1.7l6.066,1.068,2.008-10.833Z" transform="translate(-163.281 -144.829)" fill="#050004"/>
                        </g>
                        <g id="Grupo_1159477" data-name="Grupo 1159477" clip-path="url(#clip-path-3)">
                          <path id="Trazado_994547" data-name="Trazado 994547" d="M171.229,168.41h0a3.705,3.705,0,0,0-.8-3,4.46,4.46,0,0,0-.959,2.3h0a4.939,4.939,0,0,0,.5,3.012A3.259,3.259,0,0,0,171.229,168.41Z" transform="translate(-163.385 -146.785)" fill="#fff"/>
                          <path id="Trazado_994548" data-name="Trazado 994548" d="M169.728,170.819a.284.284,0,0,1-.181-.138,5.234,5.234,0,0,1-.531-3.189,4.765,4.765,0,0,1,1.025-2.444.279.279,0,0,1,.208-.1.283.283,0,0,1,.213.087,3.969,3.969,0,0,1,.875,3.238h0a3.552,3.552,0,0,1-1.385,2.507.3.3,0,0,1-.09.039A.272.272,0,0,1,169.728,170.819Zm1.046-2.622a3.655,3.655,0,0,0-.508-2.505,4.395,4.395,0,0,0-.685,1.877,4.814,4.814,0,0,0,.314,2.533,3.229,3.229,0,0,0,.879-1.9Z" transform="translate(-163.21 -146.61)" fill="#050004"/>
                        </g>
                      </g>
                      <g id="Grupo_1159479" data-name="Grupo 1159479" transform="translate(40.338 21.897)">
                        <path id="Trazado_994550" data-name="Trazado 994550" d="M217.762,160.4l-3.448,19.659,1.954.24,3.56-19.463Z" transform="translate(-214.029 -160.117)" fill="#fff9f3"/>
                        <path id="Trazado_994551" data-name="Trazado 994551" d="M216.058,180.41l-1.954-.24a.286.286,0,0,1-.246-.332l3.449-19.659a.283.283,0,0,1,.122-.187.287.287,0,0,1,.218-.043l2.065.436a.285.285,0,0,1,.222.33l-3.56,19.463a.285.285,0,0,1-.213.226A.293.293,0,0,1,216.058,180.41Zm1.759-19.842-3.346,19.073,1.39.171,3.461-18.926Z" transform="translate(-213.854 -159.944)" fill="#000201"/>
                      </g>
                    </g>
                  </g>
                </g>
                <g id="Grupo_1159487" data-name="Grupo 1159487" transform="translate(33.167 48.434)">
                  <g id="Grupo_1159483" data-name="Grupo 1159483" transform="translate(0.505 5.34)">
                    <path id="Trazado_994552" data-name="Trazado 994552" d="M203.8,214.048l-.02.09a2.477,2.477,0,0,0,2.124,2.969l8.464,1.364a2.9,2.9,0,0,0,3.285-2.1l.02-.089a2.476,2.476,0,0,0-2.124-2.97l-8.465-1.364A2.9,2.9,0,0,0,203.8,214.048Z" transform="translate(-203.341 -211.539)" fill="#fff"/>
                    <path id="Trazado_994553" data-name="Trazado 994553" d="M215.454,218.543a3.324,3.324,0,0,1-1.378.069l-8.465-1.364a3.022,3.022,0,0,1-2.027-1.268,2.728,2.728,0,0,1-.4-2.153l.021-.091a3.274,3.274,0,0,1,3.707-2.384l8.465,1.364a3.017,3.017,0,0,1,2.028,1.268,2.726,2.726,0,0,1,.4,2.155l-.02.089A3.2,3.2,0,0,1,215.454,218.543Zm-9.74-6.4a2.433,2.433,0,0,0-1.782,1.76h0l-.02.09a1.987,1.987,0,0,0,.292,1.568,2.237,2.237,0,0,0,1.527.948l8.465,1.364a2.517,2.517,0,0,0,2.861-1.814l.02-.089a1.99,1.99,0,0,0-.292-1.57,2.236,2.236,0,0,0-1.528-.948l-8.465-1.364A2.609,2.609,0,0,0,205.714,212.144Zm-2.146,1.676.007,0Z" transform="translate(-203.112 -211.311)" fill="#050004"/>
                  </g>
                  <g id="Grupo_1159484" data-name="Grupo 1159484" transform="translate(1.592)">
                    <path id="Trazado_994554" data-name="Trazado 994554" d="M205.548,205.444l-.02.089a2.475,2.475,0,0,0,2.123,2.97l8.463,1.364a2.9,2.9,0,0,0,3.287-2.1l.02-.089a2.475,2.475,0,0,0-2.122-2.97l-8.465-1.364A2.9,2.9,0,0,0,205.548,205.444Z" transform="translate(-205.093 -202.935)" fill="#fff"/>
                    <path id="Trazado_994555" data-name="Trazado 994555" d="M217.2,209.938a3.327,3.327,0,0,1-1.379.07l-8.463-1.363a3.02,3.02,0,0,1-2.028-1.268,2.724,2.724,0,0,1-.4-2.154l.02-.088h0a3.276,3.276,0,0,1,3.709-2.384l8.465,1.365a3.013,3.013,0,0,1,2.027,1.268,2.722,2.722,0,0,1,.4,2.154l-.02.088A3.2,3.2,0,0,1,217.2,209.938Zm-11.52-4.639-.02.089a1.989,1.989,0,0,0,.29,1.57,2.239,2.239,0,0,0,1.527.948l8.463,1.363a2.518,2.518,0,0,0,2.863-1.813l.02-.088a1.984,1.984,0,0,0-.29-1.57,2.237,2.237,0,0,0-1.527-.948l-8.465-1.365A2.517,2.517,0,0,0,205.685,205.3Z" transform="translate(-204.865 -202.707)" fill="#050004"/>
                  </g>
                  <g id="Grupo_1159485" data-name="Grupo 1159485" transform="translate(1.04 10.634)">
                    <path id="Trazado_994556" data-name="Trazado 994556" d="M204.641,222.552l-.006.024a2.445,2.445,0,0,0,2.1,2.933l5.774.93a2.865,2.865,0,0,0,3.244-2.073l.006-.024a2.445,2.445,0,0,0-2.1-2.933l-5.773-.93A2.866,2.866,0,0,0,204.641,222.552Z" transform="translate(-204.202 -220.07)" fill="#fff"/>
                    <path id="Trazado_994557" data-name="Trazado 994557" d="M213.579,226.513a3.286,3.286,0,0,1-1.36.068l-5.774-.93a2.987,2.987,0,0,1-2.006-1.254,2.7,2.7,0,0,1-.4-2.132l.006-.024a3.24,3.24,0,0,1,3.668-2.358l5.773.93a2.986,2.986,0,0,1,2.006,1.254,2.7,2.7,0,0,1,.4,2.131A3.18,3.18,0,0,1,213.579,226.513Zm-7.044-5.839a2.4,2.4,0,0,0-1.757,1.735v0l-.006.024a1.955,1.955,0,0,0,.287,1.544,2.208,2.208,0,0,0,1.505.934l5.774.93a2.48,2.48,0,0,0,2.82-1.787,1.972,1.972,0,0,0-.282-1.571,2.208,2.208,0,0,0-1.506-.934l-5.773-.93A2.563,2.563,0,0,0,206.535,220.674Z" transform="translate(-203.974 -219.842)" fill="#050004"/>
                  </g>
                  <g id="Grupo_1159486" data-name="Grupo 1159486" transform="translate(0 15.67)">
                    <path id="Trazado_994558" data-name="Trazado 994558" d="M202.982,230.695l-.02.089a2.476,2.476,0,0,0,2.124,2.97l2.857.46a2.9,2.9,0,0,0,3.287-2.1l.02-.089a2.475,2.475,0,0,0-2.122-2.97l-2.86-.461A2.9,2.9,0,0,0,202.982,230.695Z" transform="translate(-202.527 -228.186)" fill="#fff"/>
                    <path id="Trazado_994559" data-name="Trazado 994559" d="M209.033,234.286a3.327,3.327,0,0,1-1.379.07l-2.857-.46a3.017,3.017,0,0,1-2.027-1.268,2.726,2.726,0,0,1-.4-2.155l.02-.089A3.277,3.277,0,0,1,206.1,228l2.86.46a3.02,3.02,0,0,1,2.028,1.268,2.724,2.724,0,0,1,.4,2.154l-.02.089A3.2,3.2,0,0,1,209.033,234.286Zm-4.132-5.5a2.436,2.436,0,0,0-1.783,1.759h0l-.02.089a1.99,1.99,0,0,0,.292,1.57,2.237,2.237,0,0,0,1.527.948l2.857.46a2.52,2.52,0,0,0,2.863-1.813l.02-.089a1.985,1.985,0,0,0-.29-1.569,2.238,2.238,0,0,0-1.528-.948l-2.86-.46A2.587,2.587,0,0,0,204.9,228.791Zm-2.147,1.676.007,0Z" transform="translate(-202.299 -227.958)" fill="#050004"/>
                  </g>
                </g>
              </g>
            </g>
            <g id="Grupo_1159490" data-name="Grupo 1159490" transform="translate(33.322 66.11)">
              <path id="Trazado_994560" data-name="Trazado 994560" d="M82.968,222.046l14.246-17.794,1.317,6.031,14.007-10.129-16,19.8L94.8,214.417Z" transform="translate(-82.453 -199.642)" fill="#ffd387"/>
              <path id="Trazado_994561" data-name="Trazado 994561" d="M96.122,220.153a.518.518,0,0,1-.4-.353L94.2,214.9l-11.264,7.262a.516.516,0,0,1-.682-.756L96.5,203.617a.516.516,0,0,1,.906.212l1.151,5.262,13.367-9.668a.523.523,0,0,1,.678.063.515.515,0,0,1,.026.679l-16,19.8a.518.518,0,0,1-.5.182Zm2.4-9.765a.531.531,0,0,1-.487.064.519.519,0,0,1-.32-.372l-1.088-4.975-11.59,14.478,9.173-5.914a.535.535,0,0,1,.456-.051.517.517,0,0,1,.317.331l1.443,4.622,12.965-16.044Z" transform="translate(-82.139 -199.328)" fill="#050004"/>
            </g>
            <g id="Grupo_1159491" data-name="Grupo 1159491" transform="translate(38.824)">
              <path id="Trazado_994562" data-name="Trazado 994562" d="M91.836,93.628l19.853,8.167-5.1,2.787,12.862,9.98-22.136-9.225,4.551-3.031Z" transform="translate(-91.32 -93.113)" fill="#ffd387"/>
              <path id="Trazado_994563" data-name="Trazado 994563" d="M118.934,114.724,96.8,105.5a.516.516,0,0,1-.087-.906l3.987-2.655L91.182,93.7a.516.516,0,0,1,.534-.868L111.569,101a.516.516,0,0,1,.052.93l-4.412,2.41,12.24,9.5a.516.516,0,0,1,.129.667.516.516,0,0,1-.644.216ZM94.252,94.995l7.634,6.605a.516.516,0,0,1-.052.82l-3.749,2.5,17.674,7.365-9.8-7.608a.516.516,0,0,1,.07-.859l4.154-2.269Z" transform="translate(-91.004 -92.798)" fill="#050004"/>
            </g>
            <g id="Grupo_1159492" data-name="Grupo 1159492" transform="translate(0 31.791)">
              <path id="Trazado_994564" data-name="Trazado 994564" d="M29.275,150.379l36.485-5.518-5.057,8.62,27.783,3.337L47.7,162.795l4.028-8.493Z" transform="translate(-28.759 -144.343)" fill="#ffd387"/>
              <path id="Trazado_994565" data-name="Trazado 994565" d="M88.245,157.012,47.459,162.99a.516.516,0,0,1-.541-.732l3.738-7.881L28.871,150.57a.516.516,0,0,1,.011-1.019l36.485-5.518a.516.516,0,0,1,.523.771l-4.659,7.941,27,3.243a.516.516,0,0,1,.178.969A.464.464,0,0,1,88.245,157.012ZM32.166,150.1,51.5,153.477a.516.516,0,0,1,.378.729l-3.615,7.623,36-5.277-23.941-2.875a.516.516,0,0,1-.384-.774l4.509-7.687Z" transform="translate(-28.443 -144.027)" fill="#050004"/>
            </g>
          </g>
        </g>
        <g id="Grupo_1159503" data-name="Grupo 1159503" transform="translate(295.391 154.48)">
          <g id="Grupo_1159499" data-name="Grupo 1159499" transform="translate(0 19.749)">
            <g id="Grupo_1159495" data-name="Grupo 1159495">
              <path id="Trazado_994566" data-name="Trazado 994566" d="M517.681,324.177c-6.462,6.969-6.248,17.676.479,23.914h0c6.727,6.238,17.419,5.645,23.882-1.324l18.783-20.256,12.049,11.173-19.2,20.7c-12.855,13.863-34.124,15.043-47.505,2.635h0c-13.382-12.408-13.809-33.705-.954-47.569l19.2-20.7,12.049,11.173Z" transform="translate(-495.48 -292.361)" fill="#050004"/>
              <path id="Trazado_994567" data-name="Trazado 994567" d="M504.684,312.923l19.2-20.7a.388.388,0,0,1,.548-.021l12.049,11.173a.388.388,0,0,1,.021.548l-18.782,20.256a17.029,17.029,0,0,0-4.6,11.959,15.82,15.82,0,0,0,16.817,15.594,17.029,17.029,0,0,0,11.579-5.491l18.782-20.256a.388.388,0,0,1,.548-.021l12.049,11.173a.388.388,0,0,1,.021.548l-19.195,20.7c-12.981,14-34.537,15.188-48.054,2.655a33.121,33.121,0,0,1-9.975-29.8A35.289,35.289,0,0,1,504.684,312.923ZM560.6,326.8l-18.519,19.972a17.8,17.8,0,0,1-12.1,5.738,16.593,16.593,0,0,1-17.635-16.352,17.793,17.793,0,0,1,4.809-12.5l18.519-19.971-11.48-10.645-18.931,20.416c-12.689,13.683-12.271,34.777.933,47.02s34.269,11.071,46.957-2.613l18.931-20.416Z" transform="translate(-495.229 -292.099)" fill="#050004"/>
            </g>
            <g id="Grupo_1159496" data-name="Grupo 1159496" transform="translate(2.364 0.661)">
              <path id="Trazado_994568" data-name="Trazado 994568" d="M521.645,325.286c-6.462,6.969-6.248,17.676.479,23.914h0c6.727,6.238,17.419,5.645,23.882-1.324l18.783-20.256,12.049,11.173-19.2,20.7c-12.855,13.863-34.124,15.043-47.505,2.635h0c-13.382-12.408-13.809-33.706-.954-47.569l19.2-20.7,12.049,11.173Z" transform="translate(-499.443 -293.47)" fill="#8b78e1"/>
              <path id="Trazado_994569" data-name="Trazado 994569" d="M508.647,314.032l19.2-20.7a.388.388,0,0,1,.548-.021l12.049,11.172a.39.39,0,0,1,.124.27.386.386,0,0,1-.1.279l-18.782,20.256h0a17.032,17.032,0,0,0-4.6,11.959,15.82,15.82,0,0,0,16.817,15.594,17.028,17.028,0,0,0,11.579-5.491l18.783-20.256a.388.388,0,0,1,.548-.021l12.049,11.173a.39.39,0,0,1,.021.548l-19.194,20.7c-12.981,14-34.537,15.189-48.054,2.655a33.121,33.121,0,0,1-9.975-29.8A35.292,35.292,0,0,1,508.647,314.032ZM564.558,327.9,546.04,347.876a17.8,17.8,0,0,1-12.1,5.738A16.593,16.593,0,0,1,516.3,337.262a17.792,17.792,0,0,1,4.809-12.5l18.519-19.972-11.48-10.645-18.931,20.416c-12.689,13.683-12.271,34.778.933,47.021s34.268,11.07,46.957-2.613l18.931-20.416Z" transform="translate(-499.192 -293.207)" fill="#050004"/>
            </g>
            <g id="Grupo_1159497" data-name="Grupo 1159497" transform="translate(58.263 34.436)">
              <path id="Trazado_994570" data-name="Trazado 994570" d="M593.557,360.265l12.036,11.159,9.072-9.784L602.63,350.48Z" transform="translate(-593.17 -350.093)" fill="url(#linear-gradient)"/>
              <path id="Trazado_994571" data-name="Trazado 994571" d="M593.011,359.738l9.072-9.783a.388.388,0,0,1,.548-.021l12.036,11.16a.39.39,0,0,1,.021.548l-9.072,9.783a.388.388,0,0,1-.548.021l-12.036-11.159a.388.388,0,0,1-.021-.549Zm20.843,1.661-11.466-10.632-8.545,9.214,11.467,10.632Z" transform="translate(-592.908 -349.831)" fill="#050004"/>
            </g>
            <g id="Grupo_1159498" data-name="Grupo 1159498" transform="translate(21.838 0.661)">
              <path id="Trazado_994572" data-name="Trazado 994572" d="M532.492,303.641l12.036,11.16,9.072-9.784-12.036-11.16Z" transform="translate(-532.104 -293.469)" fill="url(#linear-gradient-2)"/>
              <path id="Trazado_994573" data-name="Trazado 994573" d="M531.945,303.116l9.072-9.785a.388.388,0,0,1,.548-.021L553.6,304.47a.388.388,0,0,1,.021.548L544.55,314.8a.388.388,0,0,1-.548.021l-12.036-11.16a.391.391,0,0,1-.124-.27.37.37,0,0,1,0-.078A.388.388,0,0,1,531.945,303.116Zm20.844,1.66-11.466-10.632-8.545,9.215,11.466,10.632Z" transform="translate(-531.841 -293.207)" fill="#050004"/>
            </g>
          </g>
          <g id="Grupo_1159500" data-name="Grupo 1159500" transform="translate(42.525 0)">
            <path id="Trazado_994574" data-name="Trazado 994574" d="M572.05,259.639l4.25,16.6-4.218-1.934-.246,12.991-4.663-18.563,4.111,1.465Z" transform="translate(-566.785 -259.252)" fill="#ffd387"/>
            <path id="Trazado_994575" data-name="Trazado 994575" d="M566.65,268.18a.39.39,0,0,1,.391-.078l3.631,1.294.729-10.047a.388.388,0,0,1,.762-.068l4.249,16.6a.388.388,0,0,1-.537.449l-3.68-1.687-.234,12.4a.393.393,0,0,1-.344.378.388.388,0,0,1-.42-.291l-4.663-18.562a.388.388,0,0,1,.116-.382Zm4.781,5.852a.4.4,0,0,1,.181-.321.391.391,0,0,1,.367-.024l3.48,1.595L572,261.778l-.594,8.182a.4.4,0,0,1-.175.3.388.388,0,0,1-.342.041l-3.427-1.221,3.777,15.037Z" transform="translate(-566.523 -258.989)" fill="#050004"/>
          </g>
          <g id="Grupo_1159501" data-name="Grupo 1159501" transform="translate(72.717 41.069)">
            <path id="Trazado_994576" data-name="Trazado 994576" d="M642.842,330.5l-13.877,8.233.632-4.324-11.806,3.214,15.544-9.126-.237,4.1Z" transform="translate(-617.403 -328.105)" fill="#ffd387"/>
            <path id="Trazado_994577" data-name="Trazado 994577" d="M617.331,337.023l15.545-9.127a.388.388,0,0,1,.583.357l-.207,3.595,9.245-1.994a.388.388,0,0,1,.28.713L628.9,338.8a.387.387,0,0,1-.582-.389l.546-3.739-11.236,3.06a.388.388,0,0,1-.459-.224.388.388,0,0,1,.162-.485Zm23-5.909-7.417,1.6a.388.388,0,0,1-.469-.4l.194-3.38-12.411,7.287,9-2.451a.388.388,0,0,1,.485.43l-.514,3.52Z" transform="translate(-617.14 -327.843)" fill="#050004"/>
          </g>
          <g id="Grupo_1159502" data-name="Grupo 1159502" transform="translate(62.277 2.893)">
            <path id="Trazado_994578" data-name="Trazado 994578" d="M630.915,264.49,617.742,288.9l-2.892-6.933L600.29,297.143l14.841-27.2,3.281,6.257Z" transform="translate(-599.901 -264.102)" fill="#ffd387"/>
            <path id="Trazado_994579" data-name="Trazado 994579" d="M599.687,296.694l14.841-27.2a.388.388,0,0,1,.684.006l3.044,5.806,12.131-11.364a.388.388,0,0,1,.607.467l-13.174,24.407a.388.388,0,0,1-.7-.035l-2.664-6.386-14.15,14.751a.388.388,0,0,1-.663-.331A.383.383,0,0,1,599.687,296.694Zm29.494-30.557-10.767,10.086a.388.388,0,0,1-.609-.1L614.86,270.5l-13.1,24.008,12.546-13.079a.389.389,0,0,1,.639.119l2.579,6.182Z" transform="translate(-599.638 -263.839)" fill="#050004"/>
          </g>
        </g>
        <g id="Grupo_1159507" data-name="Grupo 1159507" transform="translate(36.401 24.584)">
          <g id="Grupo_1159504" data-name="Grupo 1159504" transform="translate(0 163.478)">
            <path id="Trazado_994580" data-name="Trazado 994580" d="M61.027,334.113v11.173a.821.821,0,0,0,.818.818h3.989a22.093,22.093,0,0,0,2.236,6.441h0l-4.11,4.967a.82.82,0,0,0,.109,1.152l8.608,7.124a.82.82,0,0,0,1.152-.108l3.3-3.989h0a22.079,22.079,0,0,0,4.6,1.868h0v5.725a.821.821,0,0,0,.818.818H93.72a.82.82,0,0,0,.818-.818v-5.952a22.1,22.1,0,0,0,4.239-1.861l3.483,4.209a.821.821,0,0,0,1.152.108l8.608-7.124a.82.82,0,0,0,.109-1.152l-4.465-5.395h0a22.093,22.093,0,0,0,2.014-6.012h5.945a.82.82,0,0,0,.818-.818V334.113a.821.821,0,0,0-.818-.818H108.23q-.413-.96-.913-1.872h0l3.886-4.7a.82.82,0,0,0-.109-1.152l-8.608-7.124a.821.821,0,0,0-1.152.109l-3.173,3.834a22.082,22.082,0,0,0-3.622-1.522v-4.764a.821.821,0,0,0-.818-.818H82.547a.821.821,0,0,0-.818.818v4.539h0a21.92,21.92,0,0,0-3.651,1.381l-2.869-3.467a.82.82,0,0,0-1.152-.109l-8.608,7.122a.82.82,0,0,0-.109,1.152l3.276,3.959a22.122,22.122,0,0,0-1.334,2.608H61.844A.821.821,0,0,0,61.027,334.113ZM74.012,342.1a13.744,13.744,0,1,1,13.745,13.743A13.745,13.745,0,0,1,74.012,342.1Z" transform="translate(-61.027 -315.29)" fill="none" stroke="#121924" stroke-linecap="round" stroke-linejoin="round" stroke-miterlimit="10" stroke-width="1"/>
          </g>
          <g id="Grupo_1159505" data-name="Grupo 1159505" transform="translate(327.139 69.216)">
            <path id="Trazado_994581" data-name="Trazado 994581" d="M609.482,166.465v5.466a.4.4,0,0,0,.4.4h1.951a10.8,10.8,0,0,0,1.094,3.151h0l-2.011,2.43a.4.4,0,0,0,.053.564l4.211,3.485a.4.4,0,0,0,.564-.053l1.615-1.952h0a10.834,10.834,0,0,0,2.25.914h0v2.8a.4.4,0,0,0,.4.4h5.466a.4.4,0,0,0,.4-.4v-2.911a10.8,10.8,0,0,0,2.073-.91l1.7,2.059a.4.4,0,0,0,.564.053l4.211-3.485a.4.4,0,0,0,.053-.564l-2.184-2.639h0a10.807,10.807,0,0,0,.985-2.941h2.908a.4.4,0,0,0,.4-.4v-5.466a.4.4,0,0,0-.4-.4h-3.618q-.2-.47-.447-.916h0l1.9-2.3a.4.4,0,0,0-.053-.564l-4.211-3.485a.4.4,0,0,0-.564.053l-1.552,1.875a10.8,10.8,0,0,0-1.772-.744v-2.33a.4.4,0,0,0-.4-.4h-5.466a.4.4,0,0,0-.4.4v2.22h0a10.756,10.756,0,0,0-1.786.675l-1.4-1.7a.4.4,0,0,0-.564-.053l-4.211,3.485a.4.4,0,0,0-.053.564l1.6,1.937a10.836,10.836,0,0,0-.653,1.276h-2.66A.4.4,0,0,0,609.482,166.465Zm6.352,3.908a6.723,6.723,0,1,1,6.723,6.723A6.724,6.724,0,0,1,615.834,170.373Z" transform="translate(-609.482 -157.258)" fill="none" stroke="#121924" stroke-linecap="round" stroke-linejoin="round" stroke-miterlimit="10" stroke-width="1"/>
          </g>
          <g id="Grupo_1159506" data-name="Grupo 1159506" transform="translate(205.762 0)">
            <path id="Trazado_994582" data-name="Trazado 994582" d="M410.119,38.905V48.15a.679.679,0,0,0,.677.677h3.3a18.268,18.268,0,0,0,1.85,5.329h0l-3.4,4.11a.679.679,0,0,0,.09.953l7.122,5.894a.679.679,0,0,0,.953-.09l2.732-3.3h0a18.246,18.246,0,0,0,3.806,1.545h0v4.738a.679.679,0,0,0,.677.677h9.245a.679.679,0,0,0,.677-.677V63.081a18.255,18.255,0,0,0,3.507-1.54l2.882,3.483a.679.679,0,0,0,.953.09l7.122-5.894a.679.679,0,0,0,.09-.953L448.71,53.8h0a18.283,18.283,0,0,0,1.667-4.975H455.3a.679.679,0,0,0,.678-.677V38.9a.679.679,0,0,0-.678-.677h-6.119q-.342-.795-.755-1.549h0l3.216-3.885a.679.679,0,0,0-.09-.953l-7.122-5.894a.679.679,0,0,0-.953.09l-2.626,3.173a18.265,18.265,0,0,0-3-1.259V24.007a.679.679,0,0,0-.677-.677h-9.245a.679.679,0,0,0-.677.677v3.755h0a18.244,18.244,0,0,0-3.021,1.142l-2.374-2.868a.679.679,0,0,0-.953-.09l-7.122,5.894a.679.679,0,0,0-.09.953L416.4,36.07a18.43,18.43,0,0,0-1.1,2.159h-4.5A.678.678,0,0,0,410.119,38.905Zm10.745,6.61a11.373,11.373,0,1,1,11.373,11.372A11.373,11.373,0,0,1,420.864,45.515Z" transform="translate(-410.119 -23.33)" fill="none" stroke="#121924" stroke-linecap="round" stroke-linejoin="round" stroke-miterlimit="10" stroke-width="1"/>
          </g>
        </g>
        <g id="Grupo_1159560" data-name="Grupo 1159560" transform="translate(9.25 35.27)">
          <g id="Grupo_1159520" data-name="Grupo 1159520" transform="translate(362.003 197.241)">
            <g id="Grupo_1159510" data-name="Grupo 1159510" transform="translate(6.547)">
              <g id="Grupo_1159508" data-name="Grupo 1159508">
                <line id="L칤nea_1511" data-name="L칤nea 1511" y2="3.67" transform="translate(0.414 0.415)" fill="#121924"/>
                <path id="Trazado_994583" data-name="Trazado 994583" d="M650.137,419.18a.414.414,0,0,1-.414-.415V415.1a.415.415,0,1,1,.829,0v3.669A.414.414,0,0,1,650.137,419.18Z" transform="translate(-649.722 -414.681)" fill="#121924"/>
              </g>
              <g id="Grupo_1159509" data-name="Grupo 1159509" transform="translate(0 9.424)">
                <line id="L칤nea_1512" data-name="L칤nea 1512" y2="3.67" transform="translate(0.414 0.414)" fill="#121924"/>
                <path id="Trazado_994584" data-name="Trazado 994584" d="M650.137,434.978a.414.414,0,0,1-.414-.415v-3.669a.415.415,0,1,1,.829,0v3.669A.414.414,0,0,1,650.137,434.978Z" transform="translate(-649.722 -430.48)" fill="#121924"/>
              </g>
            </g>
            <g id="Grupo_1159513" data-name="Grupo 1159513" transform="translate(0 6.546)">
              <g id="Grupo_1159511" data-name="Grupo 1159511" transform="translate(9.424)">
                <line id="L칤nea_1513" data-name="L칤nea 1513" x1="3.669" transform="translate(0.415 0.415)" fill="#121924"/>
                <path id="Trazado_994585" data-name="Trazado 994585" d="M658.629,426.485h-3.67a.415.415,0,0,1,0-.829h3.67a.415.415,0,0,1,0,.829Z" transform="translate(-654.544 -425.656)" fill="#121924"/>
              </g>
              <g id="Grupo_1159512" data-name="Grupo 1159512">
                <line id="L칤nea_1514" data-name="L칤nea 1514" x1="3.67" transform="translate(0.415 0.415)" fill="#121924"/>
                <path id="Trazado_994586" data-name="Trazado 994586" d="M642.83,426.485h-3.67a.415.415,0,0,1,0-.829h3.67a.415.415,0,1,1,0,.829Z" transform="translate(-638.745 -425.656)" fill="#121924"/>
              </g>
            </g>
            <g id="Grupo_1159516" data-name="Grupo 1159516" transform="translate(1.919 1.917)">
              <g id="Grupo_1159514" data-name="Grupo 1159514" transform="translate(0 6.664)">
                <line id="L칤nea_1515" data-name="L칤nea 1515" y1="2.595" x2="2.594" transform="translate(0.414 0.415)" fill="#121924"/>
                <path id="Trazado_994587" data-name="Trazado 994587" d="M642.376,432.491a.415.415,0,0,1-.293-.708l2.595-2.595a.415.415,0,0,1,.586.586l-2.595,2.595A.414.414,0,0,1,642.376,432.491Z" transform="translate(-641.962 -429.067)" fill="#121924"/>
              </g>
              <g id="Grupo_1159515" data-name="Grupo 1159515" transform="translate(6.663)">
                <line id="L칤nea_1516" data-name="L칤nea 1516" y1="2.595" x2="2.595" transform="translate(0.415 0.415)" fill="#121924"/>
                <path id="Trazado_994588" data-name="Trazado 994588" d="M653.546,421.319a.415.415,0,0,1-.293-.708l2.595-2.594a.415.415,0,0,1,.586.586l-2.595,2.594A.413.413,0,0,1,653.546,421.319Z" transform="translate(-653.132 -417.895)" fill="#121924"/>
              </g>
            </g>
            <g id="Grupo_1159519" data-name="Grupo 1159519" transform="translate(1.919 1.917)">
              <g id="Grupo_1159517" data-name="Grupo 1159517">
                <line id="L칤nea_1517" data-name="L칤nea 1517" x2="2.594" y2="2.595" transform="translate(0.414 0.415)" fill="#121924"/>
                <path id="Trazado_994589" data-name="Trazado 994589" d="M644.97,421.319a.411.411,0,0,1-.293-.122l-2.595-2.594a.415.415,0,0,1,.586-.586l2.595,2.594a.415.415,0,0,1-.294.708Z" transform="translate(-641.962 -417.895)" fill="#121924"/>
              </g>
              <g id="Grupo_1159518" data-name="Grupo 1159518" transform="translate(6.663 6.664)">
                <line id="L칤nea_1518" data-name="L칤nea 1518" x2="2.595" y2="2.595" transform="translate(0.414 0.415)" fill="#121924"/>
                <path id="Trazado_994590" data-name="Trazado 994590" d="M656.142,432.491a.411.411,0,0,1-.293-.122l-2.595-2.595a.415.415,0,0,1,.586-.586l2.595,2.595a.415.415,0,0,1-.293.708Z" transform="translate(-653.133 -429.067)" fill="#121924"/>
              </g>
            </g>
          </g>
          <g id="Grupo_1159533" data-name="Grupo 1159533" transform="translate(142.819 29.57)">
            <g id="Grupo_1159523" data-name="Grupo 1159523" transform="translate(6.548)">
              <g id="Grupo_1159521" data-name="Grupo 1159521">
                <line id="L칤nea_1519" data-name="L칤nea 1519" y2="3.67" transform="translate(0.414 0.415)" fill="#121924"/>
                <path id="Trazado_994591" data-name="Trazado 994591" d="M282.67,138.076a.414.414,0,0,1-.415-.415v-3.669a.415.415,0,0,1,.829,0v3.669A.414.414,0,0,1,282.67,138.076Z" transform="translate(-282.256 -133.577)" fill="#121924"/>
              </g>
              <g id="Grupo_1159522" data-name="Grupo 1159522" transform="translate(0 9.424)">
                <line id="L칤nea_1520" data-name="L칤nea 1520" y2="3.67" transform="translate(0.414 0.415)" fill="#121924"/>
                <path id="Trazado_994592" data-name="Trazado 994592" d="M282.67,153.874a.414.414,0,0,1-.415-.415v-3.669a.415.415,0,1,1,.829,0v3.669A.414.414,0,0,1,282.67,153.874Z" transform="translate(-282.256 -149.376)" fill="#121924"/>
              </g>
            </g>
            <g id="Grupo_1159526" data-name="Grupo 1159526" transform="translate(0 6.547)">
              <g id="Grupo_1159524" data-name="Grupo 1159524" transform="translate(9.424)">
                <line id="L칤nea_1521" data-name="L칤nea 1521" x1="3.669" transform="translate(0.415 0.415)" fill="#121924"/>
                <path id="Trazado_994593" data-name="Trazado 994593" d="M291.163,145.382h-3.67a.415.415,0,0,1,0-.829h3.67a.415.415,0,1,1,0,.829Z" transform="translate(-287.078 -144.553)" fill="#121924"/>
              </g>
              <g id="Grupo_1159525" data-name="Grupo 1159525">
                <line id="L칤nea_1522" data-name="L칤nea 1522" x1="3.67" transform="translate(0.415 0.415)" fill="#121924"/>
                <path id="Trazado_994594" data-name="Trazado 994594" d="M275.364,145.382h-3.67a.415.415,0,0,1,0-.829h3.67a.415.415,0,1,1,0,.829Z" transform="translate(-271.279 -144.553)" fill="#121924"/>
              </g>
            </g>
            <g id="Grupo_1159529" data-name="Grupo 1159529" transform="translate(1.919 1.918)">
              <g id="Grupo_1159527" data-name="Grupo 1159527" transform="translate(0 6.663)">
                <line id="L칤nea_1523" data-name="L칤nea 1523" y1="2.595" x2="2.595" transform="translate(0.414 0.415)" fill="#121924"/>
                <path id="Trazado_994595" data-name="Trazado 994595" d="M274.91,151.387a.415.415,0,0,1-.293-.708l2.595-2.595a.415.415,0,0,1,.586.586l-2.595,2.595A.414.414,0,0,1,274.91,151.387Z" transform="translate(-274.496 -147.963)" fill="#121924"/>
              </g>
              <g id="Grupo_1159528" data-name="Grupo 1159528" transform="translate(6.663)">
                <line id="L칤nea_1524" data-name="L칤nea 1524" y1="2.595" x2="2.595" transform="translate(0.415 0.414)" fill="#121924"/>
                <path id="Trazado_994596" data-name="Trazado 994596" d="M286.081,140.216a.415.415,0,0,1-.293-.708l2.595-2.594a.415.415,0,0,1,.586.586l-2.595,2.594A.416.416,0,0,1,286.081,140.216Z" transform="translate(-285.666 -136.793)" fill="#121924"/>
              </g>
            </g>
            <g id="Grupo_1159532" data-name="Grupo 1159532" transform="translate(1.919 1.918)">
              <g id="Grupo_1159530" data-name="Grupo 1159530" transform="translate(0)">
                <line id="L칤nea_1525" data-name="L칤nea 1525" x2="2.595" y2="2.595" transform="translate(0.414 0.414)" fill="#121924"/>
                <path id="Trazado_994597" data-name="Trazado 994597" d="M277.5,140.216a.411.411,0,0,1-.293-.122l-2.595-2.594a.415.415,0,0,1,.586-.586l2.595,2.594a.415.415,0,0,1-.293.708Z" transform="translate(-274.496 -136.793)" fill="#121924"/>
              </g>
              <g id="Grupo_1159531" data-name="Grupo 1159531" transform="translate(6.663 6.663)">
                <line id="L칤nea_1526" data-name="L칤nea 1526" x2="2.595" y2="2.595" transform="translate(0.415 0.415)" fill="#121924"/>
                <path id="Trazado_994598" data-name="Trazado 994598" d="M288.675,151.387a.411.411,0,0,1-.293-.122l-2.595-2.595a.415.415,0,0,1,.586-.586l2.595,2.595a.415.415,0,0,1-.293.708Z" transform="translate(-285.666 -147.963)" fill="#121924"/>
              </g>
            </g>
          </g>
          <g id="Grupo_1159546" data-name="Grupo 1159546" transform="translate(327.869 0)">
            <g id="Grupo_1159536" data-name="Grupo 1159536" transform="translate(6.548)">
              <g id="Grupo_1159534" data-name="Grupo 1159534">
                <line id="L칤nea_1527" data-name="L칤nea 1527" y2="3.67" transform="translate(0.414 0.415)" fill="#121924"/>
                <path id="Trazado_994599" data-name="Trazado 994599" d="M592.912,88.5a.414.414,0,0,1-.415-.415V84.417a.415.415,0,0,1,.829,0v3.669A.414.414,0,0,1,592.912,88.5Z" transform="translate(-592.497 -84.002)" fill="#121924"/>
              </g>
              <g id="Grupo_1159535" data-name="Grupo 1159535" transform="translate(0 9.424)">
                <line id="L칤nea_1528" data-name="L칤nea 1528" y2="3.669" transform="translate(0.414 0.415)" fill="#121924"/>
                <path id="Trazado_994600" data-name="Trazado 994600" d="M592.912,104.3a.414.414,0,0,1-.415-.415v-3.669a.415.415,0,0,1,.829,0v3.669A.414.414,0,0,1,592.912,104.3Z" transform="translate(-592.497 -99.801)" fill="#121924"/>
              </g>
            </g>
            <g id="Grupo_1159539" data-name="Grupo 1159539" transform="translate(0 6.546)">
              <g id="Grupo_1159537" data-name="Grupo 1159537" transform="translate(9.424)">
                <line id="L칤nea_1529" data-name="L칤nea 1529" x1="3.67" transform="translate(0.415 0.415)" fill="#121924"/>
                <path id="Trazado_994601" data-name="Trazado 994601" d="M601.4,95.806h-3.67a.415.415,0,1,1,0-.829h3.67a.415.415,0,0,1,0,.829Z" transform="translate(-597.319 -94.977)" fill="#121924"/>
              </g>
              <g id="Grupo_1159538" data-name="Grupo 1159538">
                <line id="L칤nea_1530" data-name="L칤nea 1530" x1="3.67" transform="translate(0.415 0.415)" fill="#121924"/>
                <path id="Trazado_994602" data-name="Trazado 994602" d="M585.6,95.806h-3.67a.415.415,0,0,1,0-.829h3.67a.415.415,0,1,1,0,.829Z" transform="translate(-581.52 -94.977)" fill="#121924"/>
              </g>
            </g>
            <g id="Grupo_1159542" data-name="Grupo 1159542" transform="translate(1.919 1.918)">
              <g id="Grupo_1159540" data-name="Grupo 1159540" transform="translate(0 6.663)">
                <line id="L칤nea_1531" data-name="L칤nea 1531" y1="2.595" x2="2.595" transform="translate(0.414 0.415)" fill="#121924"/>
                <path id="Trazado_994603" data-name="Trazado 994603" d="M585.151,101.812a.415.415,0,0,1-.293-.708l2.595-2.595a.415.415,0,0,1,.586.586l-2.595,2.595A.414.414,0,0,1,585.151,101.812Z" transform="translate(-584.737 -98.388)" fill="#121924"/>
              </g>
              <g id="Grupo_1159541" data-name="Grupo 1159541" transform="translate(6.663)">
                <line id="L칤nea_1532" data-name="L칤nea 1532" y1="2.594" x2="2.595" transform="translate(0.414 0.415)" fill="#121924"/>
                <path id="Trazado_994604" data-name="Trazado 994604" d="M596.322,90.64a.415.415,0,0,1-.293-.708l2.595-2.594a.415.415,0,0,1,.586.586l-2.595,2.594A.416.416,0,0,1,596.322,90.64Z" transform="translate(-595.908 -87.217)" fill="#121924"/>
              </g>
            </g>
            <g id="Grupo_1159545" data-name="Grupo 1159545" transform="translate(1.919 1.918)">
              <g id="Grupo_1159543" data-name="Grupo 1159543">
                <line id="L칤nea_1533" data-name="L칤nea 1533" x2="2.595" y2="2.594" transform="translate(0.414 0.415)" fill="#121924"/>
                <path id="Trazado_994605" data-name="Trazado 994605" d="M587.746,90.64a.412.412,0,0,1-.293-.122l-2.595-2.594a.415.415,0,0,1,.586-.586l2.595,2.594a.415.415,0,0,1-.293.708Z" transform="translate(-584.737 -87.217)" fill="#121924"/>
              </g>
              <g id="Grupo_1159544" data-name="Grupo 1159544" transform="translate(6.663 6.663)">
                <line id="L칤nea_1534" data-name="L칤nea 1534" x2="2.595" y2="2.595" transform="translate(0.414 0.415)" fill="#121924"/>
                <path id="Trazado_994606" data-name="Trazado 994606" d="M598.916,101.812a.411.411,0,0,1-.293-.122L596.029,99.1a.415.415,0,1,1,.586-.586l2.595,2.595a.415.415,0,0,1-.293.708Z" transform="translate(-595.908 -98.388)" fill="#121924"/>
              </g>
            </g>
          </g>
          <g id="Grupo_1159559" data-name="Grupo 1159559" transform="translate(0 77.902)">
            <g id="Grupo_1159549" data-name="Grupo 1159549" transform="translate(6.547)">
              <g id="Grupo_1159547" data-name="Grupo 1159547">
                <line id="L칤nea_1535" data-name="L칤nea 1535" y2="3.67" transform="translate(0.414 0.415)" fill="#121924"/>
                <path id="Trazado_994607" data-name="Trazado 994607" d="M43.232,219.106a.414.414,0,0,1-.415-.415v-3.669a.415.415,0,1,1,.829,0v3.669A.414.414,0,0,1,43.232,219.106Z" transform="translate(-42.817 -214.607)" fill="#121924"/>
              </g>
              <g id="Grupo_1159548" data-name="Grupo 1159548" transform="translate(0 9.424)">
                <line id="L칤nea_1536" data-name="L칤nea 1536" y2="3.67" transform="translate(0.414 0.415)" fill="#121924"/>
                <path id="Trazado_994608" data-name="Trazado 994608" d="M43.232,234.9a.414.414,0,0,1-.415-.415v-3.669a.415.415,0,0,1,.829,0v3.669A.414.414,0,0,1,43.232,234.9Z" transform="translate(-42.817 -230.406)" fill="#121924"/>
              </g>
            </g>
            <g id="Grupo_1159552" data-name="Grupo 1159552" transform="translate(0 6.546)">
              <g id="Grupo_1159550" data-name="Grupo 1159550" transform="translate(9.424)">
                <line id="L칤nea_1537" data-name="L칤nea 1537" x1="3.669" transform="translate(0.415 0.415)" fill="#121924"/>
                <path id="Trazado_994609" data-name="Trazado 994609" d="M51.724,226.411h-3.67a.415.415,0,0,1,0-.829h3.67a.415.415,0,0,1,0,.829Z" transform="translate(-47.639 -225.582)" fill="#121924"/>
              </g>
              <g id="Grupo_1159551" data-name="Grupo 1159551">
                <line id="L칤nea_1538" data-name="L칤nea 1538" x1="3.67" transform="translate(0.415 0.415)" fill="#121924"/>
                <path id="Trazado_994610" data-name="Trazado 994610" d="M35.925,226.411h-3.67a.415.415,0,0,1,0-.829h3.67a.415.415,0,0,1,0,.829Z" transform="translate(-31.84 -225.582)" fill="#121924"/>
              </g>
            </g>
            <g id="Grupo_1159555" data-name="Grupo 1159555" transform="translate(1.919 1.918)">
              <g id="Grupo_1159553" data-name="Grupo 1159553" transform="translate(0 6.663)">
                <line id="L칤nea_1539" data-name="L칤nea 1539" y1="2.595" x2="2.595" transform="translate(0.414 0.415)" fill="#121924"/>
                <path id="Trazado_994611" data-name="Trazado 994611" d="M35.471,232.417a.415.415,0,0,1-.293-.708l2.595-2.595a.415.415,0,1,1,.586.586l-2.595,2.595A.414.414,0,0,1,35.471,232.417Z" transform="translate(-35.057 -228.993)" fill="#121924"/>
              </g>
              <g id="Grupo_1159554" data-name="Grupo 1159554" transform="translate(6.663)">
                <line id="L칤nea_1540" data-name="L칤nea 1540" y1="2.595" x2="2.595" transform="translate(0.415 0.415)" fill="#121924"/>
                <path id="Trazado_994612" data-name="Trazado 994612" d="M46.641,221.245a.415.415,0,0,1-.293-.708l2.595-2.594a.415.415,0,1,1,.586.586l-2.595,2.594A.411.411,0,0,1,46.641,221.245Z" transform="translate(-46.227 -217.822)" fill="#121924"/>
              </g>
            </g>
            <g id="Grupo_1159558" data-name="Grupo 1159558" transform="translate(1.919 1.918)">
              <g id="Grupo_1159556" data-name="Grupo 1159556" transform="translate(0)">
                <line id="L칤nea_1541" data-name="L칤nea 1541" x2="2.595" y2="2.595" transform="translate(0.414 0.415)" fill="#121924"/>
                <path id="Trazado_994613" data-name="Trazado 994613" d="M38.066,221.245a.411.411,0,0,1-.293-.122l-2.595-2.594a.415.415,0,1,1,.586-.586l2.595,2.594a.415.415,0,0,1-.293.708Z" transform="translate(-35.057 -217.822)" fill="#121924"/>
              </g>
              <g id="Grupo_1159557" data-name="Grupo 1159557" transform="translate(6.663 6.663)">
                <line id="L칤nea_1542" data-name="L칤nea 1542" x2="2.595" y2="2.595" transform="translate(0.415 0.415)" fill="#121924"/>
                <path id="Trazado_994614" data-name="Trazado 994614" d="M49.236,232.417a.411.411,0,0,1-.293-.122L46.348,229.7a.415.415,0,1,1,.586-.586l2.595,2.595a.415.415,0,0,1-.293.708Z" transform="translate(-46.227 -228.993)" fill="#121924"/>
              </g>
            </g>
          </g>
        </g>
        <g id="Grupo_1159561" data-name="Grupo 1159561" transform="translate(27.883 35.27)">
          <path id="Trazado_994615" data-name="Trazado 994615" d="M173.358,380.061a1.919,1.919,0,1,1-1.919-1.919A1.919,1.919,0,0,1,173.358,380.061Z" transform="translate(-96.289 -187.86)"/>
          <path id="Trazado_994616" data-name="Trazado 994616" d="M555.43,247.967a1.755,1.755,0,1,1-1.755-1.755A1.755,1.755,0,0,1,555.43,247.967Z" transform="translate(-250.598 -134.623)"/>
          <path id="Trazado_994617" data-name="Trazado 994617" d="M540.741,452.507a1.755,1.755,0,1,1-1.755-1.755A1.755,1.755,0,0,1,540.741,452.507Z" transform="translate(-257.793 -316.175)"/>
          <path id="Trazado_994618" data-name="Trazado 994618" d="M17.257,281.935A1.755,1.755,0,1,1,15.5,280.18,1.755,1.755,0,0,1,17.257,281.935Z" transform="translate(-13.747 -141.646)"/>
          <path id="Trazado_994619" data-name="Trazado 994619" d="M75.283,263.574a1.755,1.755,0,1,1-1.755-1.755A1.755,1.755,0,0,1,75.283,263.574Z" transform="translate(-56.846 -140.921)"/>
          <path id="Trazado_994620" data-name="Trazado 994620" d="M583.953,212.012a.84.84,0,1,1-.84-.84A.84.84,0,0,1,583.953,212.012Z" transform="translate(-262.846 -120.483)"/>
          <circle id="Elipse_11748" data-name="Elipse 11748" cx="0.84" cy="0.84" r="0.84" transform="translate(278.598 144.884)"/>
          <circle id="Elipse_11749" data-name="Elipse 11749" cx="0.84" cy="0.84" r="0.84" transform="translate(26.794 136.854)"/>
          <path id="Trazado_994621" data-name="Trazado 994621" d="M511.066,447.315a.84.84,0,1,1-.84-.84A.84.84,0,0,1,511.066,447.315Z" transform="translate(-222.101 -310.143)"/>
          <path id="Trazado_994622" data-name="Trazado 994622" d="M539.713,212.56a.84.84,0,1,1-.84-.84A.84.84,0,0,1,539.713,212.56Z" transform="translate(-244.994 -120.704)"/>
          <path id="Trazado_994623" data-name="Trazado 994623" d="M228.532,60.453a.84.84,0,1,1-.206-1.17A.84.84,0,0,1,228.532,60.453Z" transform="translate(-119.485 -59.13)"/>
          <path id="Trazado_994624" data-name="Trazado 994624" d="M228.351,98.373a1.588,1.588,0,1,1-.39-2.211A1.588,1.588,0,0,1,228.351,98.373Z" transform="translate(-118.864 -73.958)"/>
          <path id="Trazado_994625" data-name="Trazado 994625" d="M253.248,62.8a1.588,1.588,0,1,1-.39-2.212A1.588,1.588,0,0,1,253.248,62.8Z" transform="translate(-128.91 -59.604)"/>
          <circle id="Elipse_11750" data-name="Elipse 11750" cx="0.735" cy="0.735" r="0.735" transform="translate(90.542 192.761)"/>
          <path id="Trazado_994626" data-name="Trazado 994626" d="M164.548,401.511a1.559,1.559,0,1,1-1.559-1.56A1.559,1.559,0,0,1,164.548,401.511Z" transform="translate(-93.024 -196.661)"/>
          <path id="Trazado_994627" data-name="Trazado 994627" d="M546.678,183.577a1.359,1.359,0,1,1-1.359-1.359A1.359,1.359,0,0,1,546.678,183.577Z" transform="translate(-247.386 -108.8)"/>
        </g>
        <g id="Grupo_1159564" data-name="Grupo 1159564" transform="translate(266.446 48.669)">
          <g id="Grupo_1159562" data-name="Grupo 1159562" transform="translate(0 0)">
            <path id="Trazado_994628" data-name="Trazado 994628" d="M456.184,99.861h13.65a8.786,8.786,0,0,0,8.786-8.786h0a8.786,8.786,0,0,0-8.786-8.786h-13.65a8.786,8.786,0,0,0-8.786,8.786h0A8.786,8.786,0,0,0,456.184,99.861Z" transform="translate(-446.983 -81.874)" fill="#000201"/>
            <path id="Trazado_994629" data-name="Trazado 994629" d="M469.553,100H455.9a9.2,9.2,0,1,1,0-18.4h13.65a9.2,9.2,0,1,1,0,18.4ZM455.9,82.423a8.372,8.372,0,1,0,0,16.743h13.65a8.372,8.372,0,0,0,0-16.743Z" transform="translate(-446.703 -81.594)" fill="#000201"/>
          </g>
          <g id="Grupo_1159563" data-name="Grupo 1159563" transform="translate(7.936 7.667)">
            <path id="Trazado_994630" data-name="Trazado 994630" d="M483.525,97.516a1.534,1.534,0,1,1,1.534-1.534A1.536,1.536,0,0,1,483.525,97.516Zm0-2.239a.7.7,0,1,0,.7.7A.705.705,0,0,0,483.525,95.276Z" transform="translate(-468.878 -94.448)" fill="#fff"/>
            <path id="Trazado_994631" data-name="Trazado 994631" d="M461.541,97.516a1.534,1.534,0,1,1,1.534-1.534A1.536,1.536,0,0,1,461.541,97.516Zm0-2.239a.7.7,0,1,0,.705.7A.7.7,0,0,0,461.541,95.276Z" transform="translate(-460.007 -94.448)" fill="#fff"/>
            <path id="Trazado_994632" data-name="Trazado 994632" d="M472.116,97.516a1.534,1.534,0,1,1,1.534-1.534A1.536,1.536,0,0,1,472.116,97.516Zm0-2.239a.7.7,0,1,0,.7.7A.706.706,0,0,0,472.116,95.276Z" transform="translate(-464.274 -94.448)" fill="#fff"/>
          </g>
        </g>
        <g id="Grupo_1159567" data-name="Grupo 1159567" transform="translate(47.565 164.14)">
          <g id="Grupo_1159565" data-name="Grupo 1159565" transform="translate(0 0)">
            <path id="Trazado_994633" data-name="Trazado 994633" d="M32.449,438.906H136.828a7.08,7.08,0,0,0,7.08-7.079v-5.52a7.08,7.08,0,0,0-7.08-7.08H32.449a7.08,7.08,0,0,0-7.08,7.08v5.52A7.08,7.08,0,0,0,32.449,438.906Z" transform="translate(-24.996 -418.854)" fill="#f38200"/>
            <path id="Trazado_994634" data-name="Trazado 994634" d="M134.578,439.027H34.192a9.46,9.46,0,0,1-9.449-9.45V428.05a9.46,9.46,0,0,1,9.449-9.449H134.578a9.46,9.46,0,0,1,9.45,9.449v1.526A9.461,9.461,0,0,1,134.578,439.027ZM34.192,419.348a8.712,8.712,0,0,0-8.7,8.7v1.526a8.712,8.712,0,0,0,8.7,8.7H134.578a8.712,8.712,0,0,0,8.7-8.7v-1.526a8.712,8.712,0,0,0-8.7-8.7Z" transform="translate(-24.743 -418.601)" fill="#050004"/>
          </g>
          <path id="Trazado_994635" data-name="Trazado 994635" d="M49.68,437.3h75.886a.66.66,0,0,0,.66-.66v-8.422a.66.66,0,0,0-.66-.66H49.68a.66.66,0,0,0-.66.66v8.422A.66.66,0,0,0,49.68,437.3Z" transform="translate(-34.539 -422.215)" fill="#fff"/>
          <g id="Grupo_1159566" data-name="Grupo 1159566" transform="translate(98.798 5.307)">
            <path id="Trazado_994636" data-name="Trazado 994636" d="M198.9,434.91A3.706,3.706,0,1,1,202.6,431.2,3.706,3.706,0,0,1,198.9,434.91Zm0-6.618a2.912,2.912,0,1,0,2.912,2.911A2.916,2.916,0,0,0,198.9,428.292Z" transform="translate(-192.321 -427.498)" fill="#fff"/>
            <path id="Trazado_994637" data-name="Trazado 994637" d="M190.777,440.969a.4.4,0,0,1-.281-.678l3.612-3.611a.4.4,0,1,1,.562.562l-3.612,3.611A.4.4,0,0,1,190.777,440.969Z" transform="translate(-190.38 -431.156)" fill="#fff"/>
          </g>
        </g>
        <g id="Grupo_1159571" data-name="Grupo 1159571" transform="translate(159.244 24.768)">
          <g id="Grupo_1159569" data-name="Grupo 1159569" transform="translate(0 0)">
            <g id="Grupo_1159568" data-name="Grupo 1159568">
              <path id="Trazado_994638" data-name="Trazado 994638" d="M251.86,556.2a5.8,5.8,0,0,0-5.812-5.784l-28.369.069a5.8,5.8,0,0,0-5.784,5.812l.045,18.777a5.8,5.8,0,0,0,5.812,5.784l6.095-.015,7.806,7.768,7.768-7.806,6.7-.016a5.8,5.8,0,0,0,5.784-5.812Z" transform="translate(-211.465 -549.987)" fill="#f381d8"/>
              <path id="Trazado_994639" data-name="Trazado 994639" d="M231.026,588.412a.425.425,0,0,1-.3-.125l-7.681-7.643-5.916.014h-.016a6.226,6.226,0,0,1-6.227-6.212l-.045-18.778a6.227,6.227,0,0,1,6.212-6.242l28.369-.069h.016a6.236,6.236,0,0,1,6.227,6.212h0l.045,18.777a6.234,6.234,0,0,1-6.212,6.242l-6.522.016-7.643,7.68A.425.425,0,0,1,231.026,588.412Zm-7.807-8.626a.429.429,0,0,1,.3.125l7.5,7.466,7.466-7.5a.43.43,0,0,1,.3-.127l6.7-.016a5.376,5.376,0,0,0,5.356-5.382l-.045-18.777a5.376,5.376,0,0,0-5.369-5.356h-.013l-28.369.069a5.369,5.369,0,0,0-5.356,5.382l.045,18.778a5.369,5.369,0,0,0,5.368,5.356h.014l6.094-.015h0Z" transform="translate(-210.838 -549.358)" fill="#050004"/>
            </g>
          </g>
          <g id="Grupo_1159570" data-name="Grupo 1159570" transform="translate(11.608 7.362)">
            <path id="Trazado_994640" data-name="Trazado 994640" d="M248.975,568.883l2,4.045a.594.594,0,0,0,.447.325l4.464.649a.594.594,0,0,1,.329,1.013l-3.23,3.149a.594.594,0,0,0-.171.526l.762,4.446a.594.594,0,0,1-.862.626l-3.993-2.1a.594.594,0,0,0-.553,0l-3.993,2.1a.594.594,0,0,1-.862-.626l.763-4.446a.594.594,0,0,0-.171-.526l-3.23-3.149A.594.594,0,0,1,241,573.9l4.464-.649a.593.593,0,0,0,.447-.325l2-4.045A.593.593,0,0,1,248.975,568.883Z" transform="translate(-240.064 -568.123)" fill="url(#linear-gradient-3)"/>
            <path id="Trazado_994641" data-name="Trazado 994641" d="M243.268,583.532a1.025,1.025,0,0,1-1.007-1.2l.763-4.445a.165.165,0,0,0-.047-.146l-3.23-3.149a1.022,1.022,0,0,1,.567-1.745l4.464-.649a.166.166,0,0,0,.125-.09l2-4.045a1.022,1.022,0,0,1,1.834,0l2,4.045a.166.166,0,0,0,.123.09l4.465.649a1.023,1.023,0,0,1,.567,1.745l-3.23,3.149a.164.164,0,0,0-.047.145l.763,4.447a1.023,1.023,0,0,1-1.484,1.078l-3.993-2.1a.161.161,0,0,0-.153,0l-3.995,2.1A1.021,1.021,0,0,1,243.268,583.532Zm4.547-15.179a.159.159,0,0,0-.147.092l-2,4.045a1.02,1.02,0,0,1-.771.559l-4.463.649a.165.165,0,0,0-.092.281l3.23,3.149a1.023,1.023,0,0,1,.3.9l-.762,4.447a.158.158,0,0,0,.065.161.162.162,0,0,0,.174.013l3.993-2.1a1.02,1.02,0,0,1,.952,0l3.992,2.1a.162.162,0,0,0,.174-.013.159.159,0,0,0,.065-.161l-.763-4.446a1.022,1.022,0,0,1,.3-.906l3.23-3.149a.165.165,0,0,0-.092-.281l-4.465-.649a1.02,1.02,0,0,1-.769-.559l-2-4.045h0A.159.159,0,0,0,247.814,568.353Z" transform="translate(-239.436 -567.495)" fill="#050004"/>
          </g>
        </g>
      </g>
    </g>
  </g>
</svg>
