<svg xmlns="http://www.w3.org/2000/svg" xmlns:xlink="http://www.w3.org/1999/xlink" width="108" height="108" viewBox="0 0 108 108">
  <defs>
    <filter id="Trazado_904820" x="0" y="0" width="108" height="108" filterUnits="userSpaceOnUse">
      <feOffset dy="3" input="SourceAlpha"/>
      <feGaussianBlur stdDeviation="3" result="blur"/>
      <feFlood flood-opacity="0.161"/>
      <feComposite operator="in" in2="blur"/>
      <feComposite in="SourceGraphic"/>
    </filter>
  </defs>
  <g id="Grupo_1160045" data-name="Grupo 1160045" transform="translate(-822 -1737.012)">
    <g id="Icono" transform="translate(206.899 -3262.988)">
      <g transform="matrix(1, 0, 0, 1, 615.1, 5000)" filter="url(#Trazado_904820)">
        <g id="Trazado_904820-2" data-name="Trazado 904820" transform="translate(9 6)" fill="#ebfefd">
          <path d="M 45 88.5 C 39.12687683105469 88.5 33.43022537231445 87.35007476806641 28.06830024719238 85.08217620849609 C 22.88852500915527 82.89131164550781 18.23629951477051 79.75458526611328 14.2408504486084 75.75914764404297 C 10.24541282653809 71.76370239257812 7.108687400817871 67.11147308349609 4.917825222015381 61.93170166015625 C 2.649924993515015 56.56977462768555 1.5 50.87312316894531 1.5 45 C 1.5 39.12687683105469 2.649924993515015 33.43022537231445 4.917825222015381 28.06830024719238 C 7.108687400817871 22.88852500915527 10.24541282653809 18.23629951477051 14.2408504486084 14.2408504486084 C 18.23629951477051 10.24541282653809 22.88852500915527 7.108687400817871 28.06830024719238 4.917825222015381 C 33.43022537231445 2.649924993515015 39.12687683105469 1.5 45 1.5 C 50.87312316894531 1.5 56.56977462768555 2.649924993515015 61.93170166015625 4.917825222015381 C 67.11147308349609 7.108687400817871 71.76370239257812 10.24541282653809 75.75914764404297 14.2408504486084 C 79.75458526611328 18.23629951477051 82.89131164550781 22.88852500915527 85.08217620849609 28.06830024719238 C 87.35007476806641 33.43022537231445 88.5 39.12687683105469 88.5 45 C 88.5 50.87312316894531 87.35007476806641 56.56977462768555 85.08217620849609 61.93170166015625 C 82.89131164550781 67.11147308349609 79.75458526611328 71.76370239257812 75.75914764404297 75.75914764404297 C 71.76370239257812 79.75458526611328 67.11147308349609 82.89131164550781 61.93170166015625 85.08217620849609 C 56.56977462768555 87.35007476806641 50.87312316894531 88.5 45 88.5 Z" stroke="none"/>
          <path d="M 45 3 C 39.32871246337891 3 33.82865524291992 4.110054016113281 28.65262985229492 6.299339294433594 C 23.65165710449219 8.414573669433594 19.15968322753906 11.44334411621094 15.301513671875 15.301513671875 C 11.44334411621094 19.15968322753906 8.414573669433594 23.65165710449219 6.299339294433594 28.65262985229492 C 4.110054016113281 33.82865524291992 3 39.32871246337891 3 45 C 3 50.67128753662109 4.110054016113281 56.17134475708008 6.299339294433594 61.34737396240234 C 8.414573669433594 66.34834289550781 11.44334411621094 70.84031677246094 15.301513671875 74.698486328125 C 19.15968322753906 78.55665588378906 23.65165710449219 81.58542633056641 28.65262985229492 83.70066070556641 C 33.82865524291992 85.88994598388672 39.32871246337891 87 45 87 C 50.67128753662109 87 56.17134475708008 85.88994598388672 61.34737396240234 83.70066070556641 C 66.34834289550781 81.58542633056641 70.84031677246094 78.55665588378906 74.698486328125 74.698486328125 C 78.55665588378906 70.84031677246094 81.58542633056641 66.34834289550781 83.70066070556641 61.34737396240234 C 85.88994598388672 56.17134475708008 87 50.67128753662109 87 45 C 87 39.32871246337891 85.88994598388672 33.82865524291992 83.70066070556641 28.65262985229492 C 81.58542633056641 23.65165710449219 78.55665588378906 19.15968322753906 74.698486328125 15.301513671875 C 70.84031677246094 11.44334411621094 66.34834289550781 8.414573669433594 61.34737396240234 6.299339294433594 C 56.17134475708008 4.110054016113281 50.67128753662109 3 45 3 M 45 0 C 69.85281372070312 0 90 20.14718627929688 90 45 C 90 69.85281372070312 69.85281372070312 90 45 90 C 20.14718627929688 90 0 69.85281372070312 0 45 C 0 20.14718627929688 20.14718627929688 0 45 0 Z" stroke="none" fill="#268985"/>
        </g>
      </g>
    </g>
    <g id="think_8542076" transform="translate(831.406 1780.827)">
      <g id="Grupo_1160039" data-name="Grupo 1160039" transform="translate(16.859 -24.554)">
        <g id="Grupo_1160032" data-name="Grupo 1160032" transform="translate(1.916 3.846)">
          <g id="Grupo_1160031" data-name="Grupo 1160031">
            <g id="Grupo_1160030" data-name="Grupo 1160030">
              <path id="Trazado_995301" data-name="Trazado 995301" d="M66,60.742l-2.332,5.235a1.948,1.948,0,0,1-1.78,1.154H41.391a1.944,1.944,0,0,1-1.8-2.678l.166-.4a31.037,31.037,0,0,0,2.313-11.779V52.08a5.623,5.623,0,0,0-1.794-4.113l-.186-.173a22.26,22.26,0,0,1-6.235-10.159l-.06-.208a24.934,24.934,0,0,1,.5-15.285l.431-1.2a19.541,19.541,0,0,1,5.826-8.372l.245-.206A19.438,19.438,0,0,1,50.384,8l.188-.029a40.842,40.842,0,0,1,14.119.313l2.251.447a16.867,16.867,0,0,1,8.975,4.957l.1.1a17.3,17.3,0,0,1,4.609,9.751c.1.824.19,1.526.24,1.919a1.966,1.966,0,0,0,.193.636L82,27.968a3.929,3.929,0,0,1,0,3.521l-.773,1.542a.982.982,0,0,0,.185,1.136l4.367,4.349a2.052,2.052,0,0,1,.387,2.374l-.011.023a2.1,2.1,0,0,1-.942.942l-2.729,1.36a.981.981,0,0,0-.541.95l.065.884a1.941,1.941,0,0,0,.544,1.21l.637.655a1.213,1.213,0,0,1,.064,1.62l-.568.685a.467.467,0,0,0,.118.7l.02.012a1.219,1.219,0,0,1,.361,1.753l-.42.587a.971.971,0,0,0-.178.635l.137,2.446a4.178,4.178,0,0,1-2.67,4.131h0c-3.316,1.28-6.909.311-10.326-.549h0A3.219,3.219,0,0,0,66,60.742Z" transform="translate(-32.827 -7.5)" fill="#ffe5c2"/>
            </g>
          </g>
        </g>
        <circle id="Elipse_11795" data-name="Elipse 11795" cx="18.883" cy="18.883" r="18.883" transform="translate(0 26.704) rotate(-45)" fill="#01d0fb"/>
        <g id="Grupo_1160036" data-name="Grupo 1160036" transform="translate(11.806 11.83)">
          <path id="Trazado_995302" data-name="Trazado 995302" d="M143.454,85.829l-.059-.012a1,1,0,0,1-.758-.693,12.966,12.966,0,0,0-.955-2.294,1,1,0,0,1,.045-1.029l.038-.057a1.988,1.988,0,0,0-.249-2.509l-1.649-1.649a1.99,1.99,0,0,0-2.51-.248l-.063.042a1,1,0,0,1-1.028.046,12.977,12.977,0,0,0-2.283-.946,1,1,0,0,1-.694-.758l-.015-.077a1.989,1.989,0,0,0-1.951-1.6h-2.333a1.989,1.989,0,0,0-1.951,1.6l-.015.077a1,1,0,0,1-.694.758,12.98,12.98,0,0,0-2.28.944,1,1,0,0,1-1.027-.046l-.068-.045a1.99,1.99,0,0,0-2.51.248L118.8,79.232a1.988,1.988,0,0,0-.248,2.509l.04.06a1,1,0,0,1,.045,1.029,12.964,12.964,0,0,0-.953,2.287,1,1,0,0,1-.758.692l-.068.014a1.989,1.989,0,0,0-1.6,1.95V90.1a1.989,1.989,0,0,0,1.6,1.95l.054.011a1,1,0,0,1,.759.7,12.965,12.965,0,0,0,.952,2.3,1,1,0,0,1-.046,1.027l-.03.046a1.988,1.988,0,0,0,.248,2.509l1.649,1.649a1.99,1.99,0,0,0,2.51.248l.036-.024a1,1,0,0,1,1.03-.044,12.974,12.974,0,0,0,2.316.963,1,1,0,0,1,.694.758l.008.04a1.989,1.989,0,0,0,1.951,1.6h2.333a1.989,1.989,0,0,0,1.951-1.6l.007-.036a1,1,0,0,1,.695-.759,12.976,12.976,0,0,0,2.319-.962,1,1,0,0,1,1.029.045l.035.023a1.99,1.99,0,0,0,2.51-.248l1.649-1.649a1.988,1.988,0,0,0,.248-2.509l-.026-.039a1,1,0,0,1-.045-1.028,12.961,12.961,0,0,0,.956-2.31,1,1,0,0,1,.759-.695l.05-.01a1.989,1.989,0,0,0,1.6-1.95V87.778A1.989,1.989,0,0,0,143.454,85.829Zm-13.3,9.04a5.908,5.908,0,1,1,5.91-5.908A5.909,5.909,0,0,1,130.154,94.869Z" transform="translate(-115.255 -74.048)" fill="#e2dee2"/>
          <g id="Grupo_1160035" data-name="Grupo 1160035" transform="translate(21.749 2.958)">
            <g id="Grupo_1160034" data-name="Grupo 1160034">
              <g id="Grupo_1160033" data-name="Grupo 1160033">
                <path id="Trazado_995303" data-name="Trazado 995303" d="M302.978,107.522l-.059-.012a1,1,0,0,1-.758-.693,12.964,12.964,0,0,0-.955-2.294,1,1,0,0,1,.045-1.029l.038-.057a1.988,1.988,0,0,0-.249-2.509l-1.649-1.649a1.99,1.99,0,0,0-2.51-.248l-.063.042a.978.978,0,0,1-.275.125c.03.026.06.052.089.081l1.649,1.649a1.988,1.988,0,0,1,.249,2.509l-.038.057a1,1,0,0,0-.045,1.029,12.965,12.965,0,0,1,.955,2.294,1,1,0,0,0,.758.693l.059.012a1.989,1.989,0,0,1,1.6,1.95V111.8a1.988,1.988,0,0,1-1.6,1.95l-.05.01a1,1,0,0,0-.759.695,12.959,12.959,0,0,1-.956,2.31,1,1,0,0,0,.045,1.028l.026.039a1.988,1.988,0,0,1-.248,2.509l-1.649,1.649c-.032.032-.065.061-.1.09a.981.981,0,0,1,.314.135l.035.023a1.99,1.99,0,0,0,2.51-.248l1.649-1.649a1.988,1.988,0,0,0,.249-2.509l-.026-.039a1,1,0,0,1-.045-1.028,12.959,12.959,0,0,0,.956-2.31,1,1,0,0,1,.759-.695l.05-.01a1.989,1.989,0,0,0,1.6-1.95v-2.332A1.989,1.989,0,0,0,302.978,107.522Z" transform="translate(-296.528 -98.699)" fill="#cbc4cc"/>
              </g>
            </g>
          </g>
          <path id="Trazado_995304" data-name="Trazado 995304" d="M173.779,123.766a8.948,8.948,0,1,0,8.951,8.948A8.949,8.949,0,0,0,173.779,123.766Zm0,12.924a3.977,3.977,0,1,1,3.978-3.977A3.977,3.977,0,0,1,173.779,136.69Z" transform="translate(-158.88 -117.801)" fill="#b5adb6"/>
        </g>
        <g id="Grupo_1160038" data-name="Grupo 1160038" transform="translate(28.214 4.247)">
          <g id="Grupo_1160037" data-name="Grupo 1160037" transform="translate(0 0)">
            <path id="Trazado_995305" data-name="Trazado 995305" d="M302.935,41.46l-4.367-4.349a.982.982,0,0,1-.185-1.136l.773-1.542a3.929,3.929,0,0,0,0-3.521l-.939-1.875a1.961,1.961,0,0,1-.193-.636c-.049-.392-.137-1.1-.24-1.919a17.3,17.3,0,0,0-4.609-9.751l-.1-.1a16.867,16.867,0,0,0-8.975-4.957l-2.251-.447c-.749-.149-1.5-.274-2.257-.38l1.749.347a16.867,16.867,0,0,1,8.975,4.957l.1.1A17.3,17.3,0,0,1,295.024,26c.1.824.19,2.006.24,2.4a1.966,1.966,0,0,0,.193.636l.939,1.875a3.929,3.929,0,0,1,0,3.521l-.773,1.542a.982.982,0,0,0,.185,1.136l3.165,3.148a2.052,2.052,0,0,1,.387,2.374l-.011.023a2.1,2.1,0,0,1-.942.942c-.239.119-1.142.591-1.527.783a.981.981,0,0,0-.541.95l.065,2.662a1.941,1.941,0,0,0,.544,1.21l.637.655a1.213,1.213,0,0,1,.064,1.62l-.568.685a.466.466,0,0,0,.118.7l.02.012a1.219,1.219,0,0,1,.361,1.753l-.42.587a.97.97,0,0,0-.178.635l.137,2.446a4.178,4.178,0,0,1-2.67,4.131,7.131,7.131,0,0,1-3,.447,11.283,11.283,0,0,0,5.762-.447,4.178,4.178,0,0,0,2.67-4.131l-.137-2.446a.97.97,0,0,1,.178-.635l.42-.587a1.219,1.219,0,0,0-.361-1.753l-.02-.012a.467.467,0,0,1-.118-.7l.568-.685a1.213,1.213,0,0,0-.064-1.62l-.637-.655a1.941,1.941,0,0,1-.544-1.21l-.065-.884a.981.981,0,0,1,.541-.95l2.729-1.36a2.1,2.1,0,0,0,.942-.942l.011-.023A2.052,2.052,0,0,0,302.935,41.46Z" transform="translate(-276.285 -10.845)" fill="#fed2a4"/>
            <path id="Trazado_995306" data-name="Trazado 995306" d="M260.191,429.328a3.219,3.219,0,0,0-3.727,1.809l-2.669,5.97a1.948,1.948,0,0,1-1.78,1.154h2.76a1.948,1.948,0,0,0,1.78-1.154l2.332-5.235a3.219,3.219,0,0,1,3.727-1.809l.464.117C262.124,429.886,261.164,429.573,260.191,429.328Z" transform="translate(-252.015 -379.031)" fill="#fed2a4"/>
          </g>
        </g>
      </g>
      <g id="Grupo_1160044" data-name="Grupo 1160044" transform="translate(18.775 -20.708)">
        <g id="Grupo_1160041" data-name="Grupo 1160041" transform="translate(5.906 3.976)">
          <g id="Grupo_1160040" data-name="Grupo 1160040" transform="translate(3.99 3.99)">
            <path id="Trazado_995307" data-name="Trazado 995307" d="M145.09,89.949V87.618a1.988,1.988,0,0,0-1.6-1.95l-.059-.012a1,1,0,0,1-.758-.693,12.966,12.966,0,0,0-.954-2.294,1,1,0,0,1,.045-1.029l.038-.057a1.988,1.988,0,0,0-.248-2.509l-1.649-1.649a1.989,1.989,0,0,0-2.509-.248l-.063.042a1,1,0,0,1-1.027.046,12.965,12.965,0,0,0-2.282-.946,1,1,0,0,1-.694-.758l-.015-.077a1.988,1.988,0,0,0-1.95-1.6h-2.332a1.988,1.988,0,0,0-1.95,1.6l-.015.077a1,1,0,0,1-.694.758,12.96,12.96,0,0,0-2.28.944,1,1,0,0,1-1.027-.046L123,77.174a1.988,1.988,0,0,0-2.509.248l-1.649,1.649a1.988,1.988,0,0,0-.248,2.509l.04.06a1,1,0,0,1,.045,1.029,12.965,12.965,0,0,0-.952,2.287,1,1,0,0,1-.758.692l-.068.014a1.988,1.988,0,0,0-1.6,1.95v2.332a1.988,1.988,0,0,0,1.6,1.95l.054.011a1,1,0,0,1,.759.7,12.972,12.972,0,0,0,.952,2.3,1,1,0,0,1-.046,1.027l-.03.046a1.989,1.989,0,0,0,.248,2.509l1.649,1.649a1.989,1.989,0,0,0,2.509.248l.036-.024a1,1,0,0,1,1.029-.044,12.965,12.965,0,0,0,2.315.963,1,1,0,0,1,.693.758l.008.04a1.988,1.988,0,0,0,1.95,1.6h2.332a1.988,1.988,0,0,0,1.95-1.6l.007-.036a1,1,0,0,1,.694-.759,12.96,12.96,0,0,0,2.319-.962,1,1,0,0,1,1.029.045l.035.023a1.988,1.988,0,0,0,2.509-.248l1.649-1.649a1.988,1.988,0,0,0,.249-2.509l-.026-.039a1,1,0,0,1-.045-1.028,12.966,12.966,0,0,0,.956-2.31,1,1,0,0,1,.759-.695l.05-.01A1.988,1.988,0,0,0,145.09,89.949Z" transform="translate(-115.304 -73.887)" fill="none" stroke="#000" stroke-linecap="round" stroke-linejoin="round" stroke-miterlimit="10" stroke-width="2"/>
            <circle id="Elipse_11796" data-name="Elipse 11796" cx="3.977" cy="3.977" r="3.977" transform="translate(9.269 14.913) rotate(-45)" fill="none" stroke="#000" stroke-linecap="round" stroke-linejoin="round" stroke-miterlimit="10" stroke-width="2"/>
            <circle id="Elipse_11797" data-name="Elipse 11797" cx="8.948" cy="8.948" r="8.948" transform="translate(2.239 14.913) rotate(-45)" fill="none" stroke="#000" stroke-linecap="round" stroke-linejoin="round" stroke-miterlimit="10" stroke-width="2"/>
          </g>
          <path id="Trazado_995308" data-name="Trazado 995308" d="M86.456,47.393a18.817,18.817,0,1,1-2.325,3.5" transform="translate(-82.05 -40.634)" fill="none" stroke="#000" stroke-linecap="round" stroke-linejoin="round" stroke-miterlimit="10" stroke-width="2"/>
        </g>
        <g id="Grupo_1160043" data-name="Grupo 1160043" transform="translate(0 0)">
          <g id="Grupo_1160042" data-name="Grupo 1160042">
            <path id="Trazado_995309" data-name="Trazado 995309" d="M42.049,53.344q.018-.538.018-1.077v-.189a5.623,5.623,0,0,0-1.794-4.113l-.186-.173a22.26,22.26,0,0,1-6.235-10.159l-.06-.208a24.934,24.934,0,0,1,.5-15.285l.431-1.2a19.541,19.541,0,0,1,5.826-8.372l.245-.206A19.438,19.438,0,0,1,50.384,8l.188-.029a40.842,40.842,0,0,1,14.119.313l2.251.447a16.867,16.867,0,0,1,8.975,4.957l.1.1a17.3,17.3,0,0,1,4.609,9.751c.1.824.19,1.526.24,1.919a1.966,1.966,0,0,0,.193.636L82,27.967a3.929,3.929,0,0,1,0,3.521l-.773,1.542a.982.982,0,0,0,.185,1.136l4.367,4.349a2.052,2.052,0,0,1,.387,2.374l-.011.023a2.1,2.1,0,0,1-.942.942l-2.729,1.36a.981.981,0,0,0-.541.95l.065.884a1.941,1.941,0,0,0,.544,1.21l.637.655a1.213,1.213,0,0,1,.064,1.62l-.568.685a.466.466,0,0,0,.118.7l.02.012a1.219,1.219,0,0,1,.361,1.753l-.42.587a.971.971,0,0,0-.178.635l.137,2.446a4.178,4.178,0,0,1-2.67,4.131h0c-3.316,1.28-6.909.311-10.326-.549h0A3.219,3.219,0,0,0,66,60.74l-2.332,5.235a1.948,1.948,0,0,1-1.78,1.154H41.391a1.944,1.944,0,0,1-1.8-2.678l.166-.4a31.035,31.035,0,0,0,1.869-6.524" transform="translate(-32.827 -7.499)" fill="none" stroke="#000" stroke-linecap="round" stroke-linejoin="round" stroke-miterlimit="10" stroke-width="2"/>
          </g>
        </g>
      </g>
    </g>
  </g>
</svg>
