<svg xmlns="http://www.w3.org/2000/svg" xmlns:xlink="http://www.w3.org/1999/xlink" width="400" height="286" viewBox="0 0 400 286">
  <defs>
    <clipPath id="clip-path">
      <rect id="Rectángulo_410032" data-name="Rectángulo 410032" width="400" height="286" transform="translate(180 1900)" fill="#fff" stroke="#707070" stroke-width="1"/>
    </clipPath>
    <clipPath id="clip-path-2">
      <rect id="Rectángulo_410018" data-name="Rectángulo 410018" width="285.74" height="272.979" fill="none"/>
    </clipPath>
    <clipPath id="clip-path-3">
      <path id="Trazado_995543" data-name="Trazado 995543" d="M2743.393,723.551c-5.8,2.223-10.021,5.694-12.58,11.456q-.205.462-.388.932t-.341.951q-.159.48-.294.966t-.245.98q-.111.493-.2.99t-.147,1q-.062.5-.1,1.005t-.048,1.009q-.011.505,0,1.01t.053,1.009q.039.5.1,1t.152,1q.088.5.2.99t.25.978q.137.486.3.965t.346.949a19.431,19.431,0,0,0,10.287,10.637,30.1,30.1,0,0,0,4.7,1.431,26.919,26.919,0,0,0,4.972.455,21.093,21.093,0,0,0,15.093-6.964c-1.365-.825-5.781-5.8-6.613-7.158,1.03-1.016,1.959-2.09,2.89-3.195a16.379,16.379,0,0,0,2.4-5.591l.074-1.4c2.2.539,4.189,1.707,6.333,2.248l.066-.715a25.207,25.207,0,0,0-.966-4.243,20.352,20.352,0,0,0-10.517-11.8,20.086,20.086,0,0,0-8.881-2.04,21.631,21.631,0,0,0-6.908,1.145" transform="translate(-2729.052 -722.406)" fill="none"/>
    </clipPath>
    <linearGradient id="linear-gradient" x1="-3.911" y1="3.772" x2="-3.91" y2="3.772" gradientUnits="objectBoundingBox">
      <stop offset="0" stop-color="#cc4b63"/>
      <stop offset="1" stop-color="#fd7d7c"/>
    </linearGradient>
    <clipPath id="clip-path-5">
      <path id="Trazado_995565" data-name="Trazado 995565" d="M651.2,1639.546c-.836,5.256-.632,10.685-.534,15.988q.139,8.46.424,16.917c.184,6.033.605,11.2-.553,17.206-.339,6.6-.955,13.176-1.248,19.78q-.119,3.212-.135,6.426a13.315,13.315,0,0,1-.028,2.426c-.071,2.4-.227,4.822-.211,7.22a1.419,1.419,0,0,0,.838,1.111l.68.267c.721-1.591,1.536-9.145,1.9-11.378.994-6.108,1.819-12.2,2.666-18.329.68-4.919,1.44-9.848,1.835-14.8.725-9.068,1.283-18.119,2.171-27.177.326-3.324.4-7.1,1.265-10.32,2.792-10.448,11.258-11.344,20.422-12.946,1.253-.219,3.228-.334,4.282-1.038.083-.055.161-.117.241-.176q-4.151.168-8.3.007t-8.277-.647c-3.622.208-10.84-1.287-14.241-2.521a82.665,82.665,0,0,0-3.191,11.984" transform="translate(-648.916 -1627.561)" fill="none"/>
    </clipPath>
    <linearGradient id="linear-gradient-2" x1="-0.23" y1="2.41" x2="-0.229" y2="2.41" gradientUnits="objectBoundingBox">
      <stop offset="0" stop-color="#091845"/>
      <stop offset="1" stop-color="#213a7f"/>
    </linearGradient>
    <clipPath id="clip-path-7">
      <path id="Trazado_995592" data-name="Trazado 995592" d="M2794.371,2544.764c-6.591.835-12.885,2.513-19.374,3.818l-3.142,1.351a3.423,3.423,0,0,0-.934,1.855c1.152-.473,2.268-1.057,3.388-1.6,4.153-2.741,24.711-5.087,25.475-5.774v-.023a10.513,10.513,0,0,0-1.052-.05,35.409,35.409,0,0,0-4.36.423" transform="translate(-2770.921 -2544.341)" fill="none"/>
    </clipPath>
    <linearGradient id="linear-gradient-3" x1="-8.057" y1="4.666" x2="-8.055" y2="4.666" gradientUnits="objectBoundingBox">
      <stop offset="0" stop-color="#136d77"/>
      <stop offset="1" stop-color="#0c5783"/>
    </linearGradient>
    <clipPath id="clip-path-9">
      <path id="Trazado_995637" data-name="Trazado 995637" d="M1634.893,1276.422c-.036.077-.071.154-.108.23-.7,1.418-2.507,2.333-1.984,4.182a2.834,2.834,0,0,0,.718,1.141c2.314,2.108,5.137,2.782,7.751,4.332,1.543.915,3.856,3.208,3.914,5.12a1.832,1.832,0,0,1-.418,1.379c-.437.495-1.3.557-1.711,1a5.367,5.367,0,0,0-.334,1.007c-.707,2.089-1.8,4.2-3.933,5.143.038.574.108,1.163.1,1.739l.219,1.818,1.942.539a18.489,18.489,0,0,1,1.954.691l3.842,1.6a69.1,69.1,0,0,0-.232-15.458c-.416-3.435-1.268-7.861-3.357-10.721a14.377,14.377,0,0,0-2.84-2.637,13.661,13.661,0,0,0-3.5-1.217c-.3-.009-.668-.042-1.031-.042a2.564,2.564,0,0,0-1,.154" transform="translate(-1632.708 -1276.268)" fill="none"/>
    </clipPath>
    <linearGradient id="linear-gradient-4" x1="-3.964" y1="6.818" x2="-3.962" y2="6.818" gradientUnits="objectBoundingBox">
      <stop offset="0" stop-color="#502c2f"/>
      <stop offset="1" stop-color="#8c4152"/>
    </linearGradient>
    <clipPath id="clip-path-10">
      <path id="Trazado_995638" data-name="Trazado 995638" d="M1091.125,1270.745a4.154,4.154,0,0,0-2.151.622c-2.505,2.167-3.176,6.9-5.043,9.619a.776.776,0,0,1-.128-.272,9.3,9.3,0,0,0,.493-1.475c-.244.439-.491.872-.757,1.3l-.234-.055q-.556.773-1.086,1.564a17.515,17.515,0,0,1-1.412,1.717c-1.75,1.856-4.711,6.7-7.132,6.848a1.98,1.98,0,0,1-.36-.007,56.53,56.53,0,0,0-.067,6.872c1.057,0,2.132-.049,3.187,0l3.612-.176.032,1.81.028.669a69.188,69.188,0,0,0,9.114.15,60.23,60.23,0,0,1,8.814-.1,5.452,5.452,0,0,0,2.273-1.094c1.685-2.273,2.8-5.474,3.794-8.115a3.532,3.532,0,0,0,.737.342,1.542,1.542,0,0,0,.941-.379c1.428-1.255,1.742-3.953,1.855-5.756l.058-.38a5.766,5.766,0,0,0,.2-.557c.271-.981-.387-2.1-.831-2.94.666-1.2,1.188-2.5,1.75-3.747.544-1.735,1.677-3.24,2.09-5.035a3.6,3.6,0,0,0-3.167-1.418c-2.172-.112-4.369-.091-6.559-.07-.979.01-1.956.019-2.928.017-1.424,0-2.913-.074-4.384-.074a27.363,27.363,0,0,0-2.734.118" transform="translate(-1073.167 -1270.627)" fill="none"/>
    </clipPath>
    <linearGradient id="linear-gradient-5" x1="-2.874" y1="4.155" x2="-2.871" y2="4.155" gradientUnits="objectBoundingBox">
      <stop offset="0" stop-color="#0a1d54"/>
      <stop offset="1" stop-color="#283c7b"/>
    </linearGradient>
    <clipPath id="clip-path-12">
      <path id="Trazado_995657" data-name="Trazado 995657" d="M2045.06,1433.279c-3.864,1.059-6.806,2.622-8.828,6.214a12.082,12.082,0,0,0-.941,9.019c.883,3.106,3.049,5.3,5.647,7.072a19.827,19.827,0,0,0,4.331,1.429,12.787,12.787,0,0,0,4.047-.289,12.389,12.389,0,0,0,5.462-2.717,11.765,11.765,0,0,0,3.793-6.1,11.384,11.384,0,0,0-1.517-8.813,12.74,12.74,0,0,0-7.7-5.626,17.4,17.4,0,0,0-2.949-.216c-.448,0-.9.01-1.346.024" transform="translate(-2034.825 -1433.255)" fill="none"/>
    </clipPath>
    <linearGradient id="linear-gradient-6" x1="-5.889" y1="5.05" x2="-5.886" y2="5.05" gradientUnits="objectBoundingBox">
      <stop offset="0" stop-color="#f9962e"/>
      <stop offset="1" stop-color="#feca50"/>
    </linearGradient>
    <clipPath id="clip-path-14">
      <path id="Trazado_995677" data-name="Trazado 995677" d="M1440.7,505.784l.186.086c1.066.487,2.193.755,3.267,1.209,3.735,1.577,7.255,4.2,8.72,8.107a14.194,14.194,0,0,1,.8,4.545c.122,3.773.032,7.576.028,11.352l-.026,20.693-.025,64.808-.03,67.421c-.048,9.1.229,18.286-.122,27.377a15.863,15.863,0,0,1-1.323,6.224,15.233,15.233,0,0,1-8.694,7.731,10.589,10.589,0,0,1-2.647.572c-3.107.279-6.361.1-9.486.1l-17.086,0-51.152-.081c-.686,0-1.376,0-2.068,0-2.244.01-4.505.02-6.724-.154-1.064-.084-2.35-.708-3.383-.534a24.824,24.824,0,0,0,2.33,1.159,16.555,16.555,0,0,0,4.429,1.163c4.948.369,10.061.121,15.031.119l27.365,0,29.023-.014c1.444,0,2.9.012,4.368.027,3.734.039,7.506.079,11.172-.2a17.187,17.187,0,0,0,4.493-1.26,16.073,16.073,0,0,0,2.715.142,15.63,15.63,0,0,1,2.774.153c1.142-3.077,2.495-6.1,3.755-9.135,1.4-3.374,2.743-6.786,4.2-10.135.7-1.612,2.913-4.755,3.08-6.295-.358-1.643-.18-3.437-.422-5.122-2.139-1.228-4.907-4.23-7.045-5.848q-.043-8.286.013-16.572c-.1-1.071-.02-2.212-.015-3.29l.092-105.4V533.889l.033-10.712c0-2.132.107-4.32-.1-6.441a12.579,12.579,0,0,0-2.619-6.636,11.339,11.339,0,0,0-7.813-4.352q-3.548.069-7.1.036" transform="translate(-1350.934 -505.748)" fill="none"/>
    </clipPath>
    <linearGradient id="linear-gradient-7" x1="-1.002" y1="1.03" x2="-1.001" y2="1.03" gradientUnits="objectBoundingBox">
      <stop offset="0" stop-color="#082355"/>
      <stop offset="1" stop-color="#274085"/>
    </linearGradient>
    <clipPath id="clip-path-15">
      <path id="Trazado_995678" data-name="Trazado 995678" d="M2496.332,2654.028c-.012,2.978.324,6.543-.366,9.427a16.142,16.142,0,0,1-4.181,7.441q-.486.476-1.011.908t-1.088.815q-.562.383-1.156.715t-1.215.609a16.034,16.034,0,0,0,2.715.142,15.638,15.638,0,0,1,2.774.153c1.142-3.076,2.495-6.1,3.756-9.135,1.4-3.374,2.743-6.786,4.2-10.135.7-1.612,2.913-4.755,3.08-6.295-.358-1.643-.179-3.437-.422-5.122-2.139-1.228-4.907-4.23-7.045-5.848Z" transform="translate(-2487.315 -2637.703)" fill="none"/>
    </clipPath>
    <linearGradient id="linear-gradient-8" x1="-5.511" y1="1.995" x2="-5.509" y2="1.995" gradientUnits="objectBoundingBox">
      <stop offset="0" stop-color="#d0d2f1"/>
      <stop offset="1" stop-color="#b5ccf4"/>
    </linearGradient>
  </defs>
  <g id="Enmascarar_grupo_1159096" data-name="Enmascarar grupo 1159096" transform="translate(-180 -1900)" clip-path="url(#clip-path)">
    <g id="Grupo_1160146" data-name="Grupo 1160146" transform="translate(246 1913.436)">
      <g id="Grupo_1160119" data-name="Grupo 1160119" transform="translate(0 0.003)">
        <g id="Grupo_1160118" data-name="Grupo 1160118" clip-path="url(#clip-path-2)">
          <path id="Trazado_995524" data-name="Trazado 995524" d="M3110.382,913.909c2.2.539,4.189,1.707,6.333,2.248l.066-.715a20.893,20.893,0,0,1-1.1,8.741c-2.455-1.339-5.261-1.968-7.766-3.28a16.379,16.379,0,0,0,2.4-5.591Z" transform="translate(-2839.314 -834.926)" fill="#f7b0ad"/>
          <path id="Trazado_995525" data-name="Trazado 995525" d="M3135.718,913.909c2.2.539,4.189,1.707,6.333,2.248a1.332,1.332,0,0,1-.134.8c-1.539.026-4.365-1.314-6.107-1.623l-.166-.027Z" transform="translate(-2864.649 -834.926)" fill="#f67a86"/>
          <path id="Trazado_995526" data-name="Trazado 995526" d="M3077.361,994.829c2.5,1.312,5.311,1.942,7.766,3.28a20.49,20.49,0,0,1-4.043,7.072c-1.365-.825-5.781-5.8-6.613-7.158,1.03-1.016,1.959-2.09,2.89-3.195" transform="translate(-2808.763 -908.852)" fill="#973b57"/>
          <path id="Trazado_995527" data-name="Trazado 995527" d="M81.7,1166.492a5.563,5.563,0,0,1,2.967.319,4.248,4.248,0,0,1,2.263,2.592,4.587,4.587,0,0,1-.248,3.493,4.34,4.34,0,0,1-2.783,2.153,5.8,5.8,0,0,1-2.278-.112,4.257,4.257,0,0,1-.424-.142,4.317,4.317,0,0,1-.407-.185,4.273,4.273,0,0,1-.386-.226,4.325,4.325,0,0,1-.991-.9,4.315,4.315,0,0,1-.667-1.155,4.226,4.226,0,0,1,0-3.04,5.127,5.127,0,0,1,2.954-2.8" transform="translate(-71.681 -1065.629)" fill="#9fd4f8"/>
          <path id="Trazado_995528" data-name="Trazado 995528" d="M1569.305,68.938a6.217,6.217,0,0,1,3.215.825,5.2,5.2,0,0,1,2.357,3.2,5.437,5.437,0,0,1-.641,4.207,5.109,5.109,0,0,1-7.466,1.774q-.237-.158-.457-.339t-.421-.383a5.662,5.662,0,0,1-.382-.422q-.181-.221-.338-.458a5.825,5.825,0,0,1-.533-1q-.108-.264-.19-.537t-.136-.553q-.026-.133-.045-.268t-.031-.27c-.008-.09-.013-.18-.017-.271s0-.181,0-.271.005-.181.011-.271.015-.18.026-.27.024-.18.04-.269.034-.178.054-.266.042-.176.067-.263.052-.174.081-.259.061-.171.095-.255.07-.167.107-.249.078-.163.121-.243.086-.159.133-.237.095-.154.145-.23.1-.149.157-.222a5.844,5.844,0,0,1,4.052-2.195" transform="translate(-1429.031 -62.979)" fill="#9fd4f8"/>
          <path id="Trazado_995529" data-name="Trazado 995529" d="M346.214,2736.266c1.337,2.528,3.045,5.041,4.009,7.732.429,1.609-.566,5.692-.917,7.557-.218,1.418-.4,2.839-.6,4.259a28.923,28.923,0,0,0,.9,8.021,5.056,5.056,0,0,1-2.353-.666c-8.857-4-16.739-10.858-23.366-17.853-.953-1.006-2.729-2.482-3.2-3.74a19.8,19.8,0,0,0,5.541,1.716c6.025.638,14.826-3.145,19.47-6.857Z" transform="translate(-292.971 -2499.787)" fill="#f5e4e8"/>
          <path id="Trazado_995530" data-name="Trazado 995530" d="M169.86,2552.7c5.2,4,9.887,5.461,16.428,4.594a51.455,51.455,0,0,0,6.037-1.233,26.418,26.418,0,0,1,5.861-1.35l1.876.446c2.269,3.684,4.741,7.343,6.844,11.12a12.168,12.168,0,0,1,.99,1.563l.248.723-.517.169c-4.644,3.712-13.445,7.494-19.47,6.857a19.812,19.812,0,0,1-5.541-1.716q-3.615-1.906-7.028-4.153,1.618-1.332,3.3-2.588-.269-.3-.52-.61c-1.185-1.48-8.948-12.431-8.807-13.635Z" transform="translate(-154.901 -2332.087)" fill="#6fb0a6"/>
          <path id="Trazado_995531" data-name="Trazado 995531" d="M341.72,2728.788a24.8,24.8,0,0,0-5.012.117c-4.04.2-16.936,1.327-20.376.334.49-.2,22.843-1.291,25.656-1.344l.248.723Z" transform="translate(-288.993 -2492.141)" fill="#126374"/>
          <path id="Trazado_995532" data-name="Trazado 995532" d="M169.86,2552.7c5.2,4,9.887,5.461,16.428,4.594a51.455,51.455,0,0,0,6.037-1.233,26.418,26.418,0,0,1,5.861-1.35l1.876.446c2.269,3.684,4.741,7.343,6.844,11.12-.074-.005-.149-.008-.223-.016-1.2-.124-2.865-1.564-3.989-2.118-9.128-4.5-14.782-3.657-23.041,2.406q-.391.283-.769.583-.269-.3-.52-.61c-1.185-1.48-8.948-12.431-8.807-13.635Z" transform="translate(-154.901 -2332.087)" fill="#f5e4e8"/>
          <path id="Trazado_995533" data-name="Trazado 995533" d="M776.646,15.116c.111-2.967-.165-5.974.025-8.93a6.432,6.432,0,0,1,2.137-4.6,6.3,6.3,0,0,1,3.27-1.467A41.319,41.319,0,0,1,787.412.07l10.845.022Q804.8.121,811.338.078c2.973-.021,6.031-.161,8.992.063-.07.054-.139.11-.21.162-.957.707-2.417.828-3.457,1.464a46.217,46.217,0,0,0-9.9,8.273c-1.285,1.428-2.344,3.927-4.429,4.19l-.692.2c-.062.046-.123.094-.187.137-.564.381-1.389.316-2.026.637-2.865,1.446-4.338,4.659-5.054,7.6-.843,3.47-.42,8.334-.4,11.963-3.3-.035-6.6.094-9.9.009a7.512,7.512,0,0,1-5.58-2.223,7.254,7.254,0,0,1-1.734-3.329,27.811,27.811,0,0,1-.19-5.9c0-2.738-.039-5.48.065-8.216" transform="translate(-709.41 -0.003)" fill="#f67a86"/>
          <path id="Trazado_995534" data-name="Trazado 995534" d="M935.338,114.815a5.3,5.3,0,0,1,1.164-.031,2.4,2.4,0,0,1,1.521.984,1.953,1.953,0,0,1,.333,1.51A2.644,2.644,0,0,1,936.981,119a4.14,4.14,0,0,1-.681.108,2.095,2.095,0,0,1-.42-.034,2.059,2.059,0,0,1-.205-.049,2.1,2.1,0,0,1-.741-.391q-.081-.067-.156-.142a2.187,2.187,0,0,1-.6-1.668,2.581,2.581,0,0,1,1.159-2.013" transform="translate(-853.441 -104.844)" fill="#fefefe"/>
          <path id="Trazado_995535" data-name="Trazado 995535" d="M938.052,210.47a6.27,6.27,0,0,1,.794.045q.117.017.232.045t.227.068q.112.04.219.091t.209.112a2.277,2.277,0,0,1,.2.132,2.4,2.4,0,0,1,.5.5,2.084,2.084,0,0,1,.4,1.653,2.572,2.572,0,0,1-1.345,1.736,7.059,7.059,0,0,1-.958,0,2.354,2.354,0,0,1-1.473-.935,2.167,2.167,0,0,1-.4-1.714,2.527,2.527,0,0,1,1.4-1.735" transform="translate(-855.672 -192.281)" fill="#fefefe"/>
          <path id="Trazado_995536" data-name="Trazado 995536" d="M1040.292,121.06a3.846,3.846,0,0,1-1.22-.322,2.718,2.718,0,0,1-1.27-1.78,1.669,1.669,0,0,1,.228-1.4,2.307,2.307,0,0,1,1.563-.826,2.756,2.756,0,0,1,2.016.57,1.529,1.529,0,0,1,.614,1.263,3.574,3.574,0,0,1-1.238,2.291Z" transform="translate(-948.057 -106.628)" fill="#fefefe"/>
          <path id="Trazado_995537" data-name="Trazado 995537" d="M1003.582.235c3.324-.06,9.011-.743,11.487,1.765a5.948,5.948,0,0,1,1.546,3.147c.492,2.705.164,6.11.157,8.879-.013,4.944.074,9.9-.041,14.841,0,.18-.016.358-.027.537a7.5,7.5,0,0,1-3.2,4.658,5.924,5.924,0,0,1-2.5.743,80.745,80.745,0,0,1-8.282.028l-16.658-.022c-2.461,3.952-5.1,7.691-8.768,10.627-.008-3.516.06-7.057-.062-10.569-.023-3.629-.446-8.493.4-11.963.716-2.945,2.188-6.157,5.054-7.6.637-.321,1.462-.255,2.026-.637.064-.043.125-.091.187-.137l.692-.2c2.085-.263,3.145-2.762,4.429-4.19a46.22,46.22,0,0,1,9.9-8.273c1.04-.636,2.5-.756,3.457-1.464.071-.052.14-.108.21-.162" transform="translate(-892.661 -0.097)" fill="#ea5f70"/>
          <path id="Trazado_995538" data-name="Trazado 995538" d="M1146.07,208.886a3.3,3.3,0,0,1,1.058.119,2.249,2.249,0,0,1,1.245,1.177,2.339,2.339,0,0,1-.009,1.8,2.648,2.648,0,0,1-1.577,1.444c-.14-.009-.281-.017-.421-.036a2.506,2.506,0,0,1-1.718-.975,1.97,1.97,0,0,1-.249-1.642,3.046,3.046,0,0,1,1.67-1.883" transform="translate(-1045.428 -190.834)" fill="#fefefe"/>
          <path id="Trazado_995539" data-name="Trazado 995539" d="M1041.5,209.163a3.8,3.8,0,0,1,1.02.2,2.269,2.269,0,0,1,1.193,1.229,2.191,2.191,0,0,1-.1,1.731,2.641,2.641,0,0,1-1.7,1.308,6.552,6.552,0,0,1-.967-.178,2.379,2.379,0,0,1-1.334-1.207,1.975,1.975,0,0,1-.135-.394,1.948,1.948,0,0,1-.035-.205,2.019,2.019,0,0,1-.013-.209,1.945,1.945,0,0,1,.009-.208,1.958,1.958,0,0,1,.085-.408,2,2,0,0,1,.074-.195,2.851,2.851,0,0,1,1.9-1.467" transform="translate(-949.599 -191.087)" fill="#fefefe"/>
          <path id="Trazado_995540" data-name="Trazado 995540" d="M1146.687,113.581a4.218,4.218,0,0,1,1.138.253,2.309,2.309,0,0,1,1.167,1.35,2.178,2.178,0,0,1,.09.448,2.164,2.164,0,0,1,.009.229,2.135,2.135,0,0,1-.015.228,2.244,2.244,0,0,1-.038.226,2.177,2.177,0,0,1-.062.22,2.176,2.176,0,0,1-.191.416,2.479,2.479,0,0,1-1.751,1.138,5,5,0,0,1-.925-.239,2.465,2.465,0,0,1-1.308-1.3,2,2,0,0,1,.051-1.675,2.65,2.65,0,0,1,1.834-1.3" transform="translate(-1045.718 -103.765)" fill="#fefefe"/>
          <path id="Trazado_995541" data-name="Trazado 995541" d="M1250.256,113.664a4.39,4.39,0,0,1,1.128.121,2.334,2.334,0,0,1,1.354,1.1,2.046,2.046,0,0,1,.094.194,2.134,2.134,0,0,1,.073.2,2.125,2.125,0,0,1,.082.423,2.157,2.157,0,0,1,.007.216,1.98,1.98,0,0,1-.015.215,2.019,2.019,0,0,1-.037.213,2.1,2.1,0,0,1-.06.207,2.791,2.791,0,0,1-1.647,1.62,5.248,5.248,0,0,1-.943-.059,2.413,2.413,0,0,1-1.446-1.122q-.053-.1-.1-.2a2.139,2.139,0,0,1-.078-.2,2.167,2.167,0,0,1-.057-.211,2.135,2.135,0,0,1-.035-.215,2.1,2.1,0,0,1-.014-.218,2.132,2.132,0,0,1,.008-.218q.01-.109.03-.216t.052-.212a2.691,2.691,0,0,1,1.6-1.646" transform="translate(-1140.658 -103.841)" fill="#fefefe"/>
          <path id="Trazado_995542" data-name="Trazado 995542" d="M1250.174,208.745a6.169,6.169,0,0,1,1.1,0,2.415,2.415,0,0,1,1.491.987,2.112,2.112,0,0,1,.362,1.714,2.566,2.566,0,0,1-1.481,1.715,5.573,5.573,0,0,1-.766.044,2.285,2.285,0,0,1-1.6-.759,2.124,2.124,0,0,1-.476-1.678,2.881,2.881,0,0,1,1.366-2.018" transform="translate(-1140.865 -190.679)" fill="#fefefe"/>
        </g>
      </g>
      <g id="Grupo_1160121" data-name="Grupo 1160121" transform="translate(235.856 62.436)">
        <g id="Grupo_1160120" data-name="Grupo 1160120" clip-path="url(#clip-path-3)">
          <rect id="Rectángulo_410019" data-name="Rectángulo 410019" width="58.182" height="58.097" transform="translate(-20.162 17.015) rotate(-40.164)" fill="url(#linear-gradient)"/>
        </g>
      </g>
      <g id="Grupo_1160123" data-name="Grupo 1160123" transform="translate(0 0.003)">
        <g id="Grupo_1160122" data-name="Grupo 1160122" clip-path="url(#clip-path-2)">
          <path id="Trazado_995544" data-name="Trazado 995544" d="M2834.412,846.3a14.154,14.154,0,0,1,.963-2.2,7.03,7.03,0,0,1,4.479-3.433q.162-.038.326-.067t.328-.051c.11-.014.22-.026.331-.035s.221-.015.332-.019.221,0,.333,0,.222.007.333.014.221.018.331.03.22.028.329.047.218.039.327.063.216.05.323.079.213.061.319.095.21.071.314.11.207.081.308.125.2.091.3.141.2.1.294.155.192.111.286.169c2.013,1.259,2.817,3.113,3.351,5.316l-.073,1.4a16.392,16.392,0,0,1-2.4,5.591c-.931,1.1-1.86,2.179-2.89,3.195-2.146,2.058-5.436,4.769-8.325,5.505a7.244,7.244,0,0,1-1.018-.321c-3.827-1.575-10.211-7.806-11.823-11.641a7.914,7.914,0,0,1-.191-6.183,6.424,6.424,0,0,1,3.613-3.369,6.912,6.912,0,0,1,5.3.063c2.243,1.043,3.128,3.03,3.894,5.22" transform="translate(-2577.251 -767.852)" fill="#fefefe"/>
          <path id="Trazado_995545" data-name="Trazado 995545" d="M251.907,3057.2a16.573,16.573,0,0,0,4.429,1.163c4.948.369,10.061.121,15.031.119l27.365,0,29.023-.014c5.126-.012,10.435.214,15.54-.169a17.182,17.182,0,0,0,4.493-1.26c1.81.3,3.685-.022,5.489.294a4.7,4.7,0,0,0,1.446.114c3.378.023,6.761.177,10.137.29a56.772,56.772,0,0,1,5.867.257c7.275.361,14.549.6,21.811,1.195a71.055,71.055,0,0,1,10.825,1.384c.692.168,1.594.345,1.978.977l-.2.283c-3.183,1.719-19.179,2.036-23.674,2.238q-47.159,1.825-94.352,1.709-51.2.226-102.382-.945c-10.474-.281-21.129-.608-31.557-1.657-1.433-.144-7.017-.676-7.784-1.617l.161-.291c4.2-2.379,36.894-2.961,44.244-3.1.224,1.058.092,2.548.576,3.487a1.648,1.648,0,0,0,1.065.019c.678-.692.5-2.776.59-3.776,1.52.07,3.034.068,4.555.06,4.023,3.884,3.961,4.135,9.658,4.032a48.979,48.979,0,0,0,6.439-.414c1.217-.184,2.4-.511,3.609-.712l.214-.084c.454-.722.067-2.281.34-3.244a28.638,28.638,0,0,0,3.927.327l.1.089c1.11.97,1.921,2.3,3.067,3.21a4.13,4.13,0,0,0,1.828.847,53.466,53.466,0,0,0,8.715.031c1.575-.089,5.86-.451,7.006-1.519.16-.149.128-.258.153-.46l-.285-.486a16.671,16.671,0,0,0-2.281-2.379c1.746.087,11.52.428,12.83,0" transform="translate(-132.824 -2792.831)" fill="#8070b0"/>
          <path id="Trazado_995546" data-name="Trazado 995546" d="M10.443,1336.927c-1.656-4.53-3.933-8.731-5.436-13.346-5.967-18.318-7.453-38.79.287-56.839a104.037,104.037,0,0,1,9.868-17,100.222,100.222,0,0,0,10.072-17.955,20.751,20.751,0,0,0,1.5-4.168c.008-.048.014-.1.022-.144.312,6.434,3.783,11.849,8.482,16.084q.924.818,1.893,1.583t1.979,1.474q1.01.709,2.058,1.361t2.132,1.243q1.083.591,2.2,1.121t2.258,1q1.143.466,2.31.868t2.355.736c.383,1.876.69,4.147,2.429,5.285,1.836,1.2,5.009,1.352,7.151,1.766l-.439,2.062a82.648,82.648,0,0,0-3.191,11.985c-.836,5.256-.632,10.685-.534,15.988q.139,8.46.424,16.917c.184,6.033.605,11.2-.553,17.206-.339,6.6-.955,13.176-1.248,19.78q-.12,3.212-.135,6.426a13.317,13.317,0,0,1-.028,2.426c-.071,2.4-.227,4.822-.211,7.22a1.419,1.419,0,0,0,.838,1.11c.164.494.333.422.614.792.338.445-.064,3.144-.283,3.7-.964-2.691-2.672-5.2-4.009-7.732l-.248-.723a12.169,12.169,0,0,0-.99-1.563c-2.1-3.778-4.575-7.436-6.844-11.12l-1.876-.446a26.4,26.4,0,0,0-5.861,1.35,51.472,51.472,0,0,1-6.037,1.233c-6.541.867-11.226-.594-16.428-4.594a39.557,39.557,0,0,1-4.516-5.076" transform="translate(0 -1121.389)" fill="#f5e4e8"/>
          <path id="Trazado_995547" data-name="Trazado 995547" d="M459.486,1671.253q.34-.017.679-.01a3.867,3.867,0,0,1,2.631,1.2,4.976,4.976,0,0,1,1.113,3.99c-.058.111-.115.223-.179.331a4.749,4.749,0,0,1-3.182,2.383,4.425,4.425,0,0,1-2.478-.449,3.7,3.7,0,0,1-1.775-2.25,4.137,4.137,0,0,1-.151-.8q-.018-.2-.015-.409c0-.136.01-.272.026-.408a4.032,4.032,0,0,1,.066-.4q.043-.2.106-.395a4.041,4.041,0,0,1,.144-.383,4.087,4.087,0,0,1,.181-.366,4.4,4.4,0,0,1,2.833-2.027" transform="translate(-416.709 -1526.805)" fill="#9fd4f8"/>
          <path id="Trazado_995548" data-name="Trazado 995548" d="M473.463,1687.224a4.926,4.926,0,0,1,1.051.024,2.817,2.817,0,0,1,1.829,1.262,2.465,2.465,0,0,1,.248,1.964,3.03,3.03,0,0,1-1.724,1.862,4.868,4.868,0,0,1-1.44-.024,2.705,2.705,0,0,1-1.6-1.257,2.507,2.507,0,0,1-.2-.462,2.526,2.526,0,0,1-.066-.245q-.026-.123-.04-.249t-.015-.252c0-.084,0-.168.011-.252s.02-.167.036-.25.037-.165.061-.245a3.031,3.031,0,0,1,1.846-1.875" transform="translate(-430.759 -1541.393)" fill="#fefefe"/>
          <path id="Trazado_995549" data-name="Trazado 995549" d="M607.469,2375.961c.19-1.8-.334-3.869-.3-5.722.1-6.3.745-13.521,2.929-19.466a32.756,32.756,0,0,1,2.3-4.722c-.339,6.6-.955,13.176-1.248,19.78q-.119,3.212-.135,6.426a13.319,13.319,0,0,1-.028,2.426c-.085-.221-.008-.115-.3-.252-1.184.536-1.731,2.173-2.22,3.295a10.5,10.5,0,0,1-1-1.765" transform="translate(-554.691 -2143.296)" fill="#6fb0a6"/>
          <path id="Trazado_995550" data-name="Trazado 995550" d="M189.116,2269.879a2.014,2.014,0,0,0-.061-.455c-.222-.583-3.8-3.9-4.466-4.478a14,14,0,0,1-1.843-1.579c2.584,1.218,6.964,7.231,8.482,7.662l.267.052c.378-.491-.129-3.232-.213-3.952l.194.075a20.158,20.158,0,0,1,.428,3.746l.2.058.174-.281a9.739,9.739,0,0,0-.561-3.7c-.016-.044-.034-.087-.051-.131l.307-.327a12.887,12.887,0,0,1,.424,5.288q5.519,7.463,10.584,15.241a14.392,14.392,0,0,0,.312-3.277l.273-.664.812.12.108.421q-.258,2.344-.6,4.676c2.182,3.875,4.9,8.349,7.35,12.047a10.5,10.5,0,0,0,1,1.765c.488-1.122,1.036-2.759,2.22-3.295.293.137.216.031.3.252-.071,2.4-.227,4.822-.211,7.22a1.42,1.42,0,0,0,.838,1.111c.164.494.333.422.614.792.338.445-.064,3.145-.283,3.7-.964-2.691-2.672-5.2-4.009-7.732l-.248-.724a12.194,12.194,0,0,0-.99-1.563c-2.1-3.777-4.575-7.437-6.844-11.12l-1.876-.446c-2.692-1.512-6.09-1.789-9.1-2.3q-5.293-.9-10.573-1.869a49.2,49.2,0,0,1-8.626-1.986c2.98-.145,6.19.735,9.121,1.273q7.424,1.406,14.882,2.615c1.543.25,3.127.66,4.672.825l.273.031c-.157-1.3-9.02-13.376-10.466-15.48a22.111,22.111,0,0,1-4.562-.476l.083-.985c1.342.142,2.69.394,4.026.593a34.634,34.634,0,0,0-2.366-2.749" transform="translate(-158.463 -2067.758)" fill="#2e5ca0"/>
          <path id="Trazado_995551" data-name="Trazado 995551" d="M631.383,2674.435c.293.137.216.031.3.252-.071,2.4-.227,4.822-.211,7.22-.6-.865-1.1-1.847-1.651-2.746a42.14,42.14,0,0,1,1.561-4.726" transform="translate(-575.39 -2443.3)" fill="#f5e4e8"/>
          <path id="Trazado_995552" data-name="Trazado 995552" d="M178.53,2286.512a5.837,5.837,0,0,1,4.781-.827,8.58,8.58,0,0,1,5.1,3.826,5.507,5.507,0,0,1,.768,2.729l-.083.985c-.595,1.289-.909,2.688-1.916,3.755a7.038,7.038,0,0,1-5.1,2.418,6.8,6.8,0,0,1-4.836-2.141q-.117-.121-.228-.247t-.215-.258q-.1-.132-.2-.268t-.188-.278q-.091-.141-.174-.287t-.16-.3c-.051-.1-.1-.2-.145-.3s-.089-.205-.13-.31-.079-.209-.115-.315-.068-.213-.1-.321-.058-.216-.083-.325-.047-.219-.066-.329-.036-.221-.05-.332-.025-.223-.033-.334-.014-.223-.017-.335,0-.224,0-.336c.068-2.465,1.45-4.28,3.187-5.872" transform="translate(-160.187 -2087.964)" fill="#f67a86"/>
          <path id="Trazado_995553" data-name="Trazado 995553" d="M229.273,2333.558a3.483,3.483,0,0,1,1.32.076,2.376,2.376,0,0,1,1.449,1.562q.035.12.058.243t.034.248a2.518,2.518,0,0,1-.008.5,2.494,2.494,0,0,1-.2.722,2.684,2.684,0,0,1-1.777,1.483,4.49,4.49,0,0,1-.812-.081,2.444,2.444,0,0,1-1.672-1.115,2.219,2.219,0,0,1-.22-1.773,3.022,3.022,0,0,1,1.827-1.866" transform="translate(-207.705 -2131.86)" fill="#fefefe"/>
          <path id="Trazado_995554" data-name="Trazado 995554" d="M493.885,2208.925c-1.606-5.3-3.191-10.989-1.848-16.529,1.288-5.315,5.3-8.338,9.748-11.011,2.848,5.659,1.953,16.007-1.62,21.21-.985,1.434-4.525,4.773-4.934,5.521a3.4,3.4,0,0,0-.153.687l-.108-.421-.812-.12Z" transform="translate(-449.051 -1992.861)" fill="#6fb0a6"/>
          <path id="Trazado_995555" data-name="Trazado 995555" d="M527.066,2237.058c0,2.3-1.109,5.676-1.63,8.048-1.025,4.669-2.056,9.4-2.711,14.137l-.812-.12c1.188-6.347,2.772-16.284,5.154-22.064" transform="translate(-476.806 -2043.723)" fill="#126374"/>
          <path id="Trazado_995556" data-name="Trazado 995556" d="M120.828,2465.754a40.93,40.93,0,0,1,6.946-2.177,28.35,28.35,0,0,1,16.084,1.639,57.631,57.631,0,0,1,8.061,4.89c.684.45,1.491.805,2.131,1.3-1.545-.164-3.128-.575-4.672-.824q-7.458-1.21-14.882-2.615c-2.931-.538-6.141-1.418-9.121-1.274a49.132,49.132,0,0,0,8.626,1.986q5.28.969,10.573,1.869c3,.507,6.4.784,9.1,2.3a26.419,26.419,0,0,0-5.861,1.35,51.447,51.447,0,0,1-6.037,1.233c-6.541.867-11.226-.594-16.428-4.594a39.575,39.575,0,0,1-4.516-5.077" transform="translate(-110.386 -2250.216)" fill="#6fb0a6"/>
          <path id="Trazado_995557" data-name="Trazado 995557" d="M64.871,1794.548c6.586,4.264,10.323,10.26,11.936,17.909a34.555,34.555,0,0,1-2.4,21.287,17.584,17.584,0,0,1-2.027,4.1,1.31,1.31,0,0,1-.365.317l-.014.106-.307.327c.017.043.035.087.051.131a9.738,9.738,0,0,1,.561,3.7l-.174.282-.2-.058a20.163,20.163,0,0,0-.428-3.746l-.194-.075c.083.719.59,3.461.213,3.952l-.267-.052c-1.518-.431-5.9-6.444-8.482-7.662a14,14,0,0,0,1.843,1.579c.663.576,4.244,3.894,4.466,4.478a2.015,2.015,0,0,1,.061.455,34.65,34.65,0,0,1,2.366,2.749c-1.336-.2-2.683-.451-4.026-.593a5.508,5.508,0,0,0-.768-2.729,8.579,8.579,0,0,0-5.1-3.826,5.838,5.838,0,0,0-4.781.827q-.467-.125-.928-.272t-.914-.318q-.453-.171-.9-.364t-.877-.408q-.433-.215-.856-.452t-.832-.494q-.41-.257-.806-.535t-.778-.575q-.382-.3-.749-.613t-.717-.65q-.35-.334-.684-.685t-.648-.718q-.315-.367-.612-.75t-.573-.779q-.277-.4-.533-.807t-.492-.833a28.706,28.706,0,0,1-2.806-7.234c7.311-.587,13.115.146,18.825,4.98a67.83,67.83,0,0,1,6.213,6.671c-5.65-9.633-8.291-18.022-5.385-29.208.833-3.206,1.953-6.307,3.091-9.414" transform="translate(-38.486 -1639.456)" fill="#6fb0a6"/>
          <path id="Trazado_995558" data-name="Trazado 995558" d="M100.578,2145.747c6.8,2.083,16.536,9.935,21.571,15.1a21.345,21.345,0,0,1,2.5,2.73c-1.518-.431-5.9-6.444-8.482-7.662a14.009,14.009,0,0,0,1.843,1.579c.663.576,4.244,3.894,4.466,4.478a2.009,2.009,0,0,1,.061.455,84.705,84.705,0,0,0-13.875-11.723c-2.453-1.612-6-3.165-8.085-4.955" transform="translate(-91.886 -1960.303)" fill="#126374"/>
          <path id="Trazado_995559" data-name="Trazado 995559" d="M329.2,1933.39q-2.4-12.884-3.9-25.9c-.334-2.985-.741-5.982-.883-8.982l.235-.039-.188-.409-.039.366.193-.09c1.027,2.778,1.17,7.028,1.574,10.035,1.07,7.957,1.935,16.563,3.716,24.358l-.014.106-.307.327c.017.043.035.087.051.131a9.739,9.739,0,0,1,.561,3.7l-.174.282-.2-.058a20.161,20.161,0,0,0-.428-3.746Z" transform="translate(-296.383 -1734.019)" fill="#126374"/>
          <path id="Trazado_995560" data-name="Trazado 995560" d="M650.206,1627.562c3.4,1.234,10.619,2.729,14.241,2.521q4.126.487,8.277.647t8.3-.007a39.4,39.4,0,0,0,6.7-.988,21.725,21.725,0,0,1,2.251,5.666,139.792,139.792,0,0,1,2.313,14.378q1.526,10.883,2.474,21.832c.3,3.41.961,7.2.7,10.594a78.18,78.18,0,0,1-1.535,8.674q-1.372,7.369-2.88,14.712c-1.586,7.843-2.745,15.806-4.551,23.6l-1.869-.041q-.179,1.445-.38,2.887c-.611,5.654.187,11.273,3.831,15.816q.3.375.609.744a14.889,14.889,0,0,1,6.216,2.664,16.66,16.66,0,0,1,2.281,2.379l.284.486c-.026.2.006.311-.153.46-1.146,1.068-5.432,1.429-7.006,1.519a53.522,53.522,0,0,1-8.715-.031,4.136,4.136,0,0,1-1.828-.847c-1.147-.913-1.957-2.24-3.067-3.21l-.1-.089a28.641,28.641,0,0,1-3.927-.327c-.274.963.114,2.522-.34,3.245l-.214.084c-1.209.2-2.392.529-3.609.712a48.981,48.981,0,0,1-6.439.414c-5.7.1-5.636-.148-9.658-4.032-1.521.008-3.035.01-4.555-.06-.092,1,.087,3.084-.591,3.776a1.647,1.647,0,0,1-1.065-.019c-.484-.939-.351-2.43-.576-3.487l-.338-1.286a28.915,28.915,0,0,1-.9-8.021c.205-1.419.387-2.841.6-4.259.351-1.865,1.346-5.948.917-7.557.219-.556.621-3.255.283-3.7-.281-.37-.451-.3-.614-.792a1.42,1.42,0,0,1-.838-1.111c-.016-2.4.14-4.822.211-7.22a13.308,13.308,0,0,0,.028-2.426q.016-3.214.135-6.426c.294-6.6.909-13.184,1.248-19.78,1.158-6,.737-11.172.553-17.206q-.285-8.457-.424-16.917c-.1-5.3-.3-10.732.534-15.988a82.64,82.64,0,0,1,3.191-11.985" transform="translate(-588.646 -1486.902)" fill="#2f427c"/>
          <path id="Trazado_995561" data-name="Trazado 995561" d="M951.278,1764.655c.671.027,1.352.146,2.019.231-.233,1.217-.555,2.42-.851,3.624a3.556,3.556,0,0,1,.027,1.022c-.226,1.683-3.066,16.352-3.29,16.707q-.2,5.454-.168,10.912c.006,3.232.1,6.492-.072,9.72-.4,7.394-1.608,14.788-2.385,22.152q-.863,8.684-1.937,17.343c-.258,2.069-.369,4.308-.768,6.34a1.488,1.488,0,0,1-.441.856c-.206.182-.718.155-.993.183a5.669,5.669,0,0,1-.813-.177,2.092,2.092,0,0,1-.116-1.351c-.173-4.36.113-8.859.222-13.23.153-6.111.179-12.293.847-18.375.27-2.453.736-4.913,1.24-7.327a25.622,25.622,0,0,0,.93-5.091c-.018-1.859-.942-3.975-1.52-5.744-.11-2.536,1.438-8.113,2.008-10.8q2.774-13.558,6.06-27" transform="translate(-860.074 -1612.147)" fill="#090c44"/>
          <path id="Trazado_995562" data-name="Trazado 995562" d="M952.459,1809.257a3.561,3.561,0,0,1,.027,1.022c-.226,1.683-3.066,16.352-3.29,16.707q-.2,5.454-.168,10.912c.006,3.232.1,6.492-.072,9.72-.4,7.394-1.608,14.788-2.385,22.152q-.863,8.684-1.937,17.344c-.258,2.069-.369,4.307-.768,6.34a1.489,1.489,0,0,1-.441.856c-.206.182-.718.155-.993.183a5.687,5.687,0,0,1-.813-.177,2.092,2.092,0,0,1-.116-1.351,1.98,1.98,0,0,0,.277,1.074l.266.062c1.256-2.572,2.494-23.034,3.079-28.017.694-5.914,1.927-11.829,2.34-17.768.377-5.426-.209-10.935.262-16.36a51.425,51.425,0,0,1,1.267-6.842,103.357,103.357,0,0,1,3.462-15.858" transform="translate(-860.087 -1652.894)" fill="#11285b"/>
          <path id="Trazado_995563" data-name="Trazado 995563" d="M816.463,2202c.578,1.77,1.5,3.885,1.52,5.744a25.621,25.621,0,0,1-.93,5.091c-.5,2.414-.97,4.874-1.24,7.327-.669,6.082-.695,12.264-.847,18.375-.109,4.37-.4,8.869-.222,13.229a2.093,2.093,0,0,0,.116,1.351,5.684,5.684,0,0,0,.813.177l1.041.116a39.276,39.276,0,0,1-2.457,11.222c-.767,2.753.633,9.824,1.521,12.59a58.7,58.7,0,0,0-5.089-3.627,5.652,5.652,0,0,1-1.477-.479q-.2-.21-.385-.428c-3.661-4.17-6.468-11.056-6.095-16.659l.275-.181c-.049-.866-.038-1.745-.054-2.613l2.158.034,7.654-34.472,2.287-10.437c.448-2.1.783-4.309,1.41-6.361" transform="translate(-733.327 -2011.691)" fill="#f5e4e8"/>
          <path id="Trazado_995564" data-name="Trazado 995564" d="M802.733,2825.255l.275-.181a45.128,45.128,0,0,0,7.681,17.747,5.661,5.661,0,0,1-1.477-.479q-.2-.21-.385-.428c-3.661-4.169-6.468-11.056-6.095-16.659" transform="translate(-733.327 -2580.92)" fill="#090c44"/>
        </g>
      </g>
      <g id="Grupo_1160125" data-name="Grupo 1160125" transform="translate(56.082 140.663)">
        <g id="Grupo_1160124" data-name="Grupo 1160124" clip-path="url(#clip-path-5)">
          <rect id="Rectángulo_410021" data-name="Rectángulo 410021" width="101.654" height="43.283" transform="translate(-7.058 98.822) rotate(-85.923)" fill="url(#linear-gradient-2)"/>
        </g>
      </g>
      <g id="Grupo_1160127" data-name="Grupo 1160127" transform="translate(0 0.003)">
        <g id="Grupo_1160126" data-name="Grupo 1160126" clip-path="url(#clip-path-2)">
          <path id="Trazado_995566" data-name="Trazado 995566" d="M645.567,2773.741l.68.267c1.595.183,3.176.608,4.758.888a43.635,43.635,0,0,0,7.269.669c.016.867,0,1.747.054,2.613l-.275.181c-.374,5.6,2.433,12.489,6.094,16.659q.188.218.385.428a5.643,5.643,0,0,0,1.477.479,58.7,58.7,0,0,1,5.089,3.627c-.888-2.766-2.287-9.837-1.521-12.59a39.278,39.278,0,0,0,2.457-11.222c2.834.042,5.671.249,8.5.384,1.331.063,2.777-.025,4.089.152q-.179,1.445-.38,2.887c-.611,5.653.187,11.273,3.831,15.815q.3.375.609.744a14.887,14.887,0,0,1,6.216,2.664,16.673,16.673,0,0,1,2.281,2.379l.284.486c-.026.2.006.311-.154.46-1.146,1.068-5.432,1.429-7.006,1.519a53.465,53.465,0,0,1-8.715-.031,4.133,4.133,0,0,1-1.828-.847c-1.147-.913-1.957-2.24-3.067-3.21l-.1-.089a28.641,28.641,0,0,1-3.927-.327c-.273.963.114,2.522-.34,3.245l-.214.084c-1.209.2-2.392.528-3.609.712a48.98,48.98,0,0,1-6.439.414c-5.7.1-5.636-.148-9.658-4.032-1.521.007-3.035.009-4.555-.061-.092,1,.087,3.084-.59,3.776a1.649,1.649,0,0,1-1.066-.019c-.484-.939-.351-2.43-.575-3.487l-.338-1.286a28.919,28.919,0,0,1-.9-8.021c.205-1.419.386-2.841.6-4.259.351-1.864,1.346-5.947.917-7.557.219-.557.621-3.255.283-3.7-.281-.37-.451-.3-.614-.792" transform="translate(-588.647 -2534.023)" fill="#090c44"/>
          <path id="Trazado_995567" data-name="Trazado 995567" d="M973.295,3035.17c.931.9,1.872,1.8,2.79,2.717a28.639,28.639,0,0,1-3.927-.327,19.052,19.052,0,0,1,1.137-2.39" transform="translate(-888.14 -2772.859)" fill="#fefefe"/>
          <path id="Trazado_995568" data-name="Trazado 995568" d="M685.834,3031.032a25.969,25.969,0,0,1,3.737,3.17c-1.521.008-3.035.01-4.555-.06a20.315,20.315,0,0,1,.818-3.109" transform="translate(-625.814 -2769.078)" fill="#fefefe"/>
          <path id="Trazado_995569" data-name="Trazado 995569" d="M645.459,2893.729l.115-.038c.063-.022.125-.047.189-.069,1.092-.375,2.281-1.722,3.305-1.731.923,3.562,4.519,8.782,7.74,10.631,2.359,1.354,5.588,1.276,8.2.862a5.661,5.661,0,0,0,1.477.479,58.626,58.626,0,0,1,5.089,3.627,9.091,9.091,0,0,1,.452,1.038,16.674,16.674,0,0,1-2.562.287c-14.574.951-14.453-1.96-24.61-10.826.205-1.419.387-2.841.6-4.259" transform="translate(-589.124 -2641.962)" fill="#fbb84a"/>
          <path id="Trazado_995570" data-name="Trazado 995570" d="M652.434,2773.741l.68.267c1.595.183,3.176.608,4.758.888a43.636,43.636,0,0,0,7.269.669c.016.867,0,1.747.053,2.613l-.275.181c-.374,5.6,2.433,12.489,6.094,16.659q.188.218.385.428c-2.613.414-5.842.493-8.2-.862-3.221-1.849-6.817-7.07-7.74-10.632-1.024.01-2.214,1.356-3.305,1.732-.063.022-.126.047-.189.069-.038.014-.077.025-.115.038.351-1.864,1.346-5.947.917-7.557.219-.557.621-3.255.283-3.7-.281-.37-.451-.3-.614-.792" transform="translate(-595.514 -2534.023)" fill="#f8be9f"/>
          <path id="Trazado_995571" data-name="Trazado 995571" d="M652.434,2773.741l.68.267c1.595.183,3.176.608,4.758.888a43.636,43.636,0,0,0,7.269.669c.016.867,0,1.747.053,2.613l-.275.181c-3.243-.117-6.522,0-9.768.024a52.6,52.6,0,0,0,.307,5.569c-1.024.01-2.214,1.356-3.305,1.732-.063.022-.126.047-.189.069-.038.014-.077.025-.115.038.351-1.864,1.346-5.947.917-7.557.219-.557.621-3.255.283-3.7-.281-.37-.451-.3-.614-.792" transform="translate(-595.514 -2534.023)" fill="#f59477"/>
          <path id="Trazado_995572" data-name="Trazado 995572" d="M938.895,2796.855c2.834.042,5.671.249,8.5.383,1.331.063,2.777-.024,4.089.152q-.179,1.445-.38,2.887c-.611,5.654.187,11.273,3.831,15.816q.3.374.609.744a14.886,14.886,0,0,1,6.216,2.664,16.634,16.634,0,0,1,2.281,2.379c-4.486.329-11.549.865-15.8-.337a7.267,7.267,0,0,1-2.134-.929,28.94,28.94,0,0,1-6.576-7.293,17.071,17.071,0,0,1-3.1-5.244,39.289,39.289,0,0,0,2.457-11.222" transform="translate(-855.507 -2555.14)" fill="#f8be9f"/>
          <path id="Trazado_995573" data-name="Trazado 995573" d="M938.895,2796.855c2.834.042,5.671.249,8.5.383,1.331.063,2.777-.024,4.089.152q-.179,1.445-.38,2.887c-3.386.126-6.806.314-10.193.146-.718,4.747-.765,6,1.63,10.244a1.732,1.732,0,0,0-.151.089c-.55.408-.746,1.115-1.332,1.543l-.111-.071c.149-.229.3-.452.453-.678a2.173,2.173,0,0,0,.437-1.767,1.38,1.38,0,0,0-.555-.82,1.718,1.718,0,0,0-1.417.089c-.737.349-1.323.925-2.076,1.273.493.717,1.774,2.176,1.745,3a17.071,17.071,0,0,1-3.1-5.244,39.289,39.289,0,0,0,2.457-11.222" transform="translate(-855.507 -2555.14)" fill="#f59477"/>
          <path id="Trazado_995574" data-name="Trazado 995574" d="M952.075,2937.132c.753-.347,1.339-.924,2.076-1.272a1.717,1.717,0,0,1,1.417-.089,1.378,1.378,0,0,1,.555.819,2.173,2.173,0,0,1-.437,1.768c-.15.227-.3.45-.453.678l.111.071c.586-.428.782-1.135,1.332-1.543a1.732,1.732,0,0,1,.151-.089c1.858,2.66,3.874,5.53,7.292,6.153a26.166,26.166,0,0,0,5.711.017,14.889,14.889,0,0,1,6.216,2.664,16.647,16.647,0,0,1,2.281,2.379c-4.486.329-11.549.865-15.8-.337a7.261,7.261,0,0,1-2.134-.929,28.947,28.947,0,0,1-6.576-7.293c.03-.82-1.252-2.279-1.745-3" transform="translate(-869.793 -2681.947)" fill="#fbb84a"/>
          <path id="Trazado_995575" data-name="Trazado 995575" d="M306.092,35.385c.653.639,3.859.464,4.847.454,13.428-.145,23.482-9.528,33.915-16.713C356.97,10.783,370.38,5.248,385.342,6.964a43.649,43.649,0,0,1,25.3,12.319c12.873,12.593,20.668,32.544,21.605,50.372-5.8,2.223-10.021,5.694-12.58,11.456q-.205.462-.388.933t-.341.951q-.159.48-.294.966t-.245.98q-.11.493-.2.99t-.147,1q-.061.5-.1,1.005t-.048,1.009q-.011.505,0,1.01t.053,1.008q.039.5.1,1t.152,1q.088.5.2.99t.25.978q.137.486.3.965t.346.949A19.431,19.431,0,0,0,429.6,107.485a30.1,30.1,0,0,0,4.7,1.431c.207,2.552.642,5.075.953,7.616a109.585,109.585,0,0,1,.881,12.37c3.045,0,16.739-.335,18.559.267a4.207,4.207,0,0,1,.481,1.884c.158,1.845.058,3.763.059,5.614V147.73c0,2.1-.084,4.249.05,6.344l.1.232c.906,1.982,2.08,3.893,3.048,5.854a106.183,106.183,0,0,1,4.657,11c6.166,17.152,6.318,37.984.063,55.141-6.759,18.543-19.294,32.508-36.709,41.64-1.114.584-2.159,1.341-3.3,1.866-.847.391-2.564.681-3.179,1.29l-.025.136a56.85,56.85,0,0,0-5.867-.257c-3.376-.113-6.76-.266-10.137-.29a4.7,4.7,0,0,1-1.446-.114c1.142-3.077,2.495-6.1,3.755-9.135,1.4-3.374,2.743-6.786,4.2-10.135.7-1.612,2.913-4.754,3.08-6.295-.358-1.643-.18-3.437-.422-5.122-2.139-1.228-4.907-4.23-7.045-5.848q-.043-8.286.013-16.572c-.1-1.071-.02-2.212-.015-3.29l.092-105.4V77.927l.033-10.712c0-2.132.107-4.32-.1-6.441a12.58,12.58,0,0,0-2.619-6.636,11.339,11.339,0,0,0-7.813-4.352c-2.19-.43-7.134-.141-9.642-.146l-22.416-.013-41.005,0H309.049c-2.35,0-4.761-.106-7.105.053A11.268,11.268,0,0,0,296.2,51.6q-.237.163-.466.338t-.45.361q-.22.186-.431.382t-.412.4q-.2.206-.392.422t-.371.441q-.18.225-.349.458t-.326.475q-.158.242-.3.491t-.279.5q-.133.256-.254.518t-.228.529q-.108.267-.2.54t-.175.549q-.081.277-.148.557t-.121.564c-.548,2.9-.255,6.149-.25,9.1l0,15.213-.025,21.5c0,3.44-.222,7.036.006,10.463a5.447,5.447,0,0,0-2.79,2.939,2.6,2.6,0,0,0-.138,1.016q-1.508,3.228-3.167,6.382-.556.773-1.086,1.564a17.506,17.506,0,0,1-1.412,1.717c-1.75,1.856-4.711,6.7-7.132,6.848a1.978,1.978,0,0,1-.36-.007,56.494,56.494,0,0,0-.067,6.872c1.057,0,2.132-.049,3.187,0l3.612-.176.032,1.81.028.669c-.034,1.2.144,2.892-.609,3.867a39.4,39.4,0,0,1-6.7.988q-4.151.168-8.3.007t-8.277-.647c-3.622.208-10.84-1.287-14.241-2.521l.439-2.062c-2.142-.414-5.314-.565-7.151-1.766-1.739-1.138-2.046-3.409-2.429-5.285q-1.188-.335-2.355-.736t-2.31-.867q-1.143-.466-2.258-1t-2.2-1.121q-1.083-.591-2.131-1.243t-2.058-1.36q-1.01-.709-1.979-1.474t-1.893-1.583c-4.7-4.236-8.17-9.65-8.482-16.084a23.639,23.639,0,0,1,2.168-6.141c-.687.252-1.094,1.535-1.393,2.173a48.643,48.643,0,0,1-5.841-10.384,58.889,58.889,0,0,1-3.2-11.757c-1.427-8.567-2.3-28.732,1.024-36.443a.985.985,0,0,1,.074.43,23.34,23.34,0,0,0,.439,4.01l.227.082c-.537-3.66-.618-6.361.818-9.851a18.411,18.411,0,0,1,9.827-10.034l-.085-.193a5.244,5.244,0,0,0-1.053.4l-.062-.042c.187-.779,2.193-2.1,2.859-2.591,7.414-5.409,15.791-8.356,24.787-9.85a78.526,78.526,0,0,1,9.432-.616.77.77,0,0,0,.457-.166c-.1,2.736-.061,5.479-.065,8.216a27.815,27.815,0,0,0,.19,5.9,7.253,7.253,0,0,0,1.734,3.329,7.512,7.512,0,0,0,5.58,2.223c3.293.085,6.6-.044,9.9-.009.123,3.513.054,7.053.063,10.569,3.672-2.936,6.308-6.675,8.768-10.627l16.658.022a80.769,80.769,0,0,0,8.282-.028,5.924,5.924,0,0,0,2.5-.743,7.5,7.5,0,0,0,3.2-4.658" transform="translate(-182.051 -6.077)" fill="#c7cdee"/>
          <path id="Trazado_995576" data-name="Trazado 995576" d="M2480.283,318.505a4.6,4.6,0,0,1,2.452.329,3.179,3.179,0,0,1,1.651,1.864,2.678,2.678,0,0,1,.071.265q.029.134.044.27a2.7,2.7,0,0,1,.017.274,2.735,2.735,0,0,1-.049.545c-.017.09-.039.179-.065.266a2.679,2.679,0,0,1-.092.258,2.636,2.636,0,0,1-.117.248,3.832,3.832,0,0,1-2.51,1.744,4.859,4.859,0,0,1-1.705-.141,3.331,3.331,0,0,1-2.062-1.753,2.689,2.689,0,0,1-.109-.269,2.763,2.763,0,0,1-.08-.279,2.836,2.836,0,0,1-.05-.286,2.794,2.794,0,0,1-.02-.289,2.667,2.667,0,0,1,.01-.29,2.712,2.712,0,0,1,.042-.287,2.789,2.789,0,0,1,.072-.281,2.66,2.66,0,0,1,.1-.272,3.684,3.684,0,0,1,2.4-1.915" transform="translate(-2263.53 -290.956)" fill="#7bb5eb"/>
          <path id="Trazado_995577" data-name="Trazado 995577" d="M959.264,929.065c3.354-.051,5.251-1.955,7.464-4.135q-.04,4.568-.021,9.136c-.5-.2-1.055-.333-1.575-.491a27.2,27.2,0,0,0-2.827-.943c-.572-.162-1.136-.288-1.722-.392-.058-.043-.118-.083-.173-.13-.949-.78-1.007-1.91-1.146-3.045" transform="translate(-876.361 -844.994)" fill="#090c44"/>
          <path id="Trazado_995578" data-name="Trazado 995578" d="M2663.514,1195.237a11.143,11.143,0,0,1,1.522-.048,3.993,3.993,0,0,1,2.587,1.25c1.042,1.172,1.028,2.435.982,3.9a5.707,5.707,0,0,1-2.708,2.61,6.133,6.133,0,0,1-2.491-.166,4.026,4.026,0,0,1-2.352-2.116,3.952,3.952,0,0,1-.131-3,4.407,4.407,0,0,1,2.592-2.427" transform="translate(-2430.738 -1091.886)" fill="#7bb5eb"/>
          <path id="Trazado_995579" data-name="Trazado 995579" d="M2677.984,1208.4a5.644,5.644,0,0,1,1.376.138,2.616,2.616,0,0,1,1.55,1.318,2.648,2.648,0,0,1,.114,2.106,3.026,3.026,0,0,1-1.732,1.752,3.458,3.458,0,0,1-1.7-.117,2.84,2.84,0,0,1-1.6-1.643,2.652,2.652,0,0,1,.094-2.067,3.023,3.023,0,0,1,1.9-1.488" transform="translate(-2444.573 -1103.964)" fill="#c7cdee"/>
          <path id="Trazado_995580" data-name="Trazado 995580" d="M275.938,845.166a5.488,5.488,0,0,1,2.662.5,4.5,4.5,0,0,1,2.356,2.625,4.778,4.778,0,0,1,.276,1.445,4.858,4.858,0,0,1-.008.492,4.784,4.784,0,0,1-.059.489,4.877,4.877,0,0,1-.109.48,4.788,4.788,0,0,1-.362.914,5.347,5.347,0,0,1-3.489,2.606,5.556,5.556,0,0,1-2.652-.439q-.114-.053-.224-.112t-.218-.124q-.107-.064-.211-.135t-.2-.146q-.1-.076-.2-.156t-.187-.167q-.091-.086-.178-.176t-.168-.185q-.082-.1-.158-.194t-.148-.2q-.072-.1-.137-.21t-.126-.216q-.06-.11-.114-.223t-.1-.229q-.048-.116-.09-.234t-.078-.238a4.936,4.936,0,0,1,.441-3.786,5.051,5.051,0,0,1,3.484-2.383" transform="translate(-248.327 -772.113)" fill="#9fd4f8"/>
          <path id="Trazado_995581" data-name="Trazado 995581" d="M2582.138,2402.845l.475.306c-2.578,2.491-10.279,13.966-11.834,17.515a3.424,3.424,0,0,0-.934,1.856c-1.225,1.031-6.312,10.805-7.125,12.812a4.394,4.394,0,0,0-.951,2.031c-1.23,1.383-8.309,19.357-9.5,22.427a4.7,4.7,0,0,1-1.446-.114c1.142-3.076,2.495-6.1,3.755-9.135,1.4-3.374,2.744-6.786,4.2-10.135.7-1.612,2.913-4.755,3.08-6.295a4.8,4.8,0,0,0,1.121-2.162c.895-1.335,7.587-13.395,7.786-14.209a2.853,2.853,0,0,0,.933-1.409c3.23-4.3,5.622-9.452,9.437-13.3Z" transform="translate(-2330.372 -2195.182)" fill="#873f78"/>
          <path id="Trazado_995582" data-name="Trazado 995582" d="M2963.151,2306.628a7.126,7.126,0,0,1,5.645-.912,7.209,7.209,0,0,1,3.411,2.241c1.352,2.108,2.258,4.088,1.647,6.663q-.042.177-.094.353t-.112.348c-.04.115-.083.229-.129.342s-.094.225-.145.335-.1.219-.162.327-.115.214-.177.319-.126.208-.193.31-.136.2-.208.3-.146.194-.223.289-.155.187-.236.278-.165.179-.25.266-.173.171-.263.253-.181.162-.275.24-.189.153-.287.226-.2.144-.3.212-.2.134-.308.2-.2.117-.3.172-.2.107-.307.157-.208.1-.314.141-.213.086-.321.125-.217.075-.327.108-.221.064-.332.091-.223.052-.336.074-.226.041-.34.057-.228.03-.342.04-.229.018-.344.022-.229.006-.344,0-.229-.006-.344-.013-.229-.017-.343-.03-.228-.029-.341-.048-.226-.041-.338-.065-.224-.052-.334-.083-.235-.067-.351-.106-.231-.079-.345-.123-.227-.091-.339-.141-.222-.1-.331-.157-.217-.114-.323-.174-.21-.125-.313-.191-.2-.135-.3-.206-.2-.145-.292-.221-.189-.155-.281-.236-.181-.164-.269-.25-.172-.173-.255-.263-.164-.182-.242-.276-.154-.189-.227-.287-.144-.2-.213-.3-.134-.2-.2-.31-.124-.211-.181-.319a8.481,8.481,0,0,1-.72-1.8,8.505,8.505,0,0,1-.292-1.917,3.907,3.907,0,0,0,.141-.951v-.136q.464-1.434.892-2.88a28.018,28.018,0,0,1,2.4-2.1" transform="translate(-2703.927 -2106.221)" fill="#f67a86"/>
          <path id="Trazado_995583" data-name="Trazado 995583" d="M3017.087,2357.242a4.5,4.5,0,0,1,1.3.135,2.564,2.564,0,0,1,.243.092q.119.052.232.116c.075.043.149.089.22.138s.139.1.205.159.129.116.189.179.117.128.17.2a2.579,2.579,0,0,1,.15.212c.047.073.089.148.128.226a2.709,2.709,0,0,1,.1,2.077,3.081,3.081,0,0,1-1.879,1.841,3.958,3.958,0,0,1-1.228-.067q-.13-.036-.257-.085a2.668,2.668,0,0,1-.247-.111,2.617,2.617,0,0,1-.655-.476,2.675,2.675,0,0,1-.182-.2q-.085-.105-.16-.219a2.623,2.623,0,0,1-.137-.234,2.736,2.736,0,0,1-.134-2.071,3.152,3.152,0,0,1,1.94-1.91" transform="translate(-2754.437 -2153.52)" fill="#fefefe"/>
          <path id="Trazado_995584" data-name="Trazado 995584" d="M2591.74,2407.876c.27,1.163,2.065,2.307,2.9,3.12,6.791,6.628,8.787,14.385,5.708,23.373a15.925,15.925,0,0,0-.016,2.177,4.8,4.8,0,0,1-1.121,2.162c-.358-1.643-.18-3.437-.422-5.122-2.139-1.228-4.907-4.23-7.045-5.848q-.042-8.286.013-16.572c-.1-1.071-.02-2.211-.014-3.29" transform="translate(-2367.719 -2199.778)" fill="#6fb0a6"/>
          <path id="Trazado_995585" data-name="Trazado 995585" d="M2602.54,2471.194a107.924,107.924,0,0,0-3.332-12.962c-.638-1.922-3.3-7.828-3.395-9.191,2.991,4.327,5.4,11.949,6.747,17.1.428,1.644.73,4.424,1.54,5.832a15.929,15.929,0,0,0-.016,2.178,4.8,4.8,0,0,1-1.122,2.162c-.358-1.643-.179-3.437-.422-5.122" transform="translate(-2371.472 -2237.385)" fill="#126374"/>
          <path id="Trazado_995586" data-name="Trazado 995586" d="M2591.952,2445.948l.305.267c.1,1.363,2.756,7.269,3.395,9.191a107.959,107.959,0,0,1,3.333,12.962c-2.139-1.228-4.907-4.23-7.045-5.848q-.042-8.286.013-16.572" transform="translate(-2367.917 -2234.56)" fill="#6fb0a6"/>
          <path id="Trazado_995587" data-name="Trazado 995587" d="M2666.524,2220.833c4.458,2.854,9.733,6.94,10.966,12.4,1.057,4.681-.91,9.252-1.912,13.749l.044,3.068a2.85,2.85,0,0,1-.933,1.409,25.339,25.339,0,0,0-.468-5.249c-4.675-5.621-10.325-9.931-9.58-18.018a24.146,24.146,0,0,1,1.882-7.36" transform="translate(-2434.292 -2028.9)" fill="#6fb0a6"/>
          <path id="Trazado_995588" data-name="Trazado 995588" d="M2707.137,2276.315c2.154,3.349,4.983,11.861,6.025,15.9.381,1.475.622,4.23,1.3,5.451l.044,3.068a2.853,2.853,0,0,1-.933,1.409,25.343,25.343,0,0,0-.468-5.249q-.539-3.14-1.314-6.23t-1.783-6.113c-.933-2.741-2.105-5.45-2.871-8.24" transform="translate(-2473.175 -2079.587)" fill="#126374"/>
          <path id="Trazado_995589" data-name="Trazado 995589" d="M2678.679,2701.813c5.8-4.181,11.491-8.153,19.007-6.942,5.188.835,9.947,3.636,14.159,6.667-6.581,4.4-13.206,7.1-21.218,5.474a62.912,62.912,0,0,1-11.414-3.652c-.572.206-1.144.432-1.731.59a4.394,4.394,0,0,1,.951-2.031Z" transform="translate(-2446.083 -2461.768)" fill="#6fb0a6"/>
          <path id="Trazado_995590" data-name="Trazado 995590" d="M2678.679,2761.963c1.92-.26,3.822-.627,5.75-.838a131.447,131.447,0,0,1,15.128-.63,46.961,46.961,0,0,1,9.63.761,69.084,69.084,0,0,1-8.016-.161c-5.221-.09-17.5.1-21.957,2.415-.572.206-1.144.432-1.731.59a4.392,4.392,0,0,1,.951-2.03Z" transform="translate(-2446.083 -2521.918)" fill="#126374"/>
          <path id="Trazado_995591" data-name="Trazado 995591" d="M2775,2496.91c4.869-4.795,9.224-9.177,16.515-9.129,5.135.033,9.569,1.5,14.2,3.557-3.777,4.917-7.6,9.009-14.073,9.846-5.95.769-11.591-1.646-17.326-2.668-1.12.544-2.236,1.128-3.388,1.6a3.423,3.423,0,0,1,.934-1.856Z" transform="translate(-2531.447 -2272.776)" fill="#6fb0a6"/>
        </g>
      </g>
      <g id="Grupo_1160129" data-name="Grupo 1160129" transform="translate(239.474 219.895)">
        <g id="Grupo_1160128" data-name="Grupo 1160128" clip-path="url(#clip-path-7)">
          <rect id="Rectángulo_410023" data-name="Rectángulo 410023" width="29.671" height="11.849" transform="matrix(0.988, -0.156, 0.156, 0.988, -1.145, 0.18)" fill="url(#linear-gradient-3)"/>
        </g>
      </g>
      <g id="Grupo_1160131" data-name="Grupo 1160131" transform="translate(0 0.003)">
        <g id="Grupo_1160130" data-name="Grupo 1160130" clip-path="url(#clip-path-2)">
          <path id="Trazado_995593" data-name="Trazado 995593" d="M2849.9,1940.783c-.651-3.844-1.553-7.6-2.515-11.373-.641-2.515-1.373-5.04-1.809-7.6-1.357-7.962,1.348-16.066,5.923-22.562a52.394,52.394,0,0,1,6.82,11.056c2.858,6.728,2.518,10.763-.158,17.356a21.072,21.072,0,0,1,1.843-2.218c5.087-4.995,12.656-5.441,19.377-5.4-2.4,6.868-5.9,12.438-11.772,16.8a7.21,7.21,0,0,0-3.411-2.241,7.125,7.125,0,0,0-5.644.912,28.059,28.059,0,0,0-2.4,2.1q-.428,1.445-.892,2.88v.136a3.915,3.915,0,0,1-.141.951c-1.174.528-2.34,1.054-3.549,1.5l-.476-.306-1,.183Z" transform="translate(-2599.327 -1735.109)" fill="#6fb0a6"/>
          <path id="Trazado_995594" data-name="Trazado 995594" d="M2996.716,2187.45c3.174-2.825,12.286-8.979,16.224-10.517a78.434,78.434,0,0,1-7.658,5.2c-2.891,1.945-5.612,4.066-8.375,6.182-.471-.07-.639.1-1.053.321a7.271,7.271,0,0,1,.962-.924Z" transform="translate(-2736.939 -1988.794)" fill="#126374"/>
          <path id="Trazado_995595" data-name="Trazado 995595" d="M2921.157,2298.623l.1.263a7.27,7.27,0,0,0-.962.924c.414-.218.582-.391,1.053-.321a2.518,2.518,0,0,0-.743.885,28.178,28.178,0,0,0-2.4,2.1q-.428,1.445-.892,2.88v.136a3.9,3.9,0,0,1-.141.951c-1.174.528-2.34,1.054-3.549,1.5l-.476-.306.06-1.493a89.7,89.7,0,0,1,7.95-7.515" transform="translate(-2661.381 -2099.967)" fill="#2e5ca0"/>
          <path id="Trazado_995596" data-name="Trazado 995596" d="M2923.929,2344.5a16.736,16.736,0,0,1,1.564-1.334q-.428,1.445-.892,2.88v.136a17.582,17.582,0,0,0-3.476,1.213c.9-1,1.849-1.948,2.805-2.9" transform="translate(-2668.669 -2140.661)" fill="#6fb0a6"/>
          <path id="Trazado_995597" data-name="Trazado 995597" d="M2900.849,1978.156c.941,2.353.718,5.474.773,8a244.254,244.254,0,0,1-1.053,27.212l-.06,1.493-1,.183-.2-2.172c1.392-7.85,1.523-17.345,1.537-25.4.006-3.1-.137-6.216,0-9.318" transform="translate(-2648.743 -1807.196)" fill="#126374"/>
          <path id="Trazado_995598" data-name="Trazado 995598" d="M2048.051,71.039a15.073,15.073,0,0,1,10.721,2.681q.323.228.635.471t.611.5q.3.258.585.531t.559.559q.273.286.531.585t.5.611q.244.312.471.635t.439.657q.212.334.407.678t.373.7q.178.353.338.714t.3.73q.143.369.267.744t.23.756q.106.381.193.766t.155.775a16.063,16.063,0,0,1-2.657,11.68,15.025,15.025,0,0,1-10.077,6.149q-.376.058-.753.1t-.757.06q-.379.021-.759.022t-.759-.015q-.379-.017-.758-.053t-.754-.09q-.376-.054-.749-.128t-.741-.164q-.369-.092-.732-.2t-.721-.237q-.358-.127-.709-.272t-.695-.308q-.344-.162-.678-.341t-.661-.375q-.326-.2-.641-.407t-.62-.438q-.313-.23-.615-.474t-.591-.5q-.29-.259-.566-.532t-.539-.56q-.262-.286-.51-.586t-.481-.61q-.233-.311-.451-.633t-.419-.654q-.2-.332-.386-.674t-.353-.692q-.168-.35-.318-.708t-.283-.724q-.133-.365-.247-.737t-.211-.748q-.1-.376-.173-.757t-.136-.765a15.252,15.252,0,0,1,2.8-11.532q.231-.312.476-.612t.506-.587q.26-.287.534-.561t.562-.534q.287-.26.587-.505t.612-.476q.312-.23.635-.445t.656-.413q.333-.2.676-.38t.694-.346q.351-.164.71-.311t.725-.275q.365-.129.737-.239t.748-.2q.376-.092.758-.165t.764-.127" transform="translate(-1858.835 -64.768)" fill="#4276c6"/>
          <path id="Trazado_995599" data-name="Trazado 995599" d="M2172.606,144.065c1.209-.054,2.433-.013,3.643-.011l-.009,3.43-2.325,0-.016,3.061,2.5-.017.006,3.746-2.64.008c0,1.457.252,10.938-.2,11.572l-4.034,0-.021-11.546-2.454-.007,0-3.753,2.364-.038c-.008-1.515-.2-3.411.6-4.771a3.782,3.782,0,0,1,2.583-1.673" transform="translate(-1979.772 -131.59)" fill="#fefefe"/>
          <path id="Trazado_995600" data-name="Trazado 995600" d="M241.233,314.789c5.29-1.637,9.809-1.46,14.754,1.168a17.7,17.7,0,0,1,8.506,10.526,18.676,18.676,0,0,1-1.191,13.948q-.2.373-.415.736t-.45.714q-.234.351-.485.691t-.519.666q-.268.327-.551.64t-.582.612q-.3.3-.611.583t-.639.552q-.327.268-.666.52t-.691.486q-.351.234-.714.451t-.735.416q-.373.2-.755.379t-.773.341q-.391.161-.788.3t-.8.264a17.785,17.785,0,0,1-13.417-1.312c-4.98-2.731-7.613-7.506-9.122-12.8-.537-3.66-.618-6.361.818-9.851a18.411,18.411,0,0,1,9.827-10.034" transform="translate(-210.333 -286.619)" fill="#fbb84a"/>
          <path id="Trazado_995601" data-name="Trazado 995601" d="M314.394,409.892c2.734-.095,5.493-.028,8.23-.041,2.815-.014,5.659-.106,8.472-.021a2.68,2.68,0,0,1,2.213.837,1.117,1.117,0,0,1,.259.926c-1.057,1.662-5.163,4.213-6.938,5.645-2.064,1.418-3.789,3.562-6.155,4.5-2.265-1.117-6.22-4.615-8.555-6.348-.04-1.283-.222-2.847.409-4.015a3.244,3.244,0,0,1,2.065-1.487" transform="translate(-284.913 -374.379)" fill="#fefefe"/>
          <path id="Trazado_995602" data-name="Trazado 995602" d="M333.425,464.308a.468.468,0,0,1,.275.4c.156.722.076,10.189-.017,11.266a3.778,3.778,0,0,1-.451,1.661,2.708,2.708,0,0,1-1.666,1.093c-2.184.441-4.858.118-7.107.127-3.143.013-6.394.211-9.524,0a4.155,4.155,0,0,1-2.063-.447c-1.467-1.19-1.186-3.419-1.157-5.091q.017-2.741-.035-5.483c1.67,1.081,6.83,5.656,8.445,5.736a3.968,3.968,0,0,0,2.14-.711,44.19,44.19,0,0,0,4.215-3.23q3.442-2.7,6.943-5.324" transform="translate(-284.74 -424.181)" fill="#fefefe"/>
          <path id="Trazado_995603" data-name="Trazado 995603" d="M2735.339,1420.212c3.045,0,16.739-.335,18.559.267a4.206,4.206,0,0,1,.481,1.884c.158,1.845.058,3.763.059,5.614v11.062c0,2.1-.084,4.249.051,6.344-.132,2.264.614,6.861-.636,8.615a.417.417,0,0,1-.073-.01c-.069-.022-.135-.053-.2-.079l0,.236c-2.276.535-10.252.178-13.069.172-7-.016-14.1.236-21.087-.036a12.154,12.154,0,0,1-2.628-.317,2.286,2.286,0,0,1-.753-1.718c-.117-1.852,0-3.777.01-5.634q.031-4.938.005-9.876l-.037-9.561a48.95,48.95,0,0,1,.035-4.97,2.391,2.391,0,0,1,.69-1.382,2.477,2.477,0,0,1,1.529-.543,43.918,43.918,0,0,1,5.7-.08Z" transform="translate(-2481.249 -1297.387)" fill="#ea5f70"/>
          <path id="Trazado_995604" data-name="Trazado 995604" d="M3075.078,1467.541a4.012,4.012,0,0,1,1.248.093,2.529,2.529,0,0,1,1.442,1.21,2,2,0,0,1,.1,1.683,2.514,2.514,0,0,1-1.581,1.389,5.569,5.569,0,0,1-1.087-.015,2.356,2.356,0,0,1-1.513-1.029,2.033,2.033,0,0,1-.22-1.687,2.7,2.7,0,0,1,1.61-1.644" transform="translate(-2807.764 -1340.705)" fill="#fefefe"/>
          <path id="Trazado_995605" data-name="Trazado 995605" d="M2798.892,1478.669c.059-.006.118-.015.177-.019a12.135,12.135,0,0,1,8.435,2.772q.243.206.475.424t.454.447q.222.229.432.469t.408.489q.2.25.384.509t.358.527q.172.268.331.544t.3.56q.145.284.276.574t.248.587q.116.3.218.6t.188.609q.087.307.158.617t.127.624q.056.314.1.63t.065.634a13.562,13.562,0,0,1-3.339,9.764,11.907,11.907,0,0,1-8.458,4,13.041,13.041,0,0,1-8.427-2.563,12.763,12.763,0,0,1,7.089-22.794" transform="translate(-2546.018 -1350.84)" fill="#fefefe"/>
          <path id="Trazado_995606" data-name="Trazado 995606" d="M2826.255,1507.394a10.129,10.129,0,0,1,6.234,1.431,10.345,10.345,0,0,1,4.808,6.378,10.129,10.129,0,0,1-1.4,7.579,11.185,11.185,0,0,1-7.169,4.928,10.174,10.174,0,0,1-7.579-1.909q-.2-.153-.4-.316t-.385-.335q-.188-.172-.367-.354t-.349-.372q-.17-.19-.331-.388t-.311-.4q-.15-.206-.29-.419t-.27-.433q-.13-.22-.248-.446t-.225-.458q-.107-.232-.2-.468t-.179-.478q-.083-.241-.155-.486t-.131-.493q-.059-.248-.106-.5t-.081-.5a10.551,10.551,0,0,1,2.112-7.674,10.238,10.238,0,0,1,7.021-3.878" transform="translate(-2573.581 -1377.081)" fill="#f67a86"/>
          <path id="Trazado_995607" data-name="Trazado 995607" d="M2865.049,1550.76a7.057,7.057,0,0,1,4.217,1q.14.088.276.184t.266.2q.13.1.255.211t.245.224q.119.115.233.235t.22.248q.107.126.208.258c.067.088.132.177.194.268s.122.184.18.278.113.19.166.287.1.2.151.295.093.2.136.3.083.2.121.309.072.209.1.314.062.212.089.319.051.215.072.323.036.215.051.324.026.217.035.326.015.218.019.327,0,.218,0,.328-.006.219-.014.327-.017.218-.03.326-.028.217-.046.325-.038.215-.062.322-.049.213-.078.318-.06.21-.093.314-.07.207-.109.309-.08.2-.124.3-.09.2-.139.3-.1.194-.153.289-.109.189-.167.282-.118.184-.181.273a6.385,6.385,0,0,1-4.418,2.6,6.814,6.814,0,0,1-3.765-.687,6.495,6.495,0,0,1-2.48-8.912,7.146,7.146,0,0,1,4.618-3.245" transform="translate(-2612.425 -1416.731)" fill="#fefefe"/>
          <path id="Trazado_995608" data-name="Trazado 995608" d="M2890.06,1577.637a4.445,4.445,0,0,1,2.443.52,4.181,4.181,0,0,1,1.009.8,4.185,4.185,0,0,1,.276.329,4.085,4.085,0,0,1,.241.356,4.239,4.239,0,0,1,.2.379,4.184,4.184,0,0,1,.284.81q.047.2.075.4t.035.4q.007.2-.005.4t-.046.4q-.033.2-.085.4a4.035,4.035,0,0,1-.124.385q-.072.189-.162.37t-.2.352a4.344,4.344,0,0,1-2.867,1.887,4.526,4.526,0,0,1-2.053-.335,4.2,4.2,0,0,1-.383-.193,4.113,4.113,0,0,1-1-.8,4.132,4.132,0,0,1-.509-.69,4.135,4.135,0,0,1-.354-.781q-.064-.19-.109-.386t-.07-.395a4.017,4.017,0,0,1-.021-.8q.015-.2.049-.4a3.924,3.924,0,0,1,.089-.391,3.855,3.855,0,0,1,.127-.38,3.922,3.922,0,0,1,.164-.366,4.544,4.544,0,0,1,2.993-2.268" transform="translate(-2637.154 -1441.286)" fill="#f67a86"/>
          <path id="Trazado_995609" data-name="Trazado 995609" d="M311.74,611.95a25.037,25.037,0,0,1,3.212-3.256,34.111,34.111,0,0,1,7.428-4.156c7.362-3.286,12.934-5.5,18.2-12.093a37.3,37.3,0,0,0,7.377-14.4,31.477,31.477,0,0,0,.442-5.212,12.621,12.621,0,0,1,4.094-8.567,15.251,15.251,0,0,1,10.954-3.8c3.955.183,9.926,2.739,12.585,5.711a11.013,11.013,0,0,1,2.846,7.94,8.494,8.494,0,0,1-3.029,5.909,18.04,18.04,0,0,0-.346,3.465,19.436,19.436,0,0,1-2.321,8.458c-2.213,2.18-4.11,4.084-7.464,4.135-3.751-.447-5.9-1.737-8.732-4.176-.369,2.469-.6,4.967-1.157,7.4a6.064,6.064,0,0,1-1.841.458c-1.181.086-2.341.274-3.51.461-4.378,1.006-8.628,2.152-11.17,6.161A18.509,18.509,0,0,0,337,612.814q-.681,3.8-1.134,7.632t-.674,7.686q-.221,3.853-.211,7.713t.251,7.712q-1.188-.335-2.355-.736t-2.31-.867q-1.143-.466-2.258-1t-2.2-1.121q-1.083-.591-2.132-1.243t-2.058-1.361q-1.01-.709-1.979-1.474t-1.893-1.583c-4.7-4.236-8.17-9.65-8.482-16.084a23.638,23.638,0,0,1,2.168-6.141" transform="translate(-282.818 -512.008)" fill="#090c44"/>
          <path id="Trazado_995610" data-name="Trazado 995610" d="M765.24,690.968a32.432,32.432,0,0,0,3.811-.035,20.876,20.876,0,0,0,14.51-7.455,12.829,12.829,0,0,1,3.371,8.944,18.033,18.033,0,0,0-.346,3.465,19.435,19.435,0,0,1-2.321,8.458c-2.213,2.18-4.11,4.084-7.464,4.135-3.751-.447-5.9-1.737-8.732-4.176a14.286,14.286,0,0,1-3.336-6.289,5.776,5.776,0,0,1-4.117-1.437,3.234,3.234,0,0,1-1.075-2.394,2.685,2.685,0,0,1,.966-2.019,2.259,2.259,0,0,1,.182-.134q.095-.062.195-.116t.205-.1a2.186,2.186,0,0,1,.214-.075,2.213,2.213,0,0,1,.22-.054q.111-.021.224-.032a2.2,2.2,0,0,1,.226-.009q.113,0,.226.013a4.065,4.065,0,0,1,2.688,1.922Z" transform="translate(-693.898 -624.409)" fill="#f8be9f"/>
          <path id="Trazado_995611" data-name="Trazado 995611" d="M984.009,874.912l2.207.014-1.353,2.061c-.091-.2-.183-.408-.284-.607-.271-.536-.544-1.129-1.122-1.319l-.059-.1Z" transform="translate(-898.409 -799.299)" fill="#f5e4e8"/>
          <path id="Trazado_995612" data-name="Trazado 995612" d="M1018.712,803.788a1.593,1.593,0,0,1,.224.067,1.644,1.644,0,0,1,.929,1.122,1.918,1.918,0,0,1-.625,1.592,2.765,2.765,0,0,1-.9-.413,1.24,1.24,0,0,1-.492-.973,1.956,1.956,0,0,1,.864-1.395" transform="translate(-929.882 -734.322)" fill="#090c44"/>
          <path id="Trazado_995613" data-name="Trazado 995613" d="M909.235,803.366a1.843,1.843,0,0,1,.657.321,1.3,1.3,0,0,1,.522,1.056,1.767,1.767,0,0,1-.848,1.47,1.222,1.222,0,0,1-.634-.349,1.513,1.513,0,0,1-.428-1.157,1.728,1.728,0,0,1,.732-1.341" transform="translate(-829.985 -733.936)" fill="#090c44"/>
          <path id="Trazado_995614" data-name="Trazado 995614" d="M1008.109,763.7a3.185,3.185,0,0,1,2.1.382,1.775,1.775,0,0,1,.931,1.042l-.23.126-.6-.239c-1.221-.378-3.195.03-3.734-.235a1.451,1.451,0,0,1,.1-.266,2.406,2.406,0,0,1,1.433-.81" transform="translate(-919.582 -697.677)" fill="#090c44"/>
          <path id="Trazado_995615" data-name="Trazado 995615" d="M967.657,817.609c-.416-.031-1.2.016-1.489-.258.111-1.369,1.671-1.94,1.675-3.394a9.673,9.673,0,0,0-.331-1.745l.17-.078c.738.874.713,3.928.634,5.046-.009.127-.031.254-.048.38Z" transform="translate(-882.668 -741.945)" fill="#f59477"/>
          <path id="Trazado_995616" data-name="Trazado 995616" d="M783.978,797.143a2.56,2.56,0,0,1,.429.12,2.478,2.478,0,0,1,1.323,1.609,1.661,1.661,0,0,1,.087,1.182l-.327.091a5.763,5.763,0,0,1-2.04-.86.839.839,0,0,1-.306-.6,2.461,2.461,0,0,1,.834-1.543" transform="translate(-715.462 -728.251)" fill="#f59477"/>
          <path id="Trazado_995617" data-name="Trazado 995617" d="M916.115,891.036a.492.492,0,0,1,.1.105,11.081,11.081,0,0,0,.486,1.091c2.251,3.571,3.447,1.459,5.53,1.934-.049.443-.189.511-.484.831a5.057,5.057,0,0,1-1.661.618,4.573,4.573,0,0,1-3.376-.982,2.712,2.712,0,0,1-1.136-1.833,2.19,2.19,0,0,1,.539-1.764" transform="translate(-836.432 -814.029)" fill="#fefefe"/>
          <path id="Trazado_995618" data-name="Trazado 995618" d="M931.258,880.3a3.066,3.066,0,0,1-2.073.445c-1.7-.288-2.329-1.761-3.243-3.028.027-.2-.011-.305.162-.441,1.115-.876,3.531-.785,4.863-.767.577.191.851.784,1.122,1.32.1.2.193.4.284.607a13.875,13.875,0,0,1-1.114,1.864" transform="translate(-845.918 -800.744)" fill="#fefefe"/>
          <path id="Trazado_995619" data-name="Trazado 995619" d="M625.617,924.458c2.829,2.44,4.981,3.729,8.732,4.176.139,1.135.2,2.265,1.146,3.045.056.046.116.086.173.129.585.1,1.15.23,1.722.392a27.2,27.2,0,0,1,2.827.943c.52.158,1.071.29,1.575.491,4.653,1.237,8.511,4.835,10.884,8.923,2.77,4.772,3.693,9.989,4.82,15.289q-1.508,3.228-3.166,6.382-.556.773-1.086,1.564a17.51,17.51,0,0,1-1.412,1.717c-1.75,1.856-4.711,6.7-7.132,6.848a1.991,1.991,0,0,1-.36-.007,56.481,56.481,0,0,0-.067,6.872c1.057,0,2.132-.049,3.187,0l3.612-.176.032,1.81.028.669c-.034,1.2.144,2.892-.608,3.867a39.408,39.408,0,0,1-6.7.988q-4.151.168-8.3.007t-8.277-.647c-3.621.208-10.84-1.287-14.241-2.521l.439-2.062c-2.142-.414-5.314-.565-7.151-1.766-1.739-1.138-2.046-3.409-2.429-5.285q-.242-3.852-.251-7.711t.211-7.713q.222-3.853.674-7.686t1.134-7.632a18.513,18.513,0,0,1,2.309-6.427c2.542-4.009,6.792-5.156,11.17-6.161,1.169-.187,2.329-.375,3.51-.461a6.063,6.063,0,0,0,1.841-.458c.559-2.435.788-4.934,1.157-7.4" transform="translate(-551.446 -844.563)" fill="#ed6a26"/>
          <path id="Trazado_995620" data-name="Trazado 995620" d="M1095.608,1170.981c4.37,5.447,6.411,13.157,7.11,20.029a17.535,17.535,0,0,1-1.412,1.717,62.187,62.187,0,0,0-5.7-21.746" transform="translate(-1000.921 -1069.78)" fill="#d33c01"/>
          <path id="Trazado_995621" data-name="Trazado 995621" d="M789.435,924.458c2.829,2.44,4.981,3.729,8.732,4.176.139,1.135.2,2.265,1.146,3.045.056.046.116.086.173.129.585.1,1.15.23,1.722.392a27.2,27.2,0,0,1,2.827.943l.007.168c.364,7.386,2.319,9.707-3.331,16.027a10.922,10.922,0,0,1-1.667,1.6c-.558-.891-1.07-1.8-1.571-2.722.356,1.97,1.647,9.081,1.258,10.754-.679-.615-1.013-5.851-1.134-7-1.773-1.3-3.78-2.28-5.671-3.4a78.233,78.233,0,0,1-7.171-4.836,3.681,3.681,0,0,1-.614-1.879c-.224-1.731-.491-3.457-.689-5.191a23.969,23.969,0,0,0-.523-3.884c1.169-.187,2.329-.375,3.51-.461a6.063,6.063,0,0,0,1.841-.458c.559-2.435.788-4.934,1.157-7.4" transform="translate(-715.264 -844.563)" fill="#f19619"/>
          <path id="Trazado_995622" data-name="Trazado 995622" d="M826.537,924.458c2.829,2.44,4.981,3.729,8.732,4.176.139,1.135.2,2.265,1.146,3.045.056.046.116.086.173.129.585.1,1.15.23,1.722.392-1.546,4.409-2.8,8.944-4.177,13.409q-3.261-4.274-6.713-8.4a56.906,56.906,0,0,1-3.88-4.895,6.061,6.061,0,0,0,1.841-.458c.559-2.435.788-4.934,1.157-7.4" transform="translate(-752.365 -844.563)" fill="#f8be9f"/>
          <path id="Trazado_995623" data-name="Trazado 995623" d="M846,924.458c2.829,2.44,4.981,3.729,8.732,4.176.139,1.135.2,2.265,1.146,3.045.056.046.116.086.173.129-2.326.293-4.547-.858-6.566-1.859a28.81,28.81,0,0,0-4.642,1.911c.559-2.435.788-4.934,1.157-7.4" transform="translate(-771.828 -844.563)" fill="#f59477"/>
          <path id="Trazado_995624" data-name="Trazado 995624" d="M605.631,1166.407c.013.056.027.111.039.167.477,2.317-.106,5.612-.142,8.028-.084,5.559.37,20.945,5.073,24.215,4.472,3.109,20.724,4.06,26.435,3.787q.1-4.266.323-8.528c-7.067-1.365-14.29-2.369-21.253-4.205q1.366-7.578,2.474-15.2a43.251,43.251,0,0,0,.765-5.233c.474-.66.234-1.335.569-1.98a2.268,2.268,0,0,1-.12,1.068l.207.214c-.467,6.689-1.311,13.35-1.764,20.037,5.4.988,10.775,2.178,16.165,3.24,2.554.5,5.5.666,7.924,1.58a3.7,3.7,0,0,1,1.612,1.292c.058.085.11.175.165.263-1.628-.365-3.3-.718-4.955-.93-.03,2.805-.162,5.644-.083,8.447,2.489-.176,6.135.021,8.391-.407l3.612-.176.032,1.81.028.669c-.034,1.2.144,2.892-.608,3.867a39.432,39.432,0,0,1-6.7.988q-4.151.168-8.3.007t-8.277-.647c-3.621.208-10.84-1.287-14.241-2.521l.439-2.062c-2.142-.414-5.315-.565-7.151-1.766-1.739-1.138-2.046-3.409-2.429-5.285q-.242-3.852-.252-7.712t.211-7.713q.222-3.853.674-7.686t1.134-7.632" transform="translate(-551.445 -1065.602)" fill="#d33c01"/>
          <path id="Trazado_995625" data-name="Trazado 995625" d="M900.936,1600.212l.028.669c-.034,1.2.144,2.892-.608,3.867a39.419,39.419,0,0,1-6.7.988q-4.151.168-8.3.007t-8.277-.647c1.632-1.015,11.613-2.552,14-3.013,1.5-.29,2.7-1.234,4.16-1.522a33.417,33.417,0,0,1,5.7-.35" transform="translate(-801.279 -1461.916)" fill="#ed6a26"/>
          <path id="Trazado_995626" data-name="Trazado 995626" d="M1089.4,568.868c-.228-3.427-.01-7.023-.006-10.463l.024-21.5,0-15.213c-.005-2.951-.3-6.2.25-9.1q.053-.283.121-.564t.149-.557q.081-.277.175-.549t.2-.54q.107-.268.228-.529t.254-.518q.133-.256.279-.5t.3-.491q.157-.242.326-.475t.349-.459q.18-.225.371-.441t.392-.422q.2-.207.412-.4t.431-.382q.22-.186.449-.361t.467-.338a11.268,11.268,0,0,1,5.741-1.913c2.344-.158,4.755-.051,7.105-.053h13.557l41.005,0,22.416.013c2.508,0,7.451-.284,9.642.146a11.339,11.339,0,0,1,7.813,4.352,12.578,12.578,0,0,1,2.619,6.636c.2,2.121.1,4.309.1,6.441l-.033,10.712,0,30.847-.092,105.4c-.005,1.079-.086,2.219.015,3.29q-.056,8.286-.013,16.572c2.138,1.618,4.906,4.62,7.045,5.848.243,1.685.064,3.479.422,5.122-.167,1.54-2.378,4.683-3.08,6.295-1.458,3.349-2.8,6.762-4.2,10.135-1.261,3.031-2.614,6.058-3.755,9.135-1.8-.317-3.678.008-5.489-.294a17.184,17.184,0,0,1-4.493,1.26c-5.1.383-10.414.156-15.54.169l-29.023.014-27.365,0c-4.97,0-10.083.249-15.031-.119a16.563,16.563,0,0,1-4.429-1.163c-1.31.425-11.084.084-12.83,0a14.887,14.887,0,0,0-6.216-2.664q-.308-.37-.609-.744c-3.644-4.542-4.442-10.162-3.831-15.815q.2-1.442.38-2.887l1.869.041c1.807-7.8,2.965-15.761,4.551-23.6q1.508-7.343,2.88-14.712a78.195,78.195,0,0,0,1.534-8.674c.262-3.4-.4-7.184-.7-10.594q-.949-10.948-2.474-21.832a139.765,139.765,0,0,0-2.313-14.378,21.715,21.715,0,0,0-2.251-5.666c.753-.975.575-2.672.609-3.867l-.028-.669-.032-1.81-3.612.176c-1.055-.052-2.13-.007-3.187,0a56.557,56.557,0,0,1,.067-6.872,1.988,1.988,0,0,0,.361.007c2.421-.144,5.382-4.992,7.132-6.848a17.506,17.506,0,0,0,1.412-1.717q.53-.791,1.086-1.564,1.658-3.154,3.166-6.382a2.6,2.6,0,0,1,.138-1.016,5.447,5.447,0,0,1,2.79-2.939" transform="translate(-980.42 -459.54)" fill="#fefefe"/>
          <path id="Trazado_995627" data-name="Trazado 995627" d="M1566.229,961.043a3.666,3.666,0,0,1-.3-1.984,2.269,2.269,0,0,1,.955-1.694,2.526,2.526,0,0,1,1.65-.143c.235.03.13-.018.3.2a8.5,8.5,0,0,1,.011,1.715l-.819.752a1.466,1.466,0,0,0,.452.471,12.9,12.9,0,0,1-2.248.679" transform="translate(-1430.57 -874.434)" fill="#7bb5eb"/>
          <path id="Trazado_995628" data-name="Trazado 995628" d="M1417.163,943.372a3.636,3.636,0,0,1,.814.167c.709.333.745,3.084,1.784,3.913a3.688,3.688,0,0,0,2.758.509c2.622-.452,1.66-2.974,2.825-4.291a.73.73,0,0,1,.6-.341l.213.215a4.947,4.947,0,0,1,.172,1.965,5.379,5.379,0,0,1-3.326,3.784,4.44,4.44,0,0,1-.441.11,4.48,4.48,0,0,1-.905.082,4.458,4.458,0,0,1-.9-.1q-.222-.049-.438-.12a4.442,4.442,0,0,1-.83-.371,5.241,5.241,0,0,1-2.436-3.082,3.282,3.282,0,0,1,.113-2.437" transform="translate(-1294.421 -861.804)" fill="#9fd4f8"/>
          <path id="Trazado_995629" data-name="Trazado 995629" d="M1419.287,1098.978c1.9-.035,6.146-.444,7.736.145a1.858,1.858,0,0,1,1.121,1.013,2.354,2.354,0,0,1-.109,1.791c-.244.37-.456.377-.857.486-1.768.044-7.465.546-8.6-.716a1.341,1.341,0,0,1-.358-1.182,2.234,2.234,0,0,1,1.065-1.537" transform="translate(-1295.636 -1003.844)" fill="#c7cdee"/>
          <path id="Trazado_995630" data-name="Trazado 995630" d="M1563.385,1071.262a5.285,5.285,0,0,1,3.2.438,4.892,4.892,0,0,1,2.172,3.288,11.33,11.33,0,0,1-.32,1.112,4.455,4.455,0,0,1-5.132,2.6,3.851,3.851,0,0,1-2.428-1.915,3.723,3.723,0,0,1-.285-.706,3.738,3.738,0,0,1-.087-.371,3.647,3.647,0,0,1-.049-.378,3.742,3.742,0,0,1-.01-.381,3.718,3.718,0,0,1,.2-1.12,4.445,4.445,0,0,1,2.737-2.563" transform="translate(-1425.583 -978.628)" fill="#1497be"/>
          <path id="Trazado_995631" data-name="Trazado 995631" d="M1422.059,799.743a5.471,5.471,0,0,1,2.339.264,4.141,4.141,0,0,1,2.4,2.173,3.949,3.949,0,0,1,.185,2.779,4.01,4.01,0,0,1-.137.383,5.4,5.4,0,0,1-3.255,2.82,4.235,4.235,0,0,1-3.025-.518,4.411,4.411,0,0,1-.368-.246,4.322,4.322,0,0,1-.651-.6,4.4,4.4,0,0,1-.277-.345,4.374,4.374,0,0,1-.442-.766,4.4,4.4,0,0,1-.16-.413,4,4,0,0,1-.2-1.187,3.985,3.985,0,0,1,.071-.8q.038-.2.1-.391a3.964,3.964,0,0,1,.134-.379,3.915,3.915,0,0,1,.172-.364,4.972,4.972,0,0,1,3.117-2.407" transform="translate(-1295.88 -730.606)" fill="#1497be"/>
          <path id="Trazado_995632" data-name="Trazado 995632" d="M1730.51,647.412c3.935-.228,8-.026,11.947-.028,4.592,0,9.265-.183,13.848.025a3.353,3.353,0,0,1,2.594.88,2,2,0,0,1,.4,1.6,2.738,2.738,0,0,1-1.316,1.961c-4.1.293-8.416.035-12.539.039-4.549,0-9.249.256-13.783-.041a2.82,2.82,0,0,1-2.178-.838,2.055,2.055,0,0,1-.325-1.691,2.823,2.823,0,0,1,1.352-1.907" transform="translate(-1579.671 -591.361)" fill="#2e5ca0"/>
          <path id="Trazado_995633" data-name="Trazado 995633" d="M1719.573,1100.709c3.845-.289,7.81-.118,11.672-.136,2.5-.012,5.214-.241,7.684,0a1.838,1.838,0,0,1,1.185.429,1.889,1.889,0,0,1,.619,1.167,2.328,2.328,0,0,1-.64,1.507c-.875.788-12.751.362-14.745.351l-30.412.017c-5.07-.006-10.272.254-15.324-.013a5.357,5.357,0,0,1-2.062-.448,2.635,2.635,0,0,1-.637-1.785,1.344,1.344,0,0,1,.559-1.068c1.3-.416,13.09-.112,15.246-.11l16.887.006c3.312,0,6.663-.11,9.969.089" transform="translate(-1531.986 -1005.356)" fill="#c7cdee"/>
          <path id="Trazado_995634" data-name="Trazado 995634" d="M1572.3,960.286c.09.055.178.112.27.163a2.365,2.365,0,0,0,1.087.272c1.8.115,3.69-.019,5.5-.02h11.925l37.341.02,8.926.017a18.431,18.431,0,0,1,3.867.055,2.228,2.228,0,0,1,1.615,1.529,1.088,1.088,0,0,1-.168,1.028c-.5.744-2.017.9-2.826.923-2.716.087-5.476-.078-8.2-.089l-18.215-.01-27.258.018c-5.007,0-10.031.072-15.037-.042a3.424,3.424,0,0,1-1.431-.248,12.913,12.913,0,0,0,2.248-.679,1.466,1.466,0,0,1-.452-.471l.819-.752a8.483,8.483,0,0,0-.011-1.715" transform="translate(-1434.037 -877.294)" fill="#c7cdee"/>
          <path id="Trazado_995635" data-name="Trazado 995635" d="M1559.018,830.045c3.9-.147,7.866.039,11.773.073l19.2.037,27.865,0c3.61,0,7.285-.182,10.882-.081a3.6,3.6,0,0,1,1.427.32,2.155,2.155,0,0,1,1.167,1.294,1.567,1.567,0,0,1-.182,1.308,1.766,1.766,0,0,1-1.2.772l-53.2-.009c-2.525,0-17.2.255-18.033-.062a2.629,2.629,0,0,1-1.185-1.343,1.5,1.5,0,0,1,.083-1.134,2.056,2.056,0,0,1,1.4-1.17" transform="translate(-1422.856 -758.258)" fill="#c7cdee"/>
          <path id="Trazado_995636" data-name="Trazado 995636" d="M1640.433,1244a53.122,53.122,0,0,1,7.776-.235c2.724,0,5.474-.078,8.195.014q.063,20.542-.106,41.084c-.02,2.087.2,10.144-.14,11.552a56.887,56.887,0,0,1-1.836-6.491,48.773,48.773,0,0,0-1.339-5.885c-.98-3.283-3.333-5.62-6.14-7.42l-3.842-1.6a18.449,18.449,0,0,0-1.953-.691l-1.942-.54-.219-1.818c.008-.575-.062-1.164-.1-1.739,2.134-.943,3.226-3.054,3.933-5.143a5.364,5.364,0,0,1,.334-1.007c.406-.438,1.274-.5,1.711-1a1.832,1.832,0,0,0,.418-1.379c-.057-1.911-2.371-4.2-3.914-5.12-2.614-1.55-5.437-2.224-7.751-4.332a2.834,2.834,0,0,1-.718-1.141c-.522-1.848,1.289-2.764,1.984-4.182.037-.076.072-.153.108-.23a5.263,5.263,0,0,1,2.026-.113,13.662,13.662,0,0,1,3.5,1.217,17.467,17.467,0,0,0,.019-3.8" transform="translate(-1491.602 -1136.244)" fill="#c7cdee"/>
        </g>
      </g>
      <g id="Grupo_1160133" data-name="Grupo 1160133" transform="translate(141.105 110.303)">
        <g id="Grupo_1160132" data-name="Grupo 1160132" clip-path="url(#clip-path-9)">
          <rect id="Rectángulo_410025" data-name="Rectángulo 410025" width="33.213" height="23.369" transform="matrix(0.295, -0.956, 0.956, 0.295, -8.896, 27.464)" fill="url(#linear-gradient-4)"/>
        </g>
      </g>
      <g id="Grupo_1160135" data-name="Grupo 1160135" transform="translate(92.747 109.816)">
        <g id="Grupo_1160134" data-name="Grupo 1160134" clip-path="url(#clip-path-10)">
          <rect id="Rectángulo_410026" data-name="Rectángulo 410026" width="33.06" height="40.618" transform="matrix(0.1, -0.995, 0.995, 0.1, -3.063, 29.138)" fill="url(#linear-gradient-5)"/>
        </g>
      </g>
      <g id="Grupo_1160137" data-name="Grupo 1160137" transform="translate(0 0.003)">
        <g id="Grupo_1160136" data-name="Grupo 1160136" clip-path="url(#clip-path-2)">
          <path id="Trazado_995639" data-name="Trazado 995639" d="M1380.073,1405.291a6.158,6.158,0,0,1-1.284-1.065.625.625,0,0,1-.177-.656.945.945,0,0,1,.368-.126c1.854-.321,4.491,1.188,5.814,2.306l-.058.38c-.114,1.8-.427,4.5-1.855,5.756a1.543,1.543,0,0,1-.941.379,3.541,3.541,0,0,1-.737-.342,13.694,13.694,0,0,0-1.818-.791c-.841-.382-2.6-1.045-2.878-2.005-.069-.237.028-.279.144-.471,1.133-.417,2.626.021,3.778.211-1.157-.637-3-.506-3.905-1.5-.005-.393.016-.366.289-.656,1.062-.332,3.427.472,4.609.7-.993-.358-2.009-.7-2.975-1.12a1.8,1.8,0,0,1-1.125-.931c.082-.178.092-.317.284-.4.644-.29,1.807.152,2.469.328" transform="translate(-1257.522 -1282.113)" fill="#f8be9f"/>
          <path id="Trazado_995640" data-name="Trazado 995640" d="M1083.3,1371.505l.234.055c.267-.426.513-.858.757-1.3a9.261,9.261,0,0,1-.493,1.475.774.774,0,0,0,.128.272c-1.039,2.683-2.094,4.711-2,7.656a20.41,20.41,0,0,1,7.737-2.362,8.19,8.19,0,0,1,2.895.075l.075.2a10.26,10.26,0,0,1-2.662,1.2c.9-.151,2.349-.813,3.1-.3.032.209.126.367-.023.544a11.152,11.152,0,0,1-2.715,1.438c.989-.124,1.832-.785,2.842-.816l.218.338c-.191.787-.812,1.122-1.448,1.565l.905-.026.16.158c-1.278,2.452-7.3,5.134-9.823,5.929a20.681,20.681,0,0,1-3.149.719l-3.612.176c-1.055-.052-2.13-.007-3.187,0a56.505,56.505,0,0,1,.067-6.872,2,2,0,0,0,.36.007c2.421-.144,5.382-4.992,7.132-6.848a17.5,17.5,0,0,0,1.412-1.717q.53-.791,1.086-1.564" transform="translate(-980.42 -1251.84)" fill="#f8be9f"/>
          <path id="Trazado_995641" data-name="Trazado 995641" d="M1390.7,1242.688c2.5-.174,5.078-.078,7.585-.089l13.7-.026.071.231a16.136,16.136,0,0,1,.563,2.722,5.254,5.254,0,0,0-2.026.113c-.036.077-.071.154-.108.23-.7,1.418-2.507,2.333-1.984,4.182a2.836,2.836,0,0,0,.718,1.141c2.314,2.107,5.137,2.782,7.751,4.332,1.543.915,3.857,3.208,3.914,5.12a1.83,1.83,0,0,1-.418,1.379c-.437.495-1.3.558-1.711,1a5.377,5.377,0,0,0-.335,1.007c-.707,2.089-1.8,4.2-3.933,5.143a7.96,7.96,0,0,1-6.716-.871l-.233,2a13.268,13.268,0,0,1-.537,1.9l-1.127.579a34.018,34.018,0,0,1-5.693,2.062,13.046,13.046,0,0,0-4.927,4.318c-1.273,2.175-1.72,5.117-2.461,7.535-1.346,4.39-2.881,8.774-3.98,13.231a14.82,14.82,0,0,0-.423,2.646,1.6,1.6,0,0,1-.312-.108c-.355-.212-.41-.769-.462-1.144a53.085,53.085,0,0,1-.191-6.05q-.138-7.64-.065-15.282c.011-1.736.351-5.39-.17-6.878,1.685-2.274,2.8-5.474,3.794-8.115a3.548,3.548,0,0,0,.737.342,1.543,1.543,0,0,0,.941-.379c1.428-1.255,1.742-3.953,1.855-5.756l.058-.38a5.768,5.768,0,0,0,.2-.557c.271-.981-.387-2.1-.831-2.94.666-1.2,1.188-2.5,1.75-3.747.544-1.735,1.676-3.24,2.09-5.036a1.424,1.424,0,0,0-.283-1.1,2.27,2.27,0,0,0-1.389-.644,21.541,21.541,0,0,0-3.348-.057c-1.114-.006-2.232-.1-3.342-.184a9.718,9.718,0,0,1,1.284-1.873" transform="translate(-1267.301 -1135.185)" fill="#c7cdee"/>
          <path id="Trazado_995642" data-name="Trazado 995642" d="M1467.036,1346.774l.262.271c-.072,1.394-.234,5.544-.811,6.624a2.732,2.732,0,0,1-.623.73l.058-.38a5.779,5.779,0,0,0,.195-.557c.271-.981-.387-2.095-.831-2.94.666-1.2,1.188-2.5,1.75-3.747" transform="translate(-1338.65 -1230.381)" fill="#f5e4e8"/>
          <path id="Trazado_995643" data-name="Trazado 995643" d="M1548.94,1291.319c-.3-3.454-.07-7.086,2.185-9.9,1.886-2.351,4.254-3.057,7.145-3.368-.036.077-.071.154-.108.23-.7,1.418-2.507,2.333-1.984,4.182a2.835,2.835,0,0,0,.718,1.141c-2.067,3.029-4.181,5.43-4.474,9.244-.6-.712-1.351-1.857-2.365-1.949a1.638,1.638,0,0,0-1.116.417" transform="translate(-1414.979 -1167.601)" fill="#973b57"/>
          <path id="Trazado_995644" data-name="Trazado 995644" d="M1522.69,1442.658c.333,1.258.7,3.785,1.845,4.515a1.346,1.346,0,0,0,1.139.22,3.446,3.446,0,0,0,.861-.382,8.624,8.624,0,0,0,3.295,4.079l-.233,2a13.267,13.267,0,0,1-.538,1.9l-1.127.579a33.986,33.986,0,0,1-5.693,2.062,16.65,16.65,0,0,1-1.383-5.033c-.238-2.5.177-7.939,1.833-9.943" transform="translate(-1389.362 -1317.978)" fill="#522133"/>
          <path id="Trazado_995645" data-name="Trazado 995645" d="M1551.309,1342.3c2.314,2.108,5.137,2.782,7.751,4.332,1.543.915,3.856,3.208,3.914,5.12a1.832,1.832,0,0,1-.418,1.379c-.437.495-1.3.557-1.711,1a5.391,5.391,0,0,0-.335,1.007c-.707,2.089-1.8,4.2-3.933,5.143a7.961,7.961,0,0,1-6.716-.871,8.624,8.624,0,0,1-3.295-4.079,3.44,3.44,0,0,1-.861.382,1.347,1.347,0,0,1-1.139-.219c-1.146-.73-1.512-3.257-1.845-4.515.416-.214.484-.564.633-.961a1.638,1.638,0,0,1,1.117-.417c1.014.092,1.761,1.237,2.365,1.949.293-3.814,2.407-6.215,4.474-9.244" transform="translate(-1409.393 -1226.293)" fill="#f8be9f"/>
          <path id="Trazado_995646" data-name="Trazado 995646" d="M1650.015,1493.75c.054.022.107.044.162.065.091.035.182.066.272.1,1.06.4,3,.226,3.709,1a1.738,1.738,0,0,1-.511,1.108,2.347,2.347,0,0,1-1.006.431,2.085,2.085,0,0,1-.223.011q-.112,0-.223-.012a2.161,2.161,0,0,1-.22-.036,2.151,2.151,0,0,1-.423-.139,2.128,2.128,0,0,1-.385-.223,2.135,2.135,0,0,1-.173-.14,3.04,3.04,0,0,1-.978-2.168" transform="translate(-1507.414 -1364.654)" fill="#fefefe"/>
          <path id="Trazado_995647" data-name="Trazado 995647" d="M2202.361,1243.983l10.253-.076a30.032,30.032,0,0,1,6.249.165,2.032,2.032,0,0,1,1.11.635,6.524,6.524,0,0,1,.857,1.238c.335,12.656.14,25.376.1,38.037l-.018,13.385c0,2.25.121,4.583-.027,6.825a3.721,3.721,0,0,1-.545,2.064c-.56.645-16.181.4-17.967.407q-.106-11.5-.053-23a12.385,12.385,0,0,0,5.461-2.717,11.763,11.763,0,0,0,3.793-6.1,11.385,11.385,0,0,0-1.517-8.813,12.739,12.739,0,0,0-7.7-5.626Z" transform="translate(-2011.965 -1136.329)" fill="#c7cdee"/>
          <path id="Trazado_995648" data-name="Trazado 995648" d="M1420.457,1540.213a7.96,7.96,0,0,0,6.716.871c.038.575.108,1.163.1,1.739l.219,1.818,1.942.539a18.458,18.458,0,0,1,1.953.691l3.842,1.6c2.808,1.8,5.161,4.137,6.14,7.42a48.786,48.786,0,0,1,1.339,5.885,56.86,56.86,0,0,0,1.836,6.491c.61,1.987,2.307,5.562,1.762,7.552-1.42,1.6-7.241,2.167-9.479,2.445-7.473.709-15.955,1.366-23.412.432l-2.39-.3a24.345,24.345,0,0,1-9.95-2.908,14.82,14.82,0,0,1,.423-2.646c1.1-4.457,2.635-8.841,3.98-13.231.742-2.419,1.189-5.36,2.461-7.535a13.044,13.044,0,0,1,4.927-4.318,34,34,0,0,0,5.693-2.062l1.127-.579a13.3,13.3,0,0,0,.537-1.9Z" transform="translate(-1279.988 -1407.102)" fill="#fbb84a"/>
          <path id="Trazado_995649" data-name="Trazado 995649" d="M1478.492,1754.791c-2.088-6.264-4.717-13.489-3.028-20.142.053-.21,0-.109.268-.261a74.766,74.766,0,0,0,3.151,15.647c.555,1.716,1.532,3.321,2,5.059Z" transform="translate(-1347.456 -1584.495)" fill="#ed6a26"/>
          <path id="Trazado_995650" data-name="Trazado 995650" d="M1603.381,1585.974l1.127-.579a6.226,6.226,0,0,0,1.385,4.7,4.348,4.348,0,0,0,3.177,1.5,4.267,4.267,0,0,0,3.163-1.5,10.547,10.547,0,0,0,2.023-3.646,18.489,18.489,0,0,1,1.954.691,2.643,2.643,0,0,0-.645.239c-.556.443-4.951,8.33-5.787,9.69-1.937-2.422-5.346-5.242-6.121-8.251a15.228,15.228,0,0,1-.275-2.852" transform="translate(-1464.81 -1448.379)" fill="#f19619"/>
          <path id="Trazado_995651" data-name="Trazado 995651" d="M1617.047,1540.213a7.96,7.96,0,0,0,6.716.871c.038.575.108,1.163.1,1.739l.219,1.818,1.942.539a10.549,10.549,0,0,1-2.023,3.646,4.266,4.266,0,0,1-3.163,1.5,4.348,4.348,0,0,1-3.177-1.5,6.226,6.226,0,0,1-1.385-4.7,13.3,13.3,0,0,0,.537-1.9Z" transform="translate(-1476.578 -1407.102)" fill="#f8be9f"/>
          <path id="Trazado_995652" data-name="Trazado 995652" d="M1622.876,1540.213a7.96,7.96,0,0,0,6.716.871c.038.575.108,1.163.1,1.739-1.61.043-3.184.51-4.8.173-.71-.148-1.323-.569-2.023-.731-.074-.017-.149-.033-.223-.049Z" transform="translate(-1482.408 -1407.102)" fill="#f59477"/>
          <path id="Trazado_995653" data-name="Trazado 995653" d="M1814.757,1732.479a89.8,89.8,0,0,0,2.159-8.958c.333-1.705,2.046-12.806,2.383-13.415a48.816,48.816,0,0,1,1.339,5.885,56.868,56.868,0,0,0,1.836,6.491c.61,1.987,2.307,5.562,1.762,7.551-1.42,1.6-7.24,2.167-9.479,2.445" transform="translate(-1657.918 -1562.312)" fill="#f19619"/>
          <path id="Trazado_995654" data-name="Trazado 995654" d="M1407.938,1665.911c.4.7.39,4.941.326,5.918-.263.152-.215.051-.268.261-1.689,6.653.94,13.878,3.028,20.142a24.345,24.345,0,0,1-9.95-2.908,14.82,14.82,0,0,1,.423-2.646c1.1-4.457,2.635-8.841,3.98-13.231.742-2.419,1.189-5.36,2.461-7.535" transform="translate(-1279.988 -1521.937)" fill="#f19619"/>
          <path id="Trazado_995655" data-name="Trazado 995655" d="M1398.362,2480.845l44.341-.012a55.128,55.128,0,0,1,.191,8.47l.01,15.76c0,1.656-.373,3.987.023,5.552l.01.117c-8.876.185-17.79-.043-26.669-.064l-7.835.007a25.289,25.289,0,0,1-4.941-.177,7.264,7.264,0,0,1-3.284-1.951,5.47,5.47,0,0,1-1.586-2.691c-.625-2.77-.264-6.141-.264-9Z" transform="translate(-1277.411 -2266.43)" fill="#fbb84a"/>
          <path id="Trazado_995656" data-name="Trazado 995656" d="M1953.651,1244.309l17.212.01c-.019,5.424-.187,10.927.038,16.343a21.5,21.5,0,0,1,4.3.193,12.74,12.74,0,0,1,7.7,5.626,11.386,11.386,0,0,1,1.516,8.813,11.765,11.765,0,0,1-3.793,6.1,12.386,12.386,0,0,1-5.462,2.717,12.788,12.788,0,0,1-4.047.289l-.137.083c-.309.687-.111,20.153-.114,22.568l-17.04.017c-.3-20.912.038-41.838-.168-62.755" transform="translate(-1784.809 -1136.771)" fill="#c7cdee"/>
        </g>
      </g>
      <g id="Grupo_1160139" data-name="Grupo 1160139" transform="translate(175.858 123.871)">
        <g id="Grupo_1160138" data-name="Grupo 1160138" clip-path="url(#clip-path-12)">
          <rect id="Rectángulo_410028" data-name="Rectángulo 410028" width="29.413" height="30.149" transform="translate(-6.266 22.282) rotate(-75.177)" fill="url(#linear-gradient-6)"/>
        </g>
      </g>
      <g id="Grupo_1160141" data-name="Grupo 1160141" transform="translate(0 0.003)">
        <g id="Grupo_1160140" data-name="Grupo 1160140" clip-path="url(#clip-path-2)">
          <path id="Trazado_995658" data-name="Trazado 995658" d="M2073.582,1562.219a6.691,6.691,0,0,1,1.245.606c-.267.373-.329.4-.324.855a2.975,2.975,0,0,0,1.626,1.281l-.226.232a1.516,1.516,0,0,1-.158.785c-.34.528-6.953,1.7-8.086,1.889a6.2,6.2,0,0,1-.468-2.316c.713-1.149,5.294-1.526,6.677-2.595q-.138-.371-.285-.737" transform="translate(-1888.53 -1427.206)" fill="#fbb84a"/>
          <path id="Trazado_995659" data-name="Trazado 995659" d="M2105.562,1660.878a25.186,25.186,0,0,1,3.84-2.377,5.728,5.728,0,0,1,2.325-.531c.561,0,7.293,1.177,7.675,1.331a12.389,12.389,0,0,1-5.462,2.717,12.784,12.784,0,0,1-4.047.288,19.827,19.827,0,0,1-4.331-1.429" transform="translate(-1923.591 -1514.682)" fill="#ed6a26"/>
          <path id="Trazado_995660" data-name="Trazado 995660" d="M2119.744,1469.777l-.188.1a1.677,1.677,0,0,1-1.333.3,1.63,1.63,0,0,1-1.04-.917,3.6,3.6,0,0,1,.1-2.805,4.667,4.667,0,0,1,2.78-2.511,7.317,7.317,0,0,1,5.691.582,4.983,4.983,0,0,1,2.536,2.993,6.8,6.8,0,0,1-.783,5.19,5.43,5.43,0,0,1-3.116,2.7,2.8,2.8,0,0,1-2.522-.37q-.143-.085-.284-.173a2.975,2.975,0,0,1-1.626-1.281c0-.451.057-.482.324-.855a6.7,6.7,0,0,0-1.245-.606c.434-.1.532-.051.784-.409a2.089,2.089,0,0,1-.164-.824c.02-.224.211-.281.378-.408a1.072,1.072,0,0,0-.295-.709" transform="translate(-1933.989 -1337.114)" fill="#fbcf6f"/>
          <path id="Trazado_995661" data-name="Trazado 995661" d="M2142.2,1543.239a3.117,3.117,0,0,0,1.294.07l.238.139c0,.425.054.515-.216.833l-.726.155a4.22,4.22,0,0,1-.344,1.049,6.7,6.7,0,0,0-1.245-.606c.434-.1.532-.051.785-.409a2.084,2.084,0,0,1-.164-.824c.02-.224.21-.281.377-.408" transform="translate(-1956.154 -1409.866)" fill="#fbb84a"/>
          <path id="Trazado_995662" data-name="Trazado 995662" d="M2175.6,1537.7a3.461,3.461,0,0,1,.34-.43,1.393,1.393,0,0,1,1.03-.335l.1.33a1.852,1.852,0,0,1-.948,1.581c-.123.089-.247.177-.371.263a2.479,2.479,0,0,1-1.07.22c-.2-.039-.239-.268-.324-.436Z" transform="translate(-1986.441 -1404.105)" fill="#fbb84a"/>
          <path id="Trazado_995663" data-name="Trazado 995663" d="M2160.773,1499.258c1.087-.208,2.017-1.309,3.164-1l.188.327a1.9,1.9,0,0,0,.474,1.579,1.772,1.772,0,0,1,.271.59l-.528.07-.1-.129a2.607,2.607,0,0,0-.842-.781l-.384.013-.237.3c.541.841,1.775.55,1.5,1.97a1.833,1.833,0,0,1-.7,1.037,1.074,1.074,0,0,1-.786-.016c.073-.559.625-.791.571-1.33a1.781,1.781,0,0,0-.962-.011l-.1-.33a1.394,1.394,0,0,0-1.03.335,3.45,3.45,0,0,0-.34.43,3.643,3.643,0,0,1-1.251-.657,6.162,6.162,0,0,0-.33.646l-.238-.139a1.909,1.909,0,0,0-.05-.264c-.14-.406-.35-.444-.71-.607-.16-.429.067-.654.249-1.057l.028-.4a.519.519,0,0,0,.123-.066c.6-.583.6-.722,1.48-.959l.242.422a2.741,2.741,0,0,1-.67.766,1.658,1.658,0,0,0,1.037.18.834.834,0,0,0,.34-.114Z" transform="translate(-1971.769 -1368.725)" fill="#fbb84a"/>
          <path id="Trazado_995664" data-name="Trazado 995664" d="M1398.789,2089.289c.137-7.289.043-14.6.042-21.894,0-2.636-.35-7.224.2-9.643a7.109,7.109,0,0,1,1.972-3.235,6.742,6.742,0,0,1,3.411-1.972c2.985-.568,9.44-.181,12.79-.166l25.668.049.1,22.829c0,2.754-.385,12.082.149,14.021Z" transform="translate(-1277.838 -1874.873)" fill="#7bb5eb"/>
          <path id="Trazado_995665" data-name="Trazado 995665" d="M1471.477,2174.339l10.229-.034a36.994,36.994,0,0,1,5.04.028c.449.063.48.115.729.456a2.029,2.029,0,0,1-.237,1.076l-9.887.019c-1.7,0-3.461.1-5.153-.014-.532-.036-.578.025-.928-.377a1.866,1.866,0,0,1,.207-1.154" transform="translate(-1344.093 -1986.32)" fill="#4276c6"/>
          <path id="Trazado_995666" data-name="Trazado 995666" d="M1471.591,2316.469c2.719-.089,26.679-.22,27.719.127a1.885,1.885,0,0,1,.2,1.232c-2.39.148-26.844.235-27.767-.078a1.907,1.907,0,0,1-.157-1.281" transform="translate(-1344.379 -2116.18)" fill="#4276c6"/>
          <path id="Trazado_995667" data-name="Trazado 995667" d="M1496.127,2245.737a4.973,4.973,0,0,1,1.7.054,1.554,1.554,0,0,1,.865.768l-.068.251a2.008,2.008,0,0,1-1.19.391c-2.646.226-5.481.028-8.15.028l-16.572,0a5.965,5.965,0,0,1-1.982-.037,1.663,1.663,0,0,1-1.04-.871c.293-.269.358-.385.752-.437a67.708,67.708,0,0,1,8.713-.13Z" transform="translate(-1342.672 -2051.592)" fill="#4276c6"/>
          <path id="Trazado_995668" data-name="Trazado 995668" d="M1468.826,2386.709c6.475-.177,13-.019,19.479-.031,1.6,0,6.6-.254,7.811.034.369.088.381.2.552.512a1.6,1.6,0,0,1-.214.987c-5.715.083-11.442.01-17.158.01-3.2,0-6.554.212-9.729-.031a1.228,1.228,0,0,1-1.056-.412,1.522,1.522,0,0,1,.315-1.07" transform="translate(-1341.59 -2180.317)" fill="#4276c6"/>
          <path id="Trazado_995669" data-name="Trazado 995669" d="M1909.422,2053.289l26.038-.018c3.208,0,9.212-.361,12.118.179a5.856,5.856,0,0,1,2.9,1.649q.227.222.434.464t.391.5q.184.259.344.534t.3.563q.135.288.244.587t.191.606q.082.308.135.621t.079.63c.3,3.685.094,7.571.076,11.27l.01,18.079.031,16.912a80.23,80.23,0,0,1-.083,9.069,4.886,4.886,0,0,1-1.261,2.815,6.256,6.256,0,0,1-4.69,2.169c-3.419.161-6.913.016-10.339.019-8.839.009-17.71-.12-26.546.076l-.01-.117c-.4-1.566-.021-3.9-.023-5.553l-.01-15.76a55.109,55.109,0,0,0-.191-8.47c-.535-1.939-.153-11.267-.149-14.021l-.1-22.829Z" transform="translate(-1744.263 -1875.712)" fill="#7bb5eb"/>
          <path id="Trazado_995670" data-name="Trazado 995670" d="M1909.3,2054.455l.121.023c-.067,3.131.018,6.277.018,9.41,0,2.328-.133,4.733.066,7.046a1.3,1.3,0,0,0,.793.222l-.156,40.736c0,1.219.188,8.734-.2,9.094a.986.986,0,0,1-.163.1c-.4-1.566-.021-3.9-.023-5.552l-.01-15.76a55.14,55.14,0,0,0-.191-8.47c-.535-1.939-.153-11.266-.149-14.021Z" transform="translate(-1744.263 -1876.901)" fill="#4276c6"/>
          <path id="Trazado_995671" data-name="Trazado 995671" d="M1910.748,2053.289l26.038-.018c3.208,0,9.212-.361,12.118.179a5.855,5.855,0,0,1,2.9,1.649q.228.222.434.464t.391.5q.184.259.344.534t.3.563q.135.288.244.587t.19.606q.082.308.136.621t.079.63c-.133,3.427-.055,6.886-.027,10.317l-27.711.008c-4.835,0-9.73-.159-14.556.037a1.3,1.3,0,0,1-.793-.222c-.2-2.313-.065-4.719-.066-7.046,0-3.133-.085-6.279-.018-9.41" transform="translate(-1745.59 -1875.712)" fill="#2e5ca0"/>
          <path id="Trazado_995672" data-name="Trazado 995672" d="M2337.2,2144.867c.141,0,.282,0,.423,0a2.028,2.028,0,0,1,1.655.688c.251.355.2.484.148.892a2.241,2.241,0,0,1-1.025.865,2.735,2.735,0,0,1-2.015-.659c-.284-.366-.249-.473-.2-.9a2.535,2.535,0,0,1,1.01-.888" transform="translate(-2134.255 -1959.499)" fill="#fefefe"/>
          <path id="Trazado_995673" data-name="Trazado 995673" d="M1974.451,2144.33c.164-.016.329-.029.495-.032a2.19,2.19,0,0,1,1.8.679.91.91,0,0,1,.239.753c-.1.626-.557.9-1.042,1.226a2.708,2.708,0,0,1-2.218-.646,1.088,1.088,0,0,1-.266-.954,2.292,2.292,0,0,1,.99-1.027" transform="translate(-1802.903 -1958.978)" fill="#fefefe"/>
          <path id="Trazado_995674" data-name="Trazado 995674" d="M2050.032,2145.929c1.885,0,19.671-.254,20.427.194.414.245.417.38.531.815a1.884,1.884,0,0,1-.611,1.14c-3.315.006-18.942.391-20.7-.253-.276-.3-.421-.4-.36-.844a1.628,1.628,0,0,1,.717-1.053" transform="translate(-1872.193 -1960.405)" fill="#fefefe"/>
          <path id="Trazado_995675" data-name="Trazado 995675" d="M1117.564,568.868c-.228-3.427-.01-7.023-.006-10.463l.025-21.5,0-15.213c-.005-2.951-.3-6.2.25-9.1q.054-.283.121-.564t.149-.557q.081-.277.175-.549t.2-.54q.107-.268.228-.529t.254-.518q.133-.256.279-.5t.3-.491q.157-.242.326-.475t.349-.459q.18-.225.371-.441t.392-.422q.2-.207.412-.4t.431-.382q.22-.186.45-.361t.467-.338a11.268,11.268,0,0,1,5.74-1.913c2.344-.158,4.755-.051,7.105-.053h13.557l41.005,0,22.416.013c2.508,0,7.451-.284,9.642.146a11.339,11.339,0,0,1,7.813,4.352,12.578,12.578,0,0,1,2.619,6.636c.2,2.121.1,4.309.1,6.441l-.033,10.712,0,30.847-.092,105.4c-.005,1.079-.085,2.219.015,3.29q-.056,8.286-.013,16.572c2.138,1.618,4.906,4.62,7.045,5.848.242,1.685.064,3.479.422,5.122-.167,1.54-2.378,4.683-3.08,6.295-1.458,3.349-2.8,6.762-4.2,10.135-1.261,3.031-2.614,6.058-3.755,9.135-1.8-.317-3.678.008-5.489-.294a17.184,17.184,0,0,1-4.493,1.26c-5.1.383-10.413.156-15.54.169l-29.023.014-27.365,0c-4.97,0-10.083.249-15.031-.119a16.565,16.565,0,0,1-4.429-1.163c-1.31.425-11.084.084-12.83,0a14.886,14.886,0,0,0-6.216-2.664q-.307-.37-.609-.744c-3.644-4.542-4.442-10.162-3.831-15.815q.2-1.442.38-2.887l1.869.041c1.807-7.8,2.965-15.761,4.551-23.6q1.508-7.343,2.88-14.712a78.167,78.167,0,0,0,1.534-8.674c.263-3.4-.395-7.184-.7-10.594q-.949-10.948-2.474-21.832a139.764,139.764,0,0,0-2.313-14.378,21.72,21.72,0,0,0-2.251-5.666c.753-.975.575-2.672.608-3.867a69.149,69.149,0,0,0,9.114.15,60.256,60.256,0,0,1,8.814-.1,19.456,19.456,0,0,1-3.5.109l-.009,77.007.008,22.529c-.01,3.658-.317,8.425.059,11.986a9.091,9.091,0,0,0,8.791,8.389c2.012.167,4.081.067,6.1.061l10.388-.023,33.876.011,22.99.016c3.213.011,8.1.333,11.068-.052a9.1,9.1,0,0,0,4.639-2.233,9.832,9.832,0,0,0,3.375-6.559c.209-3.521.052-7.12.046-10.652l0-19.473.021-67.6.016-65.192.007-20.217c0-3.268.2-6.646,0-9.9a8.973,8.973,0,0,0-2.131-5.4,9.252,9.252,0,0,0-6.6-2.9c-5.638-.222-11.38,0-17.027.013l-32.852-.01q-12.341-.084-24.681-.036c-3.537,0-8.574-.3-11.973.106a6.5,6.5,0,0,0-3.875,1.931,7.465,7.465,0,0,0-2.207,4.086,37.258,37.258,0,0,0-.157,6.228l.025,10.061.007,37.928c-1.673-.005-3.371-.073-5.037.087" transform="translate(-1008.586 -459.54)" fill="#2e5ca0"/>
          <path id="Trazado_995676" data-name="Trazado 995676" d="M1108.271,1607.955a69.168,69.168,0,0,0,9.114.15l.016,79.72.054,22.1c.01,3.71-.338,7.78.233,11.431a15.463,15.463,0,0,0,4.422,8.383,12.618,12.618,0,0,0,3.229,2.458,24.837,24.837,0,0,0,2.33,1.159c-1.309.425-11.084.084-12.83,0a14.887,14.887,0,0,0-6.216-2.664q-.307-.37-.609-.744c-3.644-4.542-4.442-10.162-3.831-15.816q.2-1.442.38-2.887l1.869.041c1.807-7.8,2.965-15.761,4.551-23.6q1.508-7.343,2.88-14.712a78.2,78.2,0,0,0,1.535-8.674c.262-3.4-.4-7.184-.7-10.594q-.949-10.948-2.474-21.832a139.8,139.8,0,0,0-2.313-14.378,21.723,21.723,0,0,0-2.251-5.666c.753-.975.575-2.672.609-3.867" transform="translate(-1008.586 -1468.989)" fill="#f5e4e8"/>
        </g>
      </g>
      <g id="Grupo_1160143" data-name="Grupo 1160143" transform="translate(116.753 43.712)">
        <g id="Grupo_1160142" data-name="Grupo 1160142" clip-path="url(#clip-path-14)">
          <rect id="Rectángulo_410030" data-name="Rectángulo 410030" width="115.908" height="222.79" transform="translate(-1.173 0.006) rotate(-0.303)" fill="url(#linear-gradient-7)"/>
        </g>
      </g>
      <g id="Grupo_1160145" data-name="Grupo 1160145" transform="translate(214.964 227.964)">
        <g id="Grupo_1160144" data-name="Grupo 1160144" clip-path="url(#clip-path-15)">
          <rect id="Rectángulo_410031" data-name="Rectángulo 410031" width="37.134" height="17.898" transform="matrix(0.038, -0.999, 0.999, 0.038, -1.383, 36.482)" fill="url(#linear-gradient-8)"/>
        </g>
      </g>
    </g>
  </g>
</svg>
