<svg xmlns="http://www.w3.org/2000/svg" width="37.792" height="36.272" viewBox="0 0 37.792 36.272">
  <g id="Layer_x0020_1" transform="translate(-0.346 -0.47)">
    <g id="_253456576" transform="translate(0.347 0.47)">
      <path id="_253457344" d="M2.6,12.744a.493.493,0,0,1-.253-.916C4.055,10.81,4.91,9.76,4.889,8.706,4.86,7.227,3.057,5.927,2.364,5.55a.493.493,0,1,1,.471-.866c.122.067,2.993,1.654,3.04,4,.028,1.434-.989,2.776-3.023,3.988a.49.49,0,0,1-.252.07Zm15.116,0a.493.493,0,0,1-.252-.07c-2.034-1.212-3.051-2.554-3.023-3.988.046-2.348,2.917-3.936,3.04-4a.493.493,0,0,1,.471.866c-.034.019-2.492,1.386-2.525,3.158-.02,1.053.836,2.1,2.542,3.12a.493.493,0,0,1-.253.916Z" transform="translate(8.738 20.972)" fill-rule="evenodd"/>
      <path id="_253457392" d="M3.307,1.456A1.976,1.976,0,0,0,1.332,3.43V24.092a1.976,1.976,0,0,0,1.974,1.974H35.178a1.976,1.976,0,0,0,1.974-1.974V3.43a1.976,1.976,0,0,0-1.974-1.974H3.307Zm31.871,25.6H3.307a2.964,2.964,0,0,1-2.96-2.96V3.43A2.963,2.963,0,0,1,3.307.47H35.178a2.962,2.962,0,0,1,2.96,2.96V24.092a2.963,2.963,0,0,1-2.96,2.96Z" transform="translate(-0.347 -0.47)" fill-rule="evenodd"/>
      <path id="_253457200" d="M33.458,1.789h0ZM1.666,22.292H33.378V1.789H1.666Zm31.792.986H1.586a.907.907,0,0,1-.906-.906V1.709A.907.907,0,0,1,1.586.8H33.458a.907.907,0,0,1,.906.906V22.371a.907.907,0,0,1-.906.906Z" transform="translate(1.374 1.251)" fill-rule="evenodd"/>
      <path id="_253456912" d="M2.823,8.337H20.281V7.553a.787.787,0,0,0-.785-.786H3.607a.786.786,0,0,0-.785.786v.785Zm17.951.986H2.33a.493.493,0,0,1-.493-.493V7.553a1.772,1.772,0,0,1,1.77-1.77H19.5a1.772,1.772,0,0,1,1.77,1.771V8.83a.493.493,0,0,1-.493.493Z" transform="translate(7.345 26.948)" fill-rule="evenodd"/>
      <path id="_253457152" d="M5.4,10.165a.493.493,0,1,1,0-.986,3.216,3.216,0,0,0,0-6.433.493.493,0,0,1,0-.986,4.2,4.2,0,0,1,0,8.4Z" transform="translate(23.211 6.193)" fill-rule="evenodd"/>
      <path id="_253457296" d="M5.34,7.592a.493.493,0,1,1,0-.986,1.816,1.816,0,1,0,0-3.633.493.493,0,1,1,0-.986,2.8,2.8,0,1,1,0,5.6Z" transform="translate(22.879 7.366)" fill-rule="evenodd"/>
      <path id="_253457416" d="M3.407,11.713l8.729,4.311c.072.035.1.02.111.013a.058.058,0,0,0,.037-.058V2.228a.057.057,0,0,0-.037-.057.076.076,0,0,0-.086,0l-.025.013L3.407,6.494v5.218Zm8.807,5.318a1.165,1.165,0,0,1-.515-.123l-9-4.446a.492.492,0,0,1-.275-.442V6.188A.492.492,0,0,1,2.7,5.746l8.993-4.44a1.062,1.062,0,0,1,1.045.008,1.041,1.041,0,0,1,.537.915v13.75a1.057,1.057,0,0,1-1.056,1.053Z" transform="translate(10.359 3.157)" fill-rule="evenodd"/>
      <path id="_253457656" d="M9.452,8.725h0l-4.832,0A3.443,3.443,0,0,1,1.154,5.315,3.357,3.357,0,0,1,2.175,2.9a3.467,3.467,0,0,1,2.442-1h0l4.833,0a.492.492,0,1,1,0,.985h0l-4.832,0h0a2.486,2.486,0,0,0-1.752.715A2.378,2.378,0,0,0,2.14,5.315,2.455,2.455,0,0,0,4.619,7.737l4.833,0a.493.493,0,0,1,0,.986Z" transform="translate(3.821 6.944)" fill-rule="evenodd"/>
      <path id="_253457248" d="M5.1,10.424H2.2a.492.492,0,0,1-.493-.493V3.346a.493.493,0,1,1,.986,0V9.438H4.606V3.347a.493.493,0,1,1,.986,0V9.931a.493.493,0,0,1-.493.493Z" transform="translate(6.67 11.829)" fill-rule="evenodd"/>
      <path id="_253456864" d="M4.514,9.393a.493.493,0,0,1-.024-.985,2.789,2.789,0,0,0,0-5.575.493.493,0,1,1,.05-.985,3.774,3.774,0,0,1,0,7.544H4.514Z" transform="translate(18.621 6.639)" fill-rule="evenodd"/>
    </g>
  </g>
</svg>
