<svg xmlns="http://www.w3.org/2000/svg" width="36.313" height="29.049" viewBox="0 0 36.313 29.049">
  <g id="Icon" transform="translate(-16.15 -64.75)">
    <path id="_09" d="M48.955,75.866H41.347V68.258A3.266,3.266,0,0,0,38.088,65H19.658A3.266,3.266,0,0,0,16.4,68.258V79.424a3.261,3.261,0,0,0,3.258,3.258h7.608V90.29a3.266,3.266,0,0,0,3.258,3.258h18.43a3.266,3.266,0,0,0,3.258-3.258V79.125A3.261,3.261,0,0,0,48.955,75.866Zm0,.747a2.508,2.508,0,0,1,1.779.74l-9.215,9.207a2.512,2.512,0,0,1-3.55,0L34.1,82.69h4a3.266,3.266,0,0,0,3.258-3.258V76.614ZM40.6,68.258V79.424a2.451,2.451,0,0,1-.291,1.166l-6.749-6.749,6.756-6.749A2.513,2.513,0,0,1,40.6,68.258ZM19.658,65.747h18.43a2.533,2.533,0,0,1,1.779.732l-9.215,9.215a2.521,2.521,0,0,1-3.557,0L17.88,66.48A2.5,2.5,0,0,1,19.658,65.747ZM17.147,79.424V68.258a2.451,2.451,0,0,1,.291-1.166l6.749,6.749L17.439,80.6A2.481,2.481,0,0,1,17.147,79.424ZM17.88,81.2l6.831-6.831,1.853,1.853a3.266,3.266,0,0,0,4.619,0l1.853-1.853L39.867,81.2a2.508,2.508,0,0,1-1.779.74H19.658A2.508,2.508,0,0,1,17.88,81.2ZM28.014,90.29v-7.6h5.022l2.018,2.018L28.3,91.456A2.513,2.513,0,0,1,28.014,90.29ZM48.955,92.8H30.525a2.508,2.508,0,0,1-1.779-.74l6.831-6.831,1.853,1.853a3.266,3.266,0,0,0,4.619,0L43.9,85.231l6.831,6.831A2.477,2.477,0,0,1,48.955,92.8Zm2.511-2.511a2.451,2.451,0,0,1-.291,1.166L44.418,84.7l6.756-6.756a2.473,2.473,0,0,1,.291,1.166Zm-27.727-.344H22.521V88.489a1.424,1.424,0,0,0,.4.06,1.356,1.356,0,0,0,.964-2.317l-1.764-1.764a1.371,1.371,0,0,0-1.928,0l-1.764,1.756a1.356,1.356,0,0,0,.964,2.317,1.424,1.424,0,0,0,.4-.06v2.825a1.365,1.365,0,0,0,1.36,1.36h2.578a1.36,1.36,0,0,0,0-2.72Zm0,1.973H21.161a.616.616,0,0,1-.613-.613V86.9l-.717.717a.613.613,0,1,1-.867-.867l1.764-1.764a.613.613,0,0,1,.867,0l1.764,1.764a.613.613,0,0,1-.867.867l-.717-.717v3.789h1.966a.616.616,0,0,1,.613.613A.622.622,0,0,1,23.739,91.92ZM44.874,68.6h1.218V70.06a1.424,1.424,0,0,0-.4-.06,1.356,1.356,0,0,0-.964,2.317l1.764,1.764a1.371,1.371,0,0,0,1.928,0l1.764-1.764A1.356,1.356,0,0,0,49.216,70a1.424,1.424,0,0,0-.4.06V67.242a1.365,1.365,0,0,0-1.36-1.36H44.874a1.36,1.36,0,1,0,0,2.72Zm0-1.973h2.578a.616.616,0,0,1,.613.613v4.409l.717-.717a.613.613,0,0,1,.867.867l-1.764,1.764a.613.613,0,0,1-.867,0L45.255,71.8a.613.613,0,0,1,.867-.867l.717.717V67.862H44.874a.616.616,0,0,1-.613-.613A.622.622,0,0,1,44.874,66.629Z" stroke="#000" stroke-width="0.5"/>
  </g>
</svg>
