<svg xmlns="http://www.w3.org/2000/svg" width="37.689" height="36.076" viewBox="0 0 37.689 36.076">
  <path id="tv-app_10380347" d="M33.053,19.347H20.7l7.372-7.372a.588.588,0,0,0-.832-.832L19.275,19.1l-7.962-7.961a.588.588,0,0,0-.832.832l7.373,7.372H4.676A4.661,4.661,0,0,0,.02,24V42.393a4.659,4.659,0,0,0,4.656,4.653H33.053a4.66,4.66,0,0,0,4.656-4.653V24a4.661,4.661,0,0,0-4.656-4.656Zm3.479,23.046a3.481,3.481,0,0,1-3.478,3.476H4.676A3.481,3.481,0,0,1,1.2,42.393V24a3.482,3.482,0,0,1,3.478-3.478H33.053A3.482,3.482,0,0,1,36.531,24v18.39ZM27.587,24.3H10.963a3.141,3.141,0,0,0-3.138,3.137V38.961A3.141,3.141,0,0,0,10.963,42.1H27.587a3.14,3.14,0,0,0,3.136-3.136V27.435A3.14,3.14,0,0,0,27.587,24.3ZM29.546,38.96a1.962,1.962,0,0,1-1.96,1.96H10.963A1.963,1.963,0,0,1,9,38.96V27.435a1.963,1.963,0,0,1,1.962-1.96H27.587a1.962,1.962,0,0,1,1.96,1.96V38.96Z" transform="translate(-0.02 -10.97)"/>
</svg>
