<svg xmlns="http://www.w3.org/2000/svg" width="30.386" height="30.381" viewBox="0 0 30.386 30.381">
  <g id="prueba-de-ab" transform="translate(-1.64 -1.64)">
    <path id="Trazado_994856" data-name="Trazado 994856" d="M13.847,1.64H3.737a2.1,2.1,0,0,0-2.1,2.1v16.45a2.1,2.1,0,0,0,2.1,2.1H13.847a2.1,2.1,0,0,0,2.1-2v-1.56s0-.01,0-.019,0-.01,0-.019l0-14.953a2.1,2.1,0,0,0-2.1-2.093ZM2.463,5.626H15.12l0,12.672H2.463ZM3.737,2.463H13.847A1.275,1.275,0,0,1,15.12,3.737V4.8H2.463V3.737A1.275,1.275,0,0,1,3.737,2.463Zm10.109,19H3.737a1.275,1.275,0,0,1-1.274-1.274V19.121H15.116v1.133A1.268,1.268,0,0,1,13.847,21.461Z"/>
    <path id="Trazado_994857" data-name="Trazado 994857" d="M12.3,5.723h3.551a.412.412,0,0,0,0-.823H12.3a.412.412,0,0,0,0,.823Z" transform="translate(-5.285 -1.681)"/>
    <path id="Trazado_994858" data-name="Trazado 994858" d="M49.134,25.315V23.837a2.1,2.1,0,0,0-2.1-2.1h-10.1a2.1,2.1,0,0,0-2.1,2.1v16.45a2.1,2.1,0,0,0,2.1,2.1H47.037a2.1,2.1,0,0,0,2.1-2v-1.56s0-.01,0-.019,0-.01,0-.019Zm-13.48.412H48.31l0,12.672H35.653Zm1.274-3.163H47.037a1.275,1.275,0,0,1,1.274,1.274V24.9H35.653V23.837A1.275,1.275,0,0,1,36.927,22.563Zm10.109,19H36.927a1.275,1.275,0,0,1-1.274-1.274V39.221H48.306v1.133a1.268,1.268,0,0,1-1.269,1.206Z" transform="translate(-17.113 -10.364)"/>
    <path id="Trazado_994859" data-name="Trazado 994859" d="M45.492,25.833h3.551a.412.412,0,0,0,0-.823H45.492a.412.412,0,0,0,0,.823Z" transform="translate(-22.398 -12.05)"/>
    <path id="Trazado_994860" data-name="Trazado 994860" d="M15.916,39.29H14.492a.412.412,0,1,0,0,.823h1.424a.412.412,0,1,0,0-.823Z" transform="translate(-6.414 -19.413)"/>
    <path id="Trazado_994861" data-name="Trazado 994861" d="M49.106,59.4H47.682a.412.412,0,1,0,0,.823h1.424a.412.412,0,1,0,0-.823Z" transform="translate(-23.527 -29.782)"/>
    <path id="Trazado_994862" data-name="Trazado 994862" d="M38.9,7.253h2.451a2.107,2.107,0,0,1,2.1,2.1v2.088l-.567-.567a.411.411,0,1,0-.581.581l1.24,1.24a.4.4,0,0,0,.291.121.4.4,0,0,0,.291-.121l1.24-1.24a.411.411,0,0,0-.581-.581l-.509.509V9.361A2.934,2.934,0,0,0,41.343,6.43H38.892a.411.411,0,0,0-.412.412.419.419,0,0,0,.417.412Z" transform="translate(-18.995 -2.47)"/>
    <path id="Trazado_994863" data-name="Trazado 994863" d="M20.7,50.166a.411.411,0,0,0-.581.581l.538.538h-2.17a2.1,2.1,0,0,1-2.1-2.1V46.732a.412.412,0,1,0-.823,0v2.451a2.927,2.927,0,0,0,2.931,2.931h2.17l-.538.538a.412.412,0,0,0,0,.581.4.4,0,0,0,.291.121.4.4,0,0,0,.291-.121l1.24-1.24a.412.412,0,0,0,0-.581Z" transform="translate(-7.177 -23.038)"/>
    <path id="Trazado_994864" data-name="Trazado 994864" d="M11.342,13.14a4.752,4.752,0,1,0,4.752,4.752,4.757,4.757,0,0,0-4.752-4.752Zm0,8.68a3.928,3.928,0,1,1,3.928-3.928,3.934,3.934,0,0,1-3.928,3.928Z" transform="translate(-2.552 -5.93)"/>
    <path id="Trazado_994865" data-name="Trazado 994865" d="M44.542,33.24a4.752,4.752,0,1,0,4.752,4.752A4.757,4.757,0,0,0,44.542,33.24Zm0,8.68a3.928,3.928,0,1,1,3.928-3.928A3.934,3.934,0,0,1,44.542,41.92Z" transform="translate(-19.671 -16.293)"/>
    <path id="Trazado_994866" data-name="Trazado 994866" d="M15.707,20.962l-1.114-2.64a.409.409,0,0,0-.756,0l-1.652,3.9a.413.413,0,1,0,.76.325l.426-1.012h1.686l.426,1.012a.41.41,0,0,0,.383.252.38.38,0,0,0,.16-.034.411.411,0,0,0,.218-.543Zm-1.986-.252.494-1.167.494,1.167Z" transform="translate(-5.421 -8.472)"/>
    <path id="Trazado_994867" data-name="Trazado 994867" d="M48.74,40.107a1.491,1.491,0,0,0,.315-.911,1.508,1.508,0,0,0-1.506-1.506H45.742a.411.411,0,0,0-.412.412v4.379a.411.411,0,0,0,.412.412h2.2a1.508,1.508,0,0,0,1.506-1.506,1.476,1.476,0,0,0-.712-1.279Zm-2.582-1.6h1.39a.683.683,0,0,1,0,1.366h-1.39Zm1.792,3.555H46.158V40.7h1.792a.683.683,0,1,1,0,1.366Z" transform="translate(-22.527 -18.588)"/>
  </g>
</svg>
