<svg xmlns="http://www.w3.org/2000/svg" width="34.951" height="34.469" viewBox="0 0 34.951 34.469">
  <g id="retargeting" transform="translate(-0.132 -1)">
    <path id="Trazado_994868" data-name="Trazado 994868" d="M47,15h1.112v1.112H47Z" transform="translate(-20.812 -6.217)"/>
    <path id="Trazado_994869" data-name="Trazado 994869" d="M51,15h1.112v1.112H51Z" transform="translate(-22.588 -6.217)"/>
    <path id="Trazado_994870" data-name="Trazado 994870" d="M55,15h1.112v1.112H55Z" transform="translate(-24.364 -6.217)"/>
    <path id="Trazado_994871" data-name="Trazado 994871" d="M33.971,5.448H32.859V3.78A2.783,2.783,0,0,0,30.08,1H7.842a2.783,2.783,0,0,0-2.78,2.78v8.339H.132L2.726,16.01.132,19.9h4.93V32.689a2.783,2.783,0,0,0,2.78,2.78H30.08a2.783,2.783,0,0,0,2.78-2.78V13.231h1.112a1.113,1.113,0,0,0,1.112-1.112V6.559A1.113,1.113,0,0,0,33.971,5.448ZM6.174,3.78A1.67,1.67,0,0,1,7.842,2.112H30.08A1.67,1.67,0,0,1,31.747,3.78V5.448H30.636V4.336a1.113,1.113,0,0,0-1.112-1.112H8.4A1.113,1.113,0,0,0,7.286,4.336v9l-.814-1.221h-.3ZM25.012,15.167a6.111,6.111,0,1,1-12.138,1.4h2.24a3.892,3.892,0,1,0,0-1.112h-2.24A6.105,6.105,0,0,1,22.852,11.3v.818a1.113,1.113,0,0,0,1.112,1.112h.556v.927A1.29,1.29,0,0,0,25.012,15.167ZM8.4,17.013l.3-.446h.842a9.445,9.445,0,1,0,18.493-3.2l.1-.138h1.39V27.685H8.4ZM22.852,9.926a7.214,7.214,0,0,0-11.091,5.528H10.65a8.326,8.326,0,0,1,12.2-6.816Zm4.311,4.6A8.333,8.333,0,1,1,10.65,16.566h1.112a7.224,7.224,0,0,0,14.426-.556c0-.2-.009-.405-.027-.608a1.3,1.3,0,0,0,.694-.467Zm-10.926.929a2.78,2.78,0,1,1,0,1.112h3.28V15.455Zm6.615-8.9V7.4A9.433,9.433,0,0,0,9.538,15.455H8.7l-.3-.446V4.336H29.524V5.448H23.964A1.113,1.113,0,0,0,22.852,6.559ZM2.209,13.231H5.877l1.482,2.224H3.692Zm1.483,3.336H7.359L5.877,18.79H2.209ZM31.747,32.689a1.67,1.67,0,0,1-1.668,1.668H7.842a1.67,1.67,0,0,1-1.668-1.668V19.9h.3l.814-1.221v9A1.113,1.113,0,0,0,8.4,28.8H29.524a1.113,1.113,0,0,0,1.112-1.112V13.231h1.112Zm-4.17-20.57-1.612,2.149a.193.193,0,0,1-.334-.111V12.119H23.964V6.559H33.971v5.559Z" transform="translate(0 0)"/>
    <path id="Trazado_994872" data-name="Trazado 994872" d="M33.336,53H31.112A1.113,1.113,0,0,0,30,54.112v1.112a1.113,1.113,0,0,0,1.112,1.112h2.224a1.113,1.113,0,0,0,1.112-1.112V54.112A1.113,1.113,0,0,0,33.336,53Zm-2.224,2.224V54.112h2.224v1.112Z" transform="translate(-13.263 -23.091)"/>
  </g>
</svg>
