<svg xmlns="http://www.w3.org/2000/svg" width="39.626" height="33.213" viewBox="0 0 39.626 33.213">
  <path id="costos" d="M40.126,61.031a5.789,5.789,0,1,0-9.248,4.64,13.01,13.01,0,0,1-1.4,1.715,12.731,12.731,0,0,1-16.711,1.4l2.708-2.78a.542.542,0,0,0-.4-.92l-7.625.1a.542.542,0,0,0-.534.567l.34,7.38a.542.542,0,0,0,.929.353l1.9-1.945A16.533,16.533,0,0,0,20.3,75.064q.415,0,.833-.021a16.625,16.625,0,0,0,13.53-8.233,5.8,5.8,0,0,0,5.458-5.779Zm-8.7,8.259a15.587,15.587,0,0,1-21.044,1.1.542.542,0,0,0-.735.038l-1.368,1.4-.257-5.572,5.758-.075-2.22,2.279a.542.542,0,0,0,.048.8,13.83,13.83,0,0,0,8.7,3.066q.4,0,.8-.023a13.842,13.842,0,0,0,9.144-4.169A14.087,14.087,0,0,0,31.8,66.236a5.741,5.741,0,0,0,1.632.514,15.543,15.543,0,0,1-2.006,2.54Zm2.907-3.553a4.706,4.706,0,1,1,4.706-4.706A4.711,4.711,0,0,1,34.337,65.736Zm2.293-3.653a1.555,1.555,0,0,1-1.58,1.595h-.171v.643a.542.542,0,0,1-1.084,0v-.643H32.586a.542.542,0,1,1,0-1.084h2.464a.511.511,0,0,0,0-1.022H33.624a1.595,1.595,0,0,1,0-3.19h.171V57.74a.542.542,0,0,1,1.084,0v.643h1.209a.542.542,0,1,1,0,1.084H33.624a.511.511,0,0,0,0,1.022h1.426a1.555,1.555,0,0,1,1.58,1.595ZM12.079,57.826A5.794,5.794,0,0,0,8.9,52.663,12.795,12.795,0,0,1,29.24,49.3c.172.167.339.339.5.515L27.021,52.6a.542.542,0,0,0,.377.92l7.386.147h.011a.542.542,0,0,0,.542-.549c-.033-2.516-.066-5.063-.1-7.628a.542.542,0,0,0-.93-.371l-1.9,1.953q-.24-.254-.5-.513A16.616,16.616,0,0,0,4.927,52.2a5.789,5.789,0,1,0,7.151,5.626ZM9.2,47.626a15.54,15.54,0,0,1,21.949-.287c.306.3.588.6.84.884a.542.542,0,0,0,.393.185.533.533,0,0,0,.4-.164l1.39-1.427q.037,2.9.075,5.759l-5.577-.111,2.2-2.257a.542.542,0,0,0,.025-.729c-.28-.33-.582-.653-.9-.959a13.881,13.881,0,0,0-22.1,3.744,5.769,5.769,0,0,0-1.6-.228l-.114,0A15.415,15.415,0,0,1,9.2,47.626ZM6.289,62.531a4.706,4.706,0,1,1,4.706-4.706A4.711,4.711,0,0,1,6.289,62.531Zm2.293-3.653A1.555,1.555,0,0,1,7,60.474H6.831v.643a.542.542,0,0,1-1.084,0v-.643H4.539a.542.542,0,1,1,0-1.084H7a.511.511,0,0,0,0-1.022H5.576a1.595,1.595,0,0,1,0-3.19h.171v-.643a.542.542,0,0,1,1.084,0v.643H8.04a.542.542,0,1,1,0,1.084H5.576a.511.511,0,0,0,0,1.022H7a1.555,1.555,0,0,1,1.58,1.595Zm18.324,1.283a.542.542,0,0,0,.534-.449,7.3,7.3,0,0,0,0-2.513.542.542,0,0,0-.534-.449h-.674a6.072,6.072,0,0,0-.528-1.274L26.179,55a.542.542,0,0,0,.061-.694,7.254,7.254,0,0,0-1.778-1.778.542.542,0,0,0-.695.06l-.475.475a6.109,6.109,0,0,0-1.274-.529v-.671a.542.542,0,0,0-.449-.534,7.337,7.337,0,0,0-2.514,0,.542.542,0,0,0-.449.534v.671a6.109,6.109,0,0,0-1.274.529l-.475-.475a.542.542,0,0,0-.695-.06,7.254,7.254,0,0,0-1.778,1.778.542.542,0,0,0,.061.694l.475.475a6.08,6.08,0,0,0-.528,1.274H13.72a.542.542,0,0,0-.534.449,7.3,7.3,0,0,0,0,2.513.542.542,0,0,0,.534.449h.673a6.039,6.039,0,0,0,.528,1.275l-.474.474a.542.542,0,0,0-.061.693,7.226,7.226,0,0,0,1.778,1.781.542.542,0,0,0,.695-.06l.475-.475a6.109,6.109,0,0,0,1.274.529v.671a.542.542,0,0,0,.449.534,7.3,7.3,0,0,0,2.514,0,.542.542,0,0,0,.449-.534v-.671a6.108,6.108,0,0,0,1.274-.529l.475.475a.542.542,0,0,0,.695.06A7.229,7.229,0,0,0,26.24,62.6a.542.542,0,0,0-.061-.694l-.474-.473a6.123,6.123,0,0,0,.529-1.276h.672Zm-1.625-.655a5.057,5.057,0,0,1-.713,1.719.542.542,0,0,0,.071.68l.44.439a6.128,6.128,0,0,1-.879.88l-.441-.441a.542.542,0,0,0-.678-.071,5.039,5.039,0,0,1-1.716.712.542.542,0,0,0-.43.53v.622a6.214,6.214,0,0,1-1.244,0v-.622a.542.542,0,0,0-.43-.53,5.042,5.042,0,0,1-1.716-.712.542.542,0,0,0-.678.071l-.441.441a6.131,6.131,0,0,1-.88-.881l.441-.441a.542.542,0,0,0,.07-.68,4.974,4.974,0,0,1-.71-1.714.542.542,0,0,0-.53-.43h-.625a6.189,6.189,0,0,1,0-1.244h.624a.542.542,0,0,0,.53-.43,5.008,5.008,0,0,1,.711-1.715.542.542,0,0,0-.07-.68l-.441-.441a6.156,6.156,0,0,1,.879-.879l.441.441a.542.542,0,0,0,.678.071,5.039,5.039,0,0,1,1.716-.712.542.542,0,0,0,.43-.53v-.622a6.213,6.213,0,0,1,1.244,0v.622a.542.542,0,0,0,.43.53,5.041,5.041,0,0,1,1.716.712.542.542,0,0,0,.678-.071l.441-.441a6.156,6.156,0,0,1,.879.879l-.441.441a.542.542,0,0,0-.07.68,5.009,5.009,0,0,1,.711,1.715.542.542,0,0,0,.53.43h.624a6.2,6.2,0,0,1,0,1.244h-.622a.542.542,0,0,0-.53.429ZM20.314,54.57A3.887,3.887,0,1,0,24.2,58.458,3.893,3.893,0,0,0,20.314,54.57Zm0,6.691a2.8,2.8,0,1,1,2.8-2.8A2.808,2.808,0,0,1,20.314,61.261Z" transform="translate(-0.5 -41.851)"/>
</svg>
